<?xml version="1.0" standalone="no"?>
<!DOCTYPE svg PUBLIC "-//W3C//DTD SVG 20010904//EN"
 "http://www.w3.org/TR/2001/REC-SVG-20010904/DTD/svg10.dtd">
<svg version="1.0" xmlns="http://www.w3.org/2000/svg"
 width="2000.000000pt" height="1500.000000pt" viewBox="0 0 2000.000000 1500.000000"
 preserveAspectRatio="xMidYMid meet">

<g transform="translate(0.000000,1500.000000) scale(0.100000,-0.100000)"
fill="#000000" stroke="none">
<path d="M9695 11961 c-269 -102 -447 -186 -564 -264 -46 -32 -85 -57 -86 -57
0 0 2 33 7 72 11 108 -3 139 -55 119 -12 -5 -74 -57 -136 -115 -63 -59 -134
-119 -158 -132 -40 -24 -48 -25 -126 -19 -144 12 -257 -30 -374 -139 -65 -60
-122 -143 -142 -207 -11 -33 -16 -37 -59 -43 -26 -3 -94 -1 -152 5 -120 13
-204 8 -246 -14 -56 -29 -301 -253 -575 -525 -300 -296 -289 -281 -353 -464
-41 -114 -74 -157 -255 -333 -440 -427 -477 -469 -573 -660 -101 -200 -155
-411 -228 -890 -22 -148 -47 -304 -55 -345 l-14 -76 89 -177 c144 -289 231
-531 279 -781 26 -134 26 -151 0 -177 -17 -17 -29 -20 -60 -16 l-39 5 0 -106
c0 -208 0 -206 270 -817 193 -437 307 -716 366 -898 31 -93 42 -117 57 -117
28 0 72 -26 101 -60 27 -32 35 -58 80 -245 52 -219 175 -413 320 -506 110 -72
149 -81 361 -89 223 -8 256 -18 369 -103 137 -105 273 -155 437 -162 l95 -4
245 -127 c263 -136 352 -186 441 -246 65 -43 101 -48 135 -16 l23 21 0 -71 c0
-40 3 -72 8 -72 4 0 79 9 167 19 483 58 852 51 1130 -23 69 -18 86 -19 125 -9
124 32 246 8 419 -84 118 -61 186 -77 214 -48 17 16 16 27 0 71 -7 18 105 61
231 88 177 39 179 38 245 -49 41 -54 92 -95 119 -95 8 0 12 23 12 80 0 140 34
168 188 156 l85 -6 -7 57 c-11 105 -5 116 178 307 91 95 191 191 222 212 l56
39 20 -25 c32 -40 119 -130 125 -130 12 0 -8 92 -28 133 -12 23 -44 66 -70 95
-27 30 -49 57 -49 62 0 15 25 27 109 55 98 32 161 31 211 -5 l32 -23 -17 32
c-40 77 3 112 148 121 72 5 111 12 129 24 34 22 64 86 73 154 6 49 15 63 109
175 249 298 392 518 561 862 81 164 230 515 218 515 -3 0 -34 -23 -69 -51 -85
-67 -174 -166 -241 -267 -30 -45 -64 -87 -75 -93 -20 -11 -57 -9 -88 5 -12 4
-21 -13 -42 -77 l-27 -82 2 63 c1 34 0 62 -3 62 -3 0 -57 -41 -120 -91 -379
-300 -917 -693 -1297 -947 -275 -184 -308 -202 -363 -202 -42 0 -81 27 -107
74 -10 17 -15 15 -72 -33 -37 -30 -72 -51 -86 -51 -30 0 -49 33 -41 72 l6 29
-82 -3 -82 -3 -24 -49 c-24 -49 -25 -49 -41 -29 -9 11 -21 29 -27 39 -17 27
-23 16 -38 -67 -8 -41 -14 -64 -15 -53 -1 26 -23 46 -43 39 -8 -3 -25 -23 -39
-44 l-24 -38 -41 61 c-44 64 -117 140 -96 100 18 -35 31 -107 23 -122 -7 -12
-12 -10 -29 8 l-20 22 -7 -66 c-4 -36 -11 -66 -16 -66 -5 0 -38 -27 -73 -59
-53 -49 -71 -60 -107 -64 -244 -29 -330 -41 -432 -64 l-118 -26 -157 36 c-280
65 -600 114 -887 137 -302 24 -491 81 -728 218 -80 46 -94 58 -80 65 38 20 83
72 89 103 9 46 -3 60 -26 31 -23 -30 -54 -42 -145 -61 l-70 -15 -130 127 c-71
70 -258 247 -415 392 -475 441 -830 800 -954 964 -46 61 -116 205 -186 381
-65 163 -131 315 -137 315 -3 0 -16 -9 -30 -20 -35 -27 -47 -25 -77 10 -38 46
-54 106 -35 138 22 39 43 48 79 35 23 -9 30 -9 30 1 0 7 -20 154 -45 327 -29
199 -44 329 -40 356 3 23 25 81 49 130 24 48 48 104 54 123 6 19 39 282 72
585 33 302 72 606 86 674 35 177 103 373 189 546 130 264 277 464 540 733 207
213 584 562 668 618 76 51 654 392 792 466 228 124 444 211 651 264 215 54
312 65 609 70 252 5 273 7 315 27 69 34 90 83 90 215 l0 104 -30 -7 c-50 -11
-85 3 -167 67 -68 53 -151 100 -171 97 -4 0 -110 -40 -237 -88z m-3397 -5714
c12 -13 45 -76 73 -141 27 -64 60 -133 71 -152 l21 -36 -39 20 c-62 32 -83 62
-95 131 -5 35 -25 94 -45 132 -36 72 -29 92 14 46z m-96 -73 c14 -43 27 -85
27 -92 1 -8 -20 12 -46 45 -26 32 -51 60 -55 61 -25 11 10 78 36 69 6 -2 23
-39 38 -83z"/>
<path d="M11272 11751 l-104 -6 -37 -41 c-21 -22 -40 -46 -42 -53 -4 -12 -9
-12 -29 0 -18 10 -59 14 -148 12 -104 -1 -130 -5 -168 -23 -81 -40 -119 -126
-94 -217 10 -37 28 -63 79 -113 119 -117 296 -189 519 -211 134 -13 134 -13
402 -177 206 -126 480 -312 845 -573 554 -397 503 -364 560 -363 37 0 72 11
137 42 48 23 89 42 90 42 2 0 3 -44 4 -97 1 -115 21 -197 95 -385 56 -141 94
-193 189 -258 77 -52 135 -120 161 -189 28 -74 30 -199 5 -300 l-19 -74 48
-91 c93 -179 214 -335 338 -433 22 -18 27 -29 27 -67 0 -109 52 -149 111 -85
16 17 29 27 29 22 0 -5 -7 -63 -15 -128 -24 -184 -30 -368 -15 -453 6 -40 13
-72 15 -70 2 2 10 77 20 168 28 276 71 499 133 683 16 48 26 87 22 87 -17 0
-62 -45 -86 -86 -24 -41 -50 -64 -72 -64 -5 0 -12 91 -16 203 -7 216 -16 312
-68 727 l-32 265 -455 728 c-490 786 -515 821 -698 980 -242 211 -510 367
-827 482 -318 114 -501 138 -904 116z"/>
<path d="M7650 9805 l0 -195 228 -2 227 -3 0 -2105 0 -2105 -227 -3 -228 -2 0
-195 0 -195 720 0 720 0 0 195 0 195 -269 0 -269 0 -6 503 c-9 707 -28 3449
-24 3453 2 1 643 -975 1424 -2169 l1421 -2172 261 -3 262 -2 0 2305 0 2305
225 0 225 0 0 195 0 195 -680 0 -680 0 0 -195 0 -195 229 0 229 0 6 -502 c9
-706 28 -3450 24 -3454 -2 -1 -642 976 -1422 2172 l-1419 2174 -488 0 -489 0
0 -195z"/>
</g>
</svg>
