<?xml version="1.0" standalone="no"?>
<!DOCTYPE svg PUBLIC "-//W3C//DTD SVG 20010904//EN"
 "http://www.w3.org/TR/2001/REC-SVG-20010904/DTD/svg10.dtd">
<svg version="1.0" xmlns="http://www.w3.org/2000/svg"
 width="1587.000000pt" height="2245.000000pt" viewBox="0 0 1587.000000 2245.000000"
 preserveAspectRatio="xMidYMid meet">

<g transform="translate(0.000000,2245.000000) scale(0.100000,-0.100000)"
fill="#000000" stroke="none">
<path d="M7577 20845 c-415 -59 -787 -245 -1075 -537 -161 -163 -244 -274
-336 -450 -89 -168 -145 -323 -187 -518 -27 -122 -37 -462 -19 -606 87 -690
554 -1282 1210 -1530 174 -66 408 -114 558 -114 l82 0 0 -480 c0 -473 0 -480
20 -480 20 0 20 7 20 475 0 446 1 475 18 475 104 1 365 24 444 40 739 151
1313 722 1474 1467 22 98 27 154 31 325 6 237 -4 342 -49 522 -83 332 -254
634 -492 871 -271 270 -588 440 -966 521 -113 23 -150 26 -380 30 -182 2 -283
-1 -353 -11z m534 -30 c605 -92 1127 -474 1395 -1022 355 -728 204 -1597 -378
-2159 -565 -546 -1405 -679 -2113 -334 -765 373 -1175 1211 -1005 2053 60 292
202 583 402 822 310 371 766 608 1258 655 117 11 316 4 441 -15z"/>
<path d="M6790 20152 c0 -13 52 -58 85 -75 63 -30 183 -61 270 -67 l90 -7 -74
-1 c-130 -3 -70 -12 112 -17 97 -2 179 0 182 5 3 5 -5 11 -17 13 -13 2 5 5 40
6 45 1 61 -2 56 -11 -5 -8 22 -9 107 -4 63 4 124 10 137 13 21 5 22 2 22 -52
0 -35 4 -54 10 -50 6 3 10 1 10 -4 0 -6 -4 -11 -9 -11 -10 0 -21 -88 -14 -108
5 -11 7 -11 14 0 7 10 9 9 9 -4 0 -10 -7 -18 -16 -18 -14 0 -14 -3 -4 -15 9
-10 9 -15 1 -15 -6 0 -11 -6 -12 -12 0 -7 -52 -51 -115 -97 -167 -122 -504
-453 -504 -495 0 -6 5 -5 12 2 20 20 46 14 55 -12 8 -25 39 -51 121 -103 24
-16 89 -61 145 -102 56 -41 127 -91 157 -110 30 -20 70 -47 88 -60 l32 -25 0
-129 c0 -70 5 -137 10 -148 6 -10 7 -19 2 -19 -5 0 -8 -35 -6 -77 7 -163 17
-460 18 -515 0 -38 4 -59 13 -62 8 -3 13 2 13 12 0 28 157 153 360 288 161
107 253 184 238 200 -14 13 -192 -90 -269 -155 -25 -22 -63 -51 -84 -66 -44
-29 -178 -146 -215 -187 -13 -16 -29 -28 -34 -28 -10 0 -2 838 8 848 3 3 27
-15 53 -40 27 -24 82 -67 123 -96 41 -28 98 -69 126 -89 29 -21 89 -65 134
-98 45 -33 91 -66 101 -74 10 -7 19 -9 19 -5 0 5 -45 50 -101 99 -55 50 -122
113 -147 140 -108 116 -219 195 -274 195 -27 0 -28 2 -28 55 0 37 4 55 13 55
8 0 8 3 -2 9 -12 8 -13 40 -6 198 5 103 8 224 7 268 -2 135 8 225 24 225 8 0
14 5 14 10 0 6 -6 10 -13 10 -9 0 -13 10 -11 33 2 17 6 124 9 237 l6 205 57 2
c95 4 163 14 157 23 -8 13 49 22 77 11 14 -5 28 -7 31 -5 12 12 232 15 303 4
96 -15 284 -79 387 -132 84 -44 110 -47 50 -5 -94 65 -275 135 -422 164 -119
23 -695 25 -851 3 -145 -21 -520 -18 -650 4 -102 18 -175 40 -201 62 -18 16
-29 18 -29 6z m998 -543 c-1 -33 -6 -42 -25 -50 -41 -15 -42 -11 -10 40 18 28
33 50 34 50 2 1 2 -17 1 -40z m22 -80 c0 -6 -7 -9 -15 -5 -10 3 -15 -1 -15
-13 0 -11 -6 -22 -12 -24 -11 -5 23 -11 43 -9 4 1 7 -10 7 -23 0 -16 -6 -25
-17 -26 -14 -1 -14 -2 0 -6 10 -2 16 -15 16 -33 0 -31 -27 -49 -75 -51 -34 -1
-115 -27 -87 -28 11 0 48 6 82 13 34 7 64 12 66 9 2 -2 2 -14 -1 -28 -5 -30
-49 -47 -182 -70 -170 -31 -205 -39 -188 -43 10 -2 85 10 168 27 176 37 180
37 180 12 0 -11 5 -23 10 -26 31 -19 -8 -37 -129 -59 -46 -9 -86 -18 -89 -21
-10 -10 43 -5 103 10 78 19 105 19 105 0 0 -8 5 -15 10 -15 6 0 10 -4 10 -9 0
-5 -35 -17 -77 -26 -79 -17 -124 -34 -93 -35 8 0 42 7 75 15 79 19 75 20 75
-18 0 -33 -2 -34 -60 -50 -33 -10 -63 -18 -67 -19 -5 0 -31 -6 -59 -13 -49
-11 -52 -11 -83 17 -34 30 -35 30 38 48 65 17 41 24 -32 10 -61 -13 -66 -12
-96 9 -17 13 -28 27 -24 33 4 7 1 9 -8 6 -8 -3 -32 7 -54 23 -21 16 -45 29
-54 29 -33 0 7 18 69 30 35 8 58 16 51 18 -19 6 -135 -20 -143 -32 -5 -8 -11
-7 -19 1 -17 17 46 93 71 86 20 -5 261 42 295 58 16 8 14 8 -10 5 -65 -9 -163
-28 -223 -42 -35 -9 -66 -14 -68 -11 -9 9 40 48 54 42 7 -2 11 -1 7 4 -3 5 6
18 20 29 14 11 25 24 25 30 0 17 50 43 73 38 12 -3 16 -3 10 0 -17 8 -16 24 1
24 8 0 16 7 20 15 3 8 10 15 15 15 6 0 7 -7 4 -17 -5 -12 -3 -14 7 -8 8 5 46
17 85 26 l70 18 -55 -6 -55 -5 25 19 c31 25 66 43 99 54 40 11 101 10 101 -2z
m-28 -563 c7 -37 -1 -44 -79 -67 l-71 -21 -36 28 c-19 15 -33 30 -31 32 5 6
177 50 196 51 10 1 19 -9 21 -23z m-2 -90 c0 -18 -8 -27 -31 -35 -44 -15 -60
-14 -89 8 l-25 19 30 7 c17 4 44 11 60 15 48 13 55 11 55 -14z m-2 -97 c-3
-20 -4 -20 -33 5 -31 26 -28 41 10 48 21 4 29 -14 23 -53z"/>
<path d="M7713 19473 c9 -2 23 -2 30 0 6 3 -1 5 -18 5 -16 0 -22 -2 -12 -5z"/>
<path d="M7708 19403 c7 -3 16 -2 19 1 4 3 -2 6 -13 5 -11 0 -14 -3 -6 -6z"/>
<path d="M7525 19370 l-20 -9 20 1 c11 0 31 4 45 8 l25 8 -25 0 c-14 0 -34 -3
-45 -8z"/>
<path d="M7435 19350 c-7 -11 9 -11 45 0 24 8 24 8 -7 9 -17 1 -35 -3 -38 -9z"/>
<path d="M7470 19104 l-45 -14 49 6 c27 3 58 9 70 14 20 8 20 9 -4 8 -14 0
-45 -6 -70 -14z"/>
<path d="M7048 20003 c6 -2 18 -2 25 0 6 3 1 5 -13 5 -14 0 -19 -2 -12 -5z"/>
<path d="M7800 17596 c-72 -27 -86 -34 -99 -50 -14 -17 -7 -36 15 -36 8 0 14
-6 14 -12 0 -10 2 -10 8 -1 4 6 25 14 47 16 22 3 57 12 77 21 21 9 60 16 87
16 88 0 105 18 41 44 -48 19 -142 20 -190 2z m157 -32 c-3 -3 -12 -4 -19 -1
-8 3 -5 6 6 6 11 1 17 -2 13 -5z m40 0 c-3 -3 -12 -4 -19 -1 -8 3 -5 6 6 6 11
1 17 -2 13 -5z"/>
<path d="M4100 15160 l0 -400 75 0 75 0 0 120 c0 133 12 178 53 205 15 9 40
15 59 13 50 -5 58 -30 58 -195 l0 -143 70 0 70 0 0 175 c0 127 -4 185 -14 209
-19 46 -71 76 -134 76 -64 0 -98 -13 -139 -53 l-33 -31 0 212 0 212 -70 0 -70
0 0 -400z"/>
<path d="M4710 15160 l0 -400 70 0 c62 0 70 2 70 19 0 17 3 17 47 -5 97 -50
213 -23 280 64 92 120 47 322 -82 372 -48 19 -148 14 -199 -9 l-46 -20 0 190
0 189 -70 0 -70 0 0 -400z m331 -78 c60 -54 48 -162 -23 -198 -42 -22 -111
-14 -144 17 -21 19 -24 31 -24 89 0 56 3 70 23 87 29 26 43 31 94 32 33 1 50
-5 74 -27z"/>
<path d="M11870 15370 l0 -190 -42 21 c-78 40 -205 23 -266 -34 -48 -45 -67
-96 -66 -182 0 -86 19 -139 66 -182 62 -58 171 -70 254 -28 27 14 50 25 52 25
1 0 2 -9 2 -20 0 -18 7 -20 70 -20 l70 0 0 400 0 400 -70 0 -70 0 0 -190z
m-50 -275 c39 -20 50 -43 50 -105 0 -28 -5 -60 -10 -71 -15 -28 -63 -49 -111
-49 -33 0 -47 6 -75 34 -30 30 -34 40 -34 86 0 46 4 56 34 86 28 28 42 34 75
34 23 0 55 -7 71 -15z"/>
<path d="M2810 15135 l0 -375 75 0 75 0 0 143 c0 140 6 168 35 167 5 -1 60
-70 120 -155 l110 -155 94 0 c73 0 91 3 84 13 -66 84 -285 381 -289 390 -2 7
63 87 146 178 l151 164 -93 3 c-92 3 -93 3 -118 -26 -14 -16 -73 -84 -132
-151 l-108 -121 0 150 0 150 -75 0 -75 0 0 -375z"/>
<path d="M6317 15503 c-4 -3 -7 -173 -7 -376 l0 -369 183 4 c179 3 183 3 247
34 144 68 222 205 206 362 -20 190 -140 314 -332 342 -78 11 -287 14 -297 3z
m358 -162 c77 -35 116 -104 117 -205 2 -78 -14 -124 -55 -164 -46 -44 -100
-64 -194 -70 l-83 -5 0 232 0 231 88 0 c63 0 98 -5 127 -19z"/>
<path d="M10087 15495 c-85 -28 -147 -113 -147 -201 0 -97 56 -164 182 -215
125 -52 163 -100 123 -156 -35 -50 -126 -53 -224 -8 -29 14 -54 25 -56 25 -2
0 -17 -25 -33 -55 l-30 -54 34 -20 c67 -40 126 -55 219 -55 82 -1 95 2 144 29
71 39 104 89 109 165 9 121 -28 171 -183 245 -124 60 -146 84 -125 136 22 53
89 61 194 24 39 -13 71 -23 72 -22 1 1 14 26 28 55 l27 53 -66 30 c-80 38
-192 48 -268 24z"/>
<path d="M8106 15409 c-52 -41 -16 -119 55 -119 38 0 69 32 69 70 0 63 -71 91
-124 49z"/>
<path d="M12182 15414 c-16 -11 -22 -25 -22 -54 0 -45 26 -70 73 -70 33 0 77
40 77 70 0 30 -44 70 -77 70 -16 0 -39 -7 -51 -16z"/>
<path d="M10580 15305 l0 -95 -35 0 -35 0 0 -60 0 -60 35 0 35 0 0 -165 0
-165 70 0 70 0 0 164 0 165 53 3 52 3 0 55 0 55 -52 3 -53 3 0 95 0 94 -70 0
-70 0 0 -95z"/>
<path d="M3614 15218 c-52 -11 -116 -65 -143 -121 -28 -57 -29 -174 -2 -232
22 -48 67 -89 117 -105 53 -18 148 -8 184 18 36 27 40 27 40 2 0 -18 7 -20 75
-20 l75 0 0 220 0 220 -70 0 c-64 0 -70 -2 -70 -21 0 -20 -1 -20 -31 5 -17 14
-40 28 -52 30 -56 11 -85 12 -123 4z m157 -131 c33 -22 34 -25 37 -96 3 -84
-8 -104 -68 -122 -48 -15 -102 8 -130 53 -68 112 54 237 161 165z"/>
<path d="M5465 15215 c-66 -17 -127 -81 -149 -155 -19 -64 -20 -82 -5 -150 32
-149 227 -213 342 -112 16 14 17 13 17 -11 0 -27 1 -27 70 -27 l70 0 0 220 0
220 -65 0 c-51 0 -65 -3 -65 -15 0 -20 -6 -19 -39 4 -25 18 -42 24 -103 35
-13 2 -45 -2 -73 -9z m150 -119 c44 -19 55 -42 55 -113 0 -71 -17 -99 -70
-113 -71 -19 -137 25 -147 99 -7 52 12 98 51 122 37 23 65 24 111 5z"/>
<path d="M8510 15216 c-64 -17 -115 -59 -145 -119 -72 -146 15 -330 164 -345
66 -6 111 3 155 33 l36 24 0 -43 c0 -33 -6 -49 -26 -69 -47 -47 -145 -45 -207
4 l-25 19 -42 -47 -41 -47 33 -28 c52 -43 118 -61 207 -56 83 5 127 22 179 72
66 61 67 66 70 339 l4 247 -71 0 c-53 0 -71 -3 -71 -13 0 -10 -12 -8 -47 9
-62 29 -117 35 -173 20z m144 -116 c51 -19 66 -45 66 -115 0 -76 -15 -98 -78
-115 -117 -31 -211 100 -135 190 40 48 91 62 147 40z"/>
<path d="M7175 15196 c-96 -44 -139 -120 -133 -232 3 -61 8 -79 34 -116 41
-59 100 -90 184 -96 66 -4 162 16 175 38 3 5 -8 31 -25 59 -30 49 -31 49 -58
35 -38 -19 -95 -18 -122 4 -23 19 -23 19 126 66 82 26 154 49 161 51 18 6 -10
90 -45 134 -64 81 -193 106 -297 57z m155 -96 c11 -6 24 -19 30 -29 9 -18 2
-22 -73 -47 -45 -15 -88 -29 -94 -32 -27 -9 -14 58 16 89 31 31 83 39 121 19z"/>
<path d="M7705 15206 c-96 -43 -120 -166 -45 -229 16 -14 53 -33 82 -42 63
-21 78 -31 78 -55 0 -38 -79 -41 -132 -5 l-37 25 -30 -39 -31 -39 29 -21 c98
-70 228 -66 303 9 35 34 38 42 38 92 0 83 -21 103 -155 150 -45 15 -58 44 -29
65 23 17 52 16 88 -2 39 -21 41 -20 67 21 18 30 20 38 8 49 -38 35 -175 47
-234 21z"/>
<path d="M9240 15209 c-14 -6 -39 -24 -56 -40 l-31 -30 -6 30 c-6 31 -7 31
-72 31 l-65 0 0 -220 0 -220 75 0 75 0 0 120 c0 133 12 178 53 205 15 9 40 15
59 13 50 -5 58 -30 58 -195 l0 -143 70 0 70 0 0 175 c0 199 -7 229 -63 263
-37 24 -121 29 -167 11z"/>
<path d="M12550 15199 c-80 -36 -125 -96 -136 -183 -20 -145 89 -266 241 -266
85 0 131 16 181 62 56 52 78 108 72 192 -8 134 -100 216 -242 216 -50 0 -84
-7 -116 -21z m161 -105 c32 -16 59 -66 59 -110 0 -72 -64 -131 -129 -118 -81
16 -113 140 -54 207 35 38 77 46 124 21z"/>
<path d="M8080 14980 l0 -220 75 0 75 0 0 220 0 220 -75 0 -75 0 0 -220z"/>
<path d="M10930 15028 c0 -145 3 -179 18 -208 47 -94 175 -109 258 -28 l32 30
7 -31 c7 -31 7 -31 71 -31 l64 0 0 220 0 220 -69 0 -69 0 -4 -122 c-3 -89 -9
-132 -21 -155 -31 -58 -88 -81 -121 -47 -13 13 -16 43 -16 170 l0 154 -75 0
-75 0 0 -172z"/>
<path d="M12160 14980 l0 -220 70 0 70 0 0 220 0 220 -70 0 -70 0 0 -220z"/>
<path d="M8680 13665 l0 -195 35 0 35 0 0 195 0 195 -35 0 -35 0 0 -195z"/>
<path d="M10290 13769 c0 -79 -2 -90 -16 -85 -63 24 -121 12 -150 -32 -21 -32
-24 -100 -5 -135 8 -14 29 -33 48 -42 31 -15 39 -15 79 -2 24 8 44 10 44 6 0
-5 16 -9 35 -9 l35 0 0 195 0 195 -35 0 -35 0 0 -91z m-16 -145 c34 -33 6
-104 -40 -104 -43 0 -72 71 -44 105 16 20 64 19 84 -1z"/>
<path d="M12420 13665 l0 -195 35 0 35 0 0 59 c0 69 6 88 30 101 39 21 50 3
50 -81 l0 -79 35 0 35 0 0 94 c0 91 -1 95 -27 116 -31 24 -74 22 -105 -7 -17
-15 -18 -12 -18 85 l0 102 -35 0 -35 0 0 -195z"/>
<path d="M2748 13823 c-9 -10 -19 -28 -22 -40 -6 -20 -4 -23 21 -23 23 0 30 6
39 35 9 27 8 35 -3 40 -19 7 -18 7 -35 -12z"/>
<path d="M2810 13813 c-28 -36 -25 -53 8 -53 22 0 29 6 38 34 9 30 8 35 -8 39
-11 3 -25 -4 -38 -20z"/>
<path d="M2930 13655 l0 -185 35 0 34 0 3 105 3 104 120 -109 c66 -60 123
-109 128 -110 4 0 6 84 5 188 l-3 187 -35 0 -35 0 -3 -108 -3 -109 -118 111
c-65 61 -121 111 -125 111 -3 0 -6 -83 -6 -185z"/>
<path d="M3352 13791 c-8 -4 -12 -19 -10 -32 2 -19 9 -24 33 -24 33 0 45 25
25 50 -14 17 -29 19 -48 6z"/>
<path d="M3679 13784 c-9 -11 -10 -20 -2 -32 25 -41 86 -14 63 27 -13 25 -42
27 -61 5z"/>
<path d="M5846 13785 c-20 -20 -5 -55 23 -55 28 0 47 28 34 48 -14 23 -38 26
-57 7z"/>
<path d="M9262 13788 c-20 -20 -14 -47 12 -54 32 -8 46 2 46 31 0 32 -35 46
-58 23z"/>
<path d="M10639 13784 c-9 -11 -10 -20 -2 -32 25 -41 86 -14 63 27 -13 25 -42
27 -61 5z"/>
<path d="M11052 13791 c-8 -4 -12 -19 -10 -32 2 -19 9 -24 33 -24 33 0 45 25
25 50 -14 17 -29 19 -48 6z"/>
<path d="M3500 13736 c0 -35 -4 -45 -20 -49 -12 -3 -20 -14 -20 -27 0 -13 8
-24 20 -27 18 -5 20 -14 20 -84 l0 -79 35 0 35 0 0 80 c0 79 0 80 25 80 21 0
25 5 25 30 0 25 -4 30 -25 30 -23 0 -25 4 -25 45 0 45 0 45 -35 45 -35 0 -35
0 -35 -44z"/>
<path d="M6510 13735 c0 -33 -4 -45 -15 -45 -10 0 -15 -10 -15 -30 0 -20 5
-30 15 -30 12 0 15 -16 15 -80 l0 -80 35 0 35 0 0 80 c0 79 0 80 25 80 21 0
25 5 25 30 0 25 -4 30 -25 30 -23 0 -25 4 -25 45 0 45 0 45 -35 45 -35 0 -35
0 -35 -45z"/>
<path d="M8200 13735 c0 -38 -3 -45 -20 -45 -16 0 -20 -7 -20 -30 0 -23 4 -30
20 -30 18 0 20 -7 20 -80 l0 -80 35 0 35 0 0 80 c0 79 0 80 25 80 21 0 25 5
25 30 0 25 -4 30 -25 30 -23 0 -25 4 -25 45 0 45 0 45 -35 45 -35 0 -35 0 -35
-45z"/>
<path d="M12240 13735 c0 -33 -4 -45 -15 -45 -10 0 -15 -10 -15 -30 0 -20 5
-30 15 -30 12 0 15 -16 15 -80 l0 -80 35 0 35 0 0 79 c0 79 0 80 28 83 21 2
27 8 27 28 0 20 -6 26 -27 28 -26 3 -28 7 -28 48 0 44 0 44 -35 44 -35 0 -35
0 -35 -45z"/>
<path d="M3913 13680 c-27 -16 -33 -17 -33 -5 0 10 -10 15 -30 15 l-30 0 0
-110 0 -110 35 0 35 0 0 68 c0 57 4 72 21 88 15 14 24 16 37 8 13 -9 18 -29
20 -88 l3 -76 34 0 35 0 0 90 c0 83 -2 93 -25 115 -29 30 -59 31 -102 5z"/>
<path d="M4924 13690 c-73 -29 -88 -160 -25 -207 28 -20 72 -24 105 -8 19 10
32 12 34 5 2 -5 19 -10 38 -10 l35 0 -3 108 -3 107 -32 3 c-19 2 -33 -1 -33
-8 0 -6 -11 -5 -30 5 -32 17 -54 18 -86 5z m98 -67 c36 -32 12 -103 -35 -103
-30 0 -57 29 -57 61 0 52 53 77 92 42z"/>
<path d="M5213 13686 c-63 -28 -56 -97 13 -127 24 -11 44 -24 44 -29 0 -17
-22 -22 -51 -10 -23 10 -32 10 -45 -1 -15 -12 -14 -15 6 -31 34 -27 110 -24
138 5 42 45 23 94 -47 118 -42 15 -34 34 15 34 28 0 39 5 42 17 4 20 -3 25
-48 32 -21 4 -48 0 -67 -8z"/>
<path d="M6073 13680 c-27 -16 -33 -17 -33 -5 0 10 -10 15 -30 15 l-30 0 0
-110 0 -110 35 0 35 0 0 68 c0 57 4 72 21 88 15 14 24 16 37 8 13 -9 18 -29
20 -88 l3 -76 34 0 35 0 0 90 c0 83 -2 93 -25 115 -29 30 -59 31 -102 5z"/>
<path d="M6310 13687 c-13 -7 -31 -24 -39 -38 -13 -24 -13 -29 2 -53 10 -14
33 -32 52 -40 19 -8 35 -20 35 -26 0 -19 -29 -23 -54 -7 -22 15 -25 15 -41 -2
-15 -18 -15 -20 7 -35 13 -9 43 -16 70 -16 60 0 88 24 88 75 0 32 -4 37 -46
58 -52 24 -55 42 -9 42 62 0 73 29 18 44 -48 14 -53 13 -83 -2z"/>
<path d="M6800 13683 c-14 -9 -30 -24 -37 -33 -11 -13 -12 -11 -13 13 0 23 -4
27 -30 27 l-30 0 0 -110 0 -110 30 0 c27 0 30 3 30 33 0 62 19 109 50 120 18
7 30 20 33 36 7 36 -4 44 -33 24z"/>
<path d="M7273 13680 c-27 -16 -33 -17 -33 -5 0 10 -10 15 -30 15 l-30 0 0
-110 0 -110 35 0 35 0 0 65 c0 52 4 69 21 86 34 34 44 19 47 -69 l3 -82 34 0
35 0 0 55 c0 59 14 101 38 110 26 10 37 -13 40 -90 l4 -75 29 0 29 0 0 99 c0
106 -4 114 -53 126 -21 6 -36 2 -56 -12 -26 -20 -27 -20 -50 -2 -30 24 -58 24
-98 -1z"/>
<path d="M7664 13686 c-70 -31 -94 -108 -54 -173 25 -41 84 -60 136 -43 37 13
40 20 22 49 -9 15 -16 17 -30 10 -19 -10 -58 -4 -58 10 0 4 34 17 76 29 69 21
75 24 69 45 -19 64 -100 101 -161 73z m70 -52 c27 -10 18 -21 -29 -37 -42 -15
-45 -15 -45 2 0 34 35 50 74 35z"/>
<path d="M8000 13693 c-8 -3 -22 -12 -31 -20 -14 -12 -17 -12 -22 2 -4 9 -19
15 -37 15 l-30 0 0 -110 0 -110 34 0 34 0 4 71 c3 56 8 74 23 85 40 29 50 15
53 -74 l3 -82 34 0 35 0 0 93 c0 98 -3 108 -37 126 -23 12 -39 13 -63 4z"/>
<path d="M8430 13693 c-81 -30 -102 -165 -33 -210 30 -20 96 -22 118 -3 10 9
15 9 15 1 0 -6 16 -11 35 -11 l35 0 0 110 0 110 -29 0 c-16 0 -31 -5 -33 -12
-3 -8 -11 -7 -28 5 -24 17 -52 20 -80 10z m84 -66 c13 -9 17 -23 14 -52 -2
-33 -8 -41 -31 -49 -23 -8 -31 -6 -48 11 -53 53 5 134 65 90z"/>
<path d="M9510 13693 c-8 -3 -22 -12 -31 -20 -14 -12 -17 -12 -22 2 -4 9 -19
15 -37 15 l-30 0 0 -110 0 -110 34 0 34 0 4 71 c3 56 8 74 23 85 40 29 50 15
53 -74 l3 -82 34 0 35 0 0 93 c0 98 -3 108 -37 126 -23 12 -39 13 -63 4z"/>
<path d="M10537 13676 c-35 -24 -36 -24 -42 -5 -4 13 -15 19 -36 19 l-29 0 0
-110 0 -110 35 0 35 0 0 55 c0 46 4 60 25 80 13 14 31 25 40 25 11 0 15 10 15
35 0 19 -2 35 -4 35 -2 0 -19 -11 -39 -24z"/>
<path d="M11300 13693 c-8 -3 -22 -12 -31 -20 -14 -12 -17 -12 -22 2 -4 9 -19
15 -37 15 l-30 0 0 -110 0 -110 34 0 34 0 4 71 c3 56 8 74 23 85 40 29 50 15
53 -74 l3 -82 34 0 35 0 0 93 c0 98 -3 108 -37 126 -23 12 -39 13 -63 4z"/>
<path d="M11519 13685 c-14 -8 -34 -25 -43 -39 -21 -32 -21 -105 0 -135 32
-46 111 -60 152 -28 19 15 27 0 14 -28 -15 -33 -58 -43 -96 -21 -29 17 -30 17
-48 -6 -17 -22 -17 -24 3 -40 51 -43 153 -29 193 25 19 25 21 42 21 150 l0
122 -32 3 c-18 2 -33 -1 -33 -7 0 -6 -14 -4 -35 5 -42 17 -63 17 -96 -1z m109
-61 c45 -31 16 -104 -42 -104 -48 0 -73 64 -39 102 20 22 51 23 81 2z"/>
<path d="M12765 13682 c-46 -21 -65 -55 -65 -111 0 -75 79 -126 156 -101 38
13 40 18 20 45 -9 12 -20 16 -35 12 -25 -6 -51 0 -51 13 0 4 33 17 74 29 l75
22 -10 28 c-24 69 -94 95 -164 63z m84 -56 c10 -11 3 -17 -34 -29 -42 -15 -45
-15 -45 2 0 37 55 56 79 27z"/>
<path d="M3340 13580 l0 -110 35 0 35 0 0 110 0 110 -35 0 -35 0 0 -110z"/>
<path d="M3677 13683 c-4 -3 -7 -53 -7 -110 l0 -103 35 0 35 0 0 110 0 110
-28 0 c-16 0 -32 -3 -35 -7z"/>
<path d="M4520 13683 c0 -5 21 -57 47 -117 l47 -109 31 69 32 69 35 -69 34
-68 47 108 c26 60 47 113 47 117 0 5 -15 7 -32 5 -28 -3 -35 -9 -49 -48 l-17
-45 -22 48 c-18 40 -25 47 -50 47 -21 0 -28 -4 -24 -14 3 -7 -1 -29 -9 -47
l-14 -34 -21 48 c-18 41 -25 47 -51 47 -17 0 -31 -3 -31 -7z"/>
<path d="M5840 13581 l0 -111 35 0 36 0 -3 108 -3 107 -32 3 -33 3 0 -110z"/>
<path d="M6890 13595 c0 -82 3 -98 20 -115 30 -30 98 -22 122 14 5 7 8 4 8 -6
0 -14 8 -18 35 -18 l35 0 0 110 0 110 -35 0 -35 0 0 -63 c0 -72 -19 -110 -53
-105 -20 3 -22 10 -25 86 l-3 82 -34 0 -35 0 0 -95z"/>
<path d="M9250 13580 l0 -110 35 0 35 0 0 110 0 110 -35 0 -35 0 0 -110z"/>
<path d="M10637 13683 c-4 -3 -7 -53 -7 -110 l0 -103 35 0 35 0 0 110 0 110
-28 0 c-16 0 -32 -3 -35 -7z"/>
<path d="M10750 13683 c0 -8 121 -213 125 -213 3 0 82 136 114 198 11 21 10
22 -27 22 -38 0 -40 -2 -62 -52 l-22 -53 -26 53 c-25 49 -28 52 -64 52 -21 0
-38 -3 -38 -7z"/>
<path d="M11040 13580 l0 -110 35 0 35 0 0 110 0 110 -35 0 -35 0 0 -110z"/>
<path d="M4070 12975 l0 -195 35 0 35 0 0 59 c0 69 6 88 30 101 39 21 50 3 50
-81 l0 -79 35 0 35 0 0 94 c0 91 -1 95 -27 116 -31 24 -74 22 -105 -7 -17 -15
-18 -12 -18 85 l0 102 -35 0 -35 0 0 -195z"/>
<path d="M5149 13141 c-25 -26 -29 -37 -29 -85 0 -49 -2 -56 -20 -56 -16 0
-20 -7 -20 -30 0 -23 4 -30 20 -30 18 0 20 -7 20 -80 l0 -80 35 0 35 0 0 80 0
80 30 0 c27 0 30 3 30 30 0 27 -3 30 -31 30 l-30 0 3 53 c3 49 4 52 30 52 34
-1 61 40 38 55 -31 20 -81 11 -111 -19z"/>
<path d="M6410 12975 l0 -195 35 0 35 0 0 59 c0 69 6 88 30 101 39 21 50 3 50
-81 l0 -79 35 0 35 0 0 94 c0 91 -1 95 -27 116 -31 24 -74 22 -105 -7 -17 -15
-18 -12 -18 85 l0 102 -35 0 -35 0 0 -195z"/>
<path d="M6700 12975 l0 -195 35 0 c19 0 35 4 35 9 0 6 16 3 36 -5 93 -39 182
60 141 158 -25 60 -88 80 -163 51 -11 -4 -14 11 -14 86 l0 91 -35 0 -35 0 0
-195z m176 -50 c21 -32 7 -69 -30 -87 -55 -24 -103 53 -60 96 25 25 71 20 90
-9z"/>
<path d="M10790 13079 c0 -79 -2 -90 -16 -85 -66 25 -125 11 -155 -38 -37 -61
-14 -146 47 -172 32 -14 42 -14 80 -1 24 8 44 10 44 6 0 -5 16 -9 35 -9 l35 0
0 195 0 195 -35 0 -35 0 0 -91z m-18 -146 c46 -41 -2 -120 -58 -95 -13 7 -29
23 -36 36 -24 55 48 101 94 59z"/>
<path d="M11910 12975 l0 -195 58 0 c31 -1 70 -1 85 -2 66 -2 114 58 104 132
-10 79 -72 112 -159 86 l-28 -8 0 91 0 91 -30 0 -30 0 0 -195z m162 -42 c24
-21 23 -58 -2 -83 -22 -22 -42 -25 -71 -10 -22 12 -27 78 -7 98 17 17 58 15
80 -5z"/>
<path d="M12690 12975 l0 -195 35 0 35 0 0 53 c0 56 15 94 43 111 30 18 47
-17 47 -96 l0 -68 36 0 36 0 -4 95 c-2 74 -7 98 -21 112 -24 24 -89 23 -116
-1 l-21 -19 0 101 0 102 -35 0 -35 0 0 -195z"/>
<path d="M5780 12966 l0 -186 35 0 34 0 3 72 c2 39 8 73 13 74 6 2 30 -26 54
-62 57 -82 61 -86 110 -82 l40 3 -74 99 -74 99 69 74 c39 41 70 79 70 84 0 5
-18 9 -39 9 -36 0 -44 -6 -102 -72 l-64 -72 -5 70 -5 69 -32 3 -33 3 0 -185z"/>
<path d="M7780 12966 l0 -186 83 0 c90 0 145 19 184 61 78 86 44 239 -64 285
-17 8 -70 17 -117 20 l-86 7 0 -187z m203 76 c22 -21 27 -34 27 -75 0 -26 -5
-57 -10 -68 -15 -27 -63 -49 -110 -49 l-40 0 0 108 c0 60 3 112 7 116 16 15
98 -6 126 -32z"/>
<path d="M9915 13136 c-47 -21 -68 -50 -68 -96 0 -50 20 -74 93 -109 45 -21
55 -31 55 -51 0 -18 -8 -27 -28 -34 -26 -10 -36 -8 -98 18 -11 5 -19 -1 -27
-19 -7 -14 -12 -28 -12 -31 0 -13 75 -34 123 -34 64 0 100 23 117 74 18 57 -6
100 -76 133 -67 33 -84 54 -64 78 14 17 56 17 106 0 15 -5 23 -1 32 19 13 30
4 39 -53 55 -50 14 -63 13 -100 -3z"/>
<path d="M8656 13095 c-20 -20 -5 -55 23 -55 28 0 47 28 34 48 -14 23 -38 26
-57 7z"/>
<path d="M10942 13101 c-8 -4 -12 -19 -10 -32 2 -19 9 -24 33 -24 33 0 45 25
25 50 -14 17 -29 19 -48 6z"/>
<path d="M3890 13045 c0 -33 -4 -45 -15 -45 -10 0 -15 -10 -15 -30 0 -20 5
-30 15 -30 12 0 15 -16 15 -80 l0 -80 35 0 35 0 0 79 c0 79 0 80 28 83 21 2
27 8 27 28 0 20 -6 26 -27 28 -26 3 -28 7 -28 48 0 44 0 44 -35 44 -35 0 -35
0 -35 -45z"/>
<path d="M10160 13045 c0 -38 -3 -45 -20 -45 -16 0 -20 -7 -20 -30 0 -23 4
-30 20 -30 18 0 20 -7 20 -80 l0 -80 35 0 35 0 0 80 c0 79 0 80 25 80 21 0 25
5 25 30 0 25 -4 30 -25 30 -23 0 -25 4 -25 45 0 45 0 45 -35 45 -35 0 -35 0
-35 -45z"/>
<path d="M12520 13046 c0 -35 -4 -45 -20 -49 -12 -3 -20 -14 -20 -27 0 -13 8
-24 20 -27 18 -5 20 -14 20 -84 l0 -79 35 0 35 0 0 80 c0 79 0 80 25 80 21 0
25 5 25 30 0 25 -4 30 -25 30 -23 0 -25 4 -25 45 0 45 0 45 -35 45 -35 0 -35
0 -35 -44z"/>
<path d="M2790 12988 c-22 -15 -40 -38 -49 -64 -13 -37 -12 -44 5 -80 13 -26
32 -45 57 -58 36 -17 41 -17 78 -3 l40 16 -3 -26 c-4 -37 -49 -51 -93 -30 -31
15 -34 14 -49 -2 -23 -26 -20 -35 19 -54 43 -21 85 -22 129 -3 59 24 66 45 66
189 l0 128 -47 -2 c-27 -1 -64 1 -83 5 -28 6 -42 3 -70 -16z m111 -48 c14 -8
19 -21 19 -50 0 -29 -5 -42 -19 -50 -32 -17 -58 -11 -80 17 -44 55 16 117 80
83z"/>
<path d="M3180 12993 c-14 -9 -30 -24 -37 -33 -11 -13 -12 -11 -13 13 0 23 -4
27 -30 27 l-30 0 0 -110 0 -110 30 0 c27 0 30 3 30 33 0 62 19 109 50 120 18
7 30 20 33 36 7 36 -4 44 -33 24z"/>
<path d="M3315 12996 c-50 -23 -70 -52 -70 -106 0 -37 6 -54 24 -74 93 -99
259 -6 207 117 -25 62 -101 91 -161 63z m93 -78 c28 -59 -40 -118 -80 -68 -22
27 -23 49 -2 78 22 31 64 26 82 -10z"/>
<path d="M4873 12999 c-47 -14 -73 -52 -73 -109 0 -60 26 -96 81 -110 112 -30
196 70 143 171 -15 30 -67 60 -101 58 -10 0 -32 -5 -50 -10z m79 -66 c22 -20
23 -61 1 -85 -33 -36 -83 -11 -83 42 0 52 45 76 82 43z"/>
<path d="M6154 13000 c-73 -29 -88 -160 -25 -207 28 -20 72 -24 105 -8 19 10
32 12 34 5 2 -5 19 -10 38 -10 l35 0 -3 108 -3 107 -32 3 c-19 2 -33 -1 -33
-8 0 -6 -11 -5 -30 5 -32 17 -54 18 -86 5z m98 -67 c36 -32 12 -103 -35 -103
-30 0 -57 29 -57 61 0 52 53 77 92 42z"/>
<path d="M7070 13003 c-81 -30 -102 -165 -33 -210 30 -20 96 -22 118 -3 10 9
15 9 15 1 0 -6 16 -11 35 -11 l35 0 0 110 0 110 -29 0 c-16 0 -31 -5 -33 -12
-3 -8 -11 -7 -28 5 -24 17 -52 20 -80 10z m84 -66 c13 -9 17 -23 14 -52 -2
-33 -8 -41 -31 -49 -23 -8 -31 -6 -48 11 -53 53 5 134 65 90z"/>
<path d="M8225 13003 c-37 -10 -73 -43 -85 -78 -30 -91 54 -171 152 -144 42
11 43 12 27 41 -8 16 -17 19 -42 14 -31 -5 -68 6 -51 16 5 3 40 15 77 28 66
21 68 23 62 49 -9 35 -24 52 -62 68 -33 13 -44 14 -78 6z m60 -72 c0 -14 -74
-46 -83 -36 -3 2 3 16 12 30 13 19 24 25 44 23 15 -2 27 -9 27 -17z"/>
<path d="M8470 13003 c-31 -12 -50 -37 -50 -68 0 -35 20 -58 64 -72 17 -5 31
-14 33 -20 7 -19 -36 -26 -61 -9 -24 15 -46 6 -46 -21 0 -32 107 -46 147 -18
49 35 34 103 -29 121 -36 11 -52 44 -21 44 10 0 24 -4 32 -9 10 -7 19 -4 28 7
18 25 16 29 -18 41 -34 12 -55 13 -79 4z"/>
<path d="M8832 12993 c-90 -44 -79 -185 16 -214 33 -10 45 -9 72 5 41 20 40
20 40 -3 0 -23 -36 -51 -65 -51 -11 0 -31 7 -43 16 -21 15 -24 14 -42 -8 -19
-23 -19 -23 1 -40 48 -41 143 -32 190 18 22 24 24 34 27 155 l4 129 -31 0
c-16 0 -32 -4 -36 -9 -3 -6 -17 -4 -33 5 -35 18 -59 17 -100 -3z m112 -62 c25
-28 17 -72 -16 -91 -25 -13 -31 -13 -55 0 -54 30 -34 110 27 110 15 0 35 -9
44 -19z"/>
<path d="M9214 13000 c-12 -5 -25 -13 -29 -19 -9 -16 -25 -13 -25 4 0 10 -10
15 -30 15 l-30 0 0 -110 0 -110 35 0 35 0 0 59 c0 69 6 88 30 101 39 21 50 3
50 -81 l0 -79 35 0 35 0 0 94 c0 90 -1 96 -26 115 -29 22 -46 25 -80 11z"/>
<path d="M11125 12996 c-50 -23 -70 -52 -70 -106 0 -37 6 -54 24 -74 93 -99
259 -6 207 117 -25 62 -101 91 -161 63z m93 -78 c28 -59 -40 -118 -80 -68 -22
27 -23 49 -2 78 22 31 64 26 82 -10z"/>
<path d="M12265 12991 c-44 -19 -65 -53 -65 -102 0 -81 74 -132 159 -109 54
14 81 51 81 109 0 55 -20 88 -66 107 -43 18 -61 17 -109 -5z m86 -51 c24 -13
26 -72 3 -94 -49 -49 -114 34 -67 86 18 20 36 23 64 8z"/>
<path d="M3510 12990 c0 -17 83 -210 91 -210 3 0 18 27 32 60 15 33 29 60 32
60 3 0 20 -29 37 -65 17 -37 32 -65 33 -63 4 4 95 219 95 224 0 2 -15 4 -33 4
-31 0 -35 -4 -47 -41 -8 -22 -17 -42 -20 -44 -4 -3 -15 16 -25 40 -15 40 -20
45 -47 45 -23 0 -29 -4 -24 -15 6 -16 -12 -65 -25 -65 -4 0 -14 18 -23 40 -14
34 -20 40 -46 40 -16 0 -30 -5 -30 -10z"/>
<path d="M8650 12891 l0 -111 35 0 36 0 -3 108 -3 107 -32 3 -33 3 0 -110z"/>
<path d="M10330 12905 c0 -82 3 -98 20 -115 30 -30 98 -22 122 14 5 7 8 4 8
-6 0 -14 8 -18 35 -18 l35 0 0 110 0 110 -35 0 -35 0 0 -63 c0 -72 -19 -110
-53 -105 -20 3 -22 10 -25 86 l-3 82 -34 0 -35 0 0 -95z"/>
<path d="M10930 12890 l0 -110 35 0 35 0 0 110 0 110 -35 0 -35 0 0 -110z"/>
<path d="M11340 12795 c-6 -14 -14 -36 -20 -50 -9 -23 -7 -25 19 -25 25 0 31
7 49 50 l21 50 -30 0 c-22 0 -32 -6 -39 -25z"/>
<path d="M3330 12285 l0 -195 35 0 35 0 0 195 0 195 -35 0 -35 0 0 -195z"/>
<path d="M5180 12391 l0 -90 -31 11 c-72 25 -149 -30 -149 -106 0 -56 18 -88
63 -110 36 -17 41 -17 78 -3 21 8 39 11 39 6 0 -5 16 -9 35 -9 l35 0 0 195 0
195 -35 0 -35 0 0 -89z m-12 -143 c7 -7 12 -29 12 -50 0 -32 -4 -40 -26 -48
-35 -14 -41 -13 -64 10 -24 24 -26 57 -3 82 18 20 63 24 81 6z"/>
<path d="M5915 12468 c-35 -21 -44 -42 -45 -100 0 -51 -2 -58 -20 -58 -15 0
-20 -7 -20 -29 0 -20 6 -30 20 -34 18 -5 20 -14 20 -81 l0 -76 35 0 35 0 0 80
0 80 30 0 c27 0 30 3 30 30 0 27 -3 30 -31 30 l-30 0 3 53 c3 48 5 52 31 55
25 3 55 37 44 49 -12 11 -84 13 -102 1z"/>
<path d="M6114 12457 c-23 -20 -28 -34 -32 -85 -3 -48 -8 -61 -23 -65 -27 -7
-26 -57 1 -57 18 0 20 -7 20 -80 l0 -80 35 0 35 0 0 80 0 80 35 0 c32 0 35 2
35 30 0 28 -3 30 -35 30 -35 0 -35 1 -35 43 0 53 12 72 40 64 28 -7 53 39 29
54 -26 17 -77 10 -105 -14z"/>
<path d="M6280 12285 l0 -195 35 0 35 0 0 195 0 195 -35 0 -35 0 0 -195z"/>
<path d="M7740 12285 l0 -195 34 0 34 0 4 71 c3 56 8 74 23 85 40 29 50 15 53
-74 l3 -82 34 0 35 0 0 93 c0 50 -4 97 -8 103 -24 37 -88 40 -124 7 -17 -15
-18 -11 -18 85 l0 102 -35 0 -35 0 0 -195z"/>
<path d="M8810 12285 l0 -195 35 0 c19 0 35 4 35 9 0 6 16 3 36 -5 93 -39 182
60 141 158 -25 60 -88 80 -163 51 -11 -4 -14 11 -14 86 l0 91 -35 0 -35 0 0
-195z m176 -50 c21 -32 7 -69 -30 -87 -55 -24 -103 53 -60 96 25 25 71 20 90
-9z"/>
<path d="M9550 12285 l0 -195 35 0 35 0 0 195 0 195 -35 0 -35 0 0 -195z"/>
<path d="M11750 12285 l0 -195 58 0 c31 -1 70 -1 85 -2 66 -2 114 58 104 132
-10 79 -72 112 -159 86 l-28 -8 0 91 0 91 -30 0 -30 0 0 -195z m162 -42 c24
-21 23 -58 -2 -83 -22 -22 -42 -25 -71 -10 -22 12 -27 78 -7 98 17 17 58 15
80 -5z"/>
<path d="M7440 12420 l0 -40 40 0 40 0 0 -145 0 -145 35 0 35 0 0 145 0 145
45 0 45 0 0 40 0 40 -120 0 -120 0 0 -40z"/>
<path d="M3482 12411 c-8 -4 -12 -19 -10 -32 2 -19 9 -24 33 -24 33 0 45 25
25 50 -14 17 -29 19 -48 6z"/>
<path d="M6432 12411 c-8 -4 -12 -19 -10 -32 2 -19 9 -24 33 -24 33 0 45 25
25 50 -14 17 -29 19 -48 6z"/>
<path d="M9422 12408 c-20 -20 -14 -47 12 -54 32 -8 46 2 46 31 0 32 -35 46
-58 23z"/>
<path d="M12286 12405 c-20 -20 -5 -55 23 -55 28 0 47 28 34 48 -14 23 -38 26
-57 7z"/>
<path d="M9710 12355 c0 -33 -4 -45 -15 -45 -10 0 -15 -10 -15 -30 0 -20 5
-30 15 -30 12 0 15 -16 15 -80 l0 -80 35 0 35 0 0 79 c0 79 0 80 28 83 21 2
27 8 27 28 0 20 -6 26 -27 28 -26 3 -28 7 -28 48 0 44 0 44 -35 44 -35 0 -35
0 -35 -45z"/>
<path d="M12440 12355 c0 -38 -3 -45 -20 -45 -16 0 -20 -7 -20 -30 0 -23 4
-30 20 -30 18 0 20 -7 20 -80 l0 -80 35 0 35 0 0 80 c0 79 0 80 25 80 21 0 25
5 25 30 0 25 -4 30 -25 30 -23 0 -25 4 -25 45 0 45 0 45 -35 45 -35 0 -35 0
-35 -45z"/>
<path d="M2800 12303 c-44 -22 -74 -80 -65 -122 28 -129 221 -127 241 1 7 41
-15 97 -46 115 -36 23 -92 25 -130 6z m100 -75 c13 -25 13 -31 0 -55 -29 -52
-93 -34 -93 25 0 64 62 84 93 30z"/>
<path d="M3150 12313 c-8 -3 -22 -12 -31 -20 -14 -12 -17 -12 -23 2 -4 11 -15
15 -33 13 l-28 -3 -3 -107 -3 -108 36 0 35 0 0 53 c0 56 15 94 43 111 30 18
47 -17 47 -96 l0 -68 36 0 36 0 -4 95 c-2 67 -7 99 -18 109 -17 18 -68 28 -90
19z"/>
<path d="M3730 12313 c-8 -3 -22 -12 -31 -20 -14 -12 -17 -12 -22 2 -4 9 -19
15 -37 15 l-30 0 0 -110 0 -110 34 0 34 0 4 71 c3 56 8 74 23 85 40 29 50 15
53 -74 l3 -82 34 0 35 0 0 93 c0 98 -3 108 -37 126 -23 12 -39 13 -63 4z"/>
<path d="M3955 12302 c-46 -21 -65 -55 -65 -111 0 -75 79 -126 156 -101 38 13
40 18 20 45 -9 12 -20 16 -35 12 -25 -6 -51 0 -51 13 0 4 33 17 74 29 l75 22
-10 28 c-24 69 -94 95 -164 63z m84 -56 c10 -11 3 -17 -34 -29 -42 -15 -45
-15 -45 2 0 37 55 56 79 27z"/>
<path d="M4458 12304 c-60 -32 -78 -129 -33 -182 31 -36 75 -47 121 -27 19 8
34 10 34 4 0 -5 16 -9 35 -9 l35 0 0 110 0 110 -29 0 c-17 0 -32 -4 -36 -9 -3
-6 -17 -4 -33 5 -34 18 -60 17 -94 -2z m106 -60 c33 -32 8 -104 -36 -104 -25
0 -58 35 -58 62 0 49 61 76 94 42z"/>
<path d="M4840 12313 c-8 -3 -22 -12 -31 -20 -14 -12 -17 -12 -22 2 -4 9 -19
15 -37 15 l-30 0 0 -110 0 -110 34 0 34 0 4 71 c3 56 8 74 23 85 40 29 50 15
53 -74 l3 -82 34 0 35 0 0 93 c0 98 -3 108 -37 126 -23 12 -39 13 -63 4z"/>
<path d="M5623 12309 c-47 -14 -73 -52 -73 -109 0 -60 26 -96 81 -110 112 -30
196 70 143 171 -15 30 -67 60 -101 58 -10 0 -32 -5 -50 -10z m79 -66 c22 -20
23 -61 1 -85 -33 -36 -83 -11 -83 42 0 52 45 76 82 43z"/>
<path d="M6674 12310 c-12 -5 -25 -13 -29 -19 -9 -16 -25 -13 -25 4 0 10 -10
15 -30 15 l-30 0 0 -110 0 -110 35 0 35 0 0 59 c0 69 6 88 30 101 39 21 50 3
50 -81 l0 -79 35 0 35 0 0 94 c0 90 -1 96 -26 115 -29 22 -46 25 -80 11z"/>
<path d="M6905 12302 c-46 -21 -65 -55 -65 -111 0 -75 79 -126 156 -101 38 13
40 18 20 45 -9 12 -20 16 -35 12 -25 -6 -51 0 -51 13 0 4 33 17 74 29 l75 22
-10 28 c-24 69 -94 95 -164 63z m84 -56 c10 -11 3 -17 -34 -29 -42 -15 -45
-15 -45 2 0 37 55 56 79 27z"/>
<path d="M8094 12306 c-70 -31 -94 -108 -54 -173 25 -41 84 -60 136 -43 37 13
40 20 22 49 -9 15 -16 17 -30 10 -19 -10 -58 -4 -58 10 0 4 34 17 76 29 69 21
75 24 69 45 -19 64 -100 101 -161 73z m70 -52 c27 -10 18 -21 -29 -37 -42 -15
-45 -15 -45 2 0 34 35 50 74 35z"/>
<path d="M10175 12301 c-44 -19 -65 -53 -65 -102 0 -81 74 -132 159 -109 54
14 81 51 81 109 0 55 -20 88 -66 107 -43 18 -61 17 -109 -5z m86 -51 c24 -13
26 -72 3 -94 -49 -49 -114 34 -67 86 18 20 36 23 64 8z"/>
<path d="M10825 12310 c-12 -4 -27 -15 -34 -24 -18 -22 -31 -20 -31 4 0 16 -7
20 -30 20 l-30 0 0 -110 0 -110 35 0 35 0 0 59 c0 52 3 62 26 80 15 12 33 21
40 21 9 0 14 12 14 35 0 19 -1 35 -2 34 -2 0 -12 -4 -23 -9z"/>
<path d="M11545 12313 c-37 -10 -73 -43 -85 -78 -30 -91 54 -171 152 -144 42
11 43 12 27 41 -8 16 -17 19 -42 14 -31 -5 -68 6 -51 16 5 3 40 15 77 28 66
21 68 23 62 49 -9 35 -24 52 -62 68 -33 13 -44 14 -78 6z m60 -72 c0 -14 -74
-46 -83 -36 -3 2 3 16 12 30 13 19 24 25 44 23 15 -2 27 -9 27 -17z"/>
<path d="M12100 12313 c-31 -12 -50 -37 -50 -68 0 -35 20 -58 64 -72 17 -5 31
-14 33 -20 7 -19 -36 -26 -61 -9 -24 15 -46 6 -46 -21 0 -32 107 -46 147 -18
49 35 34 103 -29 121 -36 11 -52 44 -21 44 10 0 24 -4 32 -9 10 -7 19 -4 28 7
18 25 16 29 -18 41 -34 12 -55 13 -79 4z"/>
<path d="M12685 12313 c-37 -10 -73 -43 -85 -78 -30 -91 54 -171 152 -144 42
11 43 12 27 41 -8 16 -17 19 -42 14 -31 -5 -68 6 -51 16 5 3 40 15 77 28 66
21 68 23 62 49 -9 35 -24 52 -62 68 -33 13 -44 14 -78 6z m60 -72 c0 -14 -74
-46 -83 -36 -3 2 3 16 12 30 13 19 24 25 44 23 15 -2 27 -9 27 -17z"/>
<path d="M3470 12200 l0 -110 35 0 35 0 0 110 0 110 -35 0 -35 0 0 -110z"/>
<path d="M6420 12200 l0 -110 35 0 35 0 0 110 0 110 -35 0 -35 0 0 -110z"/>
<path d="M8280 12305 c0 -3 22 -50 49 -104 l50 -98 -25 -52 c-13 -29 -24 -55
-24 -57 0 -2 15 -4 33 -4 32 0 33 1 95 145 34 79 65 151 68 160 5 11 -1 15
-24 15 -27 0 -33 -6 -60 -62 l-29 -63 -29 60 c-27 56 -32 60 -67 63 -20 2 -37
1 -37 -3z"/>
<path d="M9120 12215 c0 -82 3 -98 20 -115 30 -30 98 -22 122 14 5 7 8 4 8 -6
0 -14 8 -18 35 -18 l35 0 0 110 0 110 -35 0 -35 0 0 -63 c0 -72 -19 -110 -53
-105 -20 3 -22 10 -25 86 l-3 82 -34 0 -35 0 0 -95z"/>
<path d="M9410 12200 l0 -110 35 0 35 0 0 110 0 110 -35 0 -35 0 0 -110z"/>
<path d="M10410 12215 c0 -82 3 -98 20 -115 26 -26 70 -26 104 1 21 17 26 18
26 5 0 -12 10 -16 35 -16 l36 0 -3 108 -3 107 -32 3 -33 3 0 -51 c0 -71 -23
-122 -52 -118 -22 3 -23 8 -26 86 l-3 82 -34 0 -35 0 0 -95z"/>
<path d="M11110 12307 c0 -2 22 -54 49 -117 l49 -114 32 70 32 69 35 -69 35
-69 40 94 c65 154 62 139 24 139 -30 0 -35 -4 -51 -47 l-18 -46 -24 46 c-19
38 -29 47 -49 47 -17 0 -24 -4 -21 -13 3 -7 -2 -29 -10 -48 l-15 -34 -20 48
c-19 43 -23 47 -54 47 -19 0 -34 -1 -34 -3z"/>
<path d="M12280 12201 l0 -111 35 0 36 0 -3 108 -3 107 -32 3 -33 3 0 -110z"/>
<path d="M7107 12154 c-15 -16 -7 -53 14 -59 30 -10 58 19 43 43 -12 18 -45
28 -57 16z"/>
<path d="M12866 12090 c-21 -54 -20 -60 9 -60 19 0 28 9 45 46 11 26 20 48 20
50 0 2 -13 4 -29 4 -24 0 -31 -6 -45 -40z"/>
<path d="M3060 11595 l0 -195 35 0 35 0 0 195 0 195 -35 0 -35 0 0 -195z"/>
<path d="M4540 11699 c0 -79 -2 -90 -16 -85 -66 25 -125 11 -155 -38 -37 -61
-14 -146 47 -172 32 -14 42 -14 80 -1 24 8 44 10 44 6 0 -5 16 -9 35 -9 l35 0
0 195 0 195 -35 0 -35 0 0 -91z m-18 -146 c46 -41 -2 -120 -58 -95 -13 7 -29
23 -36 36 -24 55 48 101 94 59z"/>
<path d="M7169 11761 c-25 -26 -29 -37 -29 -85 0 -49 -2 -56 -20 -56 -16 0
-20 -7 -20 -30 0 -23 4 -30 20 -30 18 0 20 -7 20 -80 l0 -80 35 0 35 0 0 80 0
80 30 0 c27 0 30 3 30 30 0 27 -3 30 -31 30 l-30 0 3 53 c3 49 4 52 30 52 34
-1 61 40 38 55 -31 20 -81 11 -111 -19z"/>
<path d="M7620 11595 l0 -195 35 0 35 0 0 195 0 195 -35 0 -35 0 0 -195z"/>
<path d="M9140 11595 l0 -195 35 0 35 0 0 195 0 195 -35 0 -35 0 0 -195z"/>
<path d="M9280 11595 l0 -195 35 0 35 0 0 195 0 195 -35 0 -35 0 0 -195z"/>
<path d="M11575 11756 c-47 -21 -68 -50 -68 -96 0 -50 20 -74 93 -109 45 -21
55 -31 55 -51 0 -18 -8 -27 -28 -34 -26 -10 -36 -8 -98 18 -11 5 -19 -1 -27
-19 -7 -14 -12 -28 -12 -31 0 -13 75 -34 123 -34 64 0 100 23 117 74 18 57 -6
100 -76 133 -67 33 -84 54 -64 78 14 17 56 17 106 0 15 -5 23 -1 32 19 13 30
4 39 -53 55 -50 14 -63 13 -100 -3z"/>
<path d="M7992 11718 c-20 -20 -14 -47 12 -54 32 -8 46 2 46 31 0 32 -35 46
-58 23z"/>
<path d="M9932 11721 c-8 -4 -12 -19 -10 -32 2 -19 9 -24 33 -24 33 0 45 25
25 50 -14 17 -29 19 -48 6z"/>
<path d="M10859 11714 c-9 -11 -10 -20 -2 -32 25 -41 86 -14 63 27 -13 25 -42
27 -61 5z"/>
<path d="M8660 11666 c0 -35 -4 -45 -20 -49 -12 -3 -20 -14 -20 -27 0 -13 8
-24 20 -27 18 -5 20 -14 20 -84 l0 -79 35 0 35 0 0 80 c0 79 0 80 25 80 21 0
25 5 25 30 0 25 -4 30 -25 30 -23 0 -25 4 -25 45 0 45 0 45 -35 45 -35 0 -35
0 -35 -44z"/>
<path d="M9740 11665 c0 -33 -4 -45 -15 -45 -10 0 -15 -10 -15 -30 0 -20 5
-30 15 -30 12 0 15 -16 15 -80 l0 -80 35 0 35 0 0 79 c0 79 0 80 28 83 21 2
27 8 27 28 0 20 -6 26 -27 28 -26 3 -28 7 -28 48 0 44 0 44 -35 44 -35 0 -35
0 -35 -45z"/>
<path d="M12330 11665 c0 -38 -3 -45 -20 -45 -16 0 -20 -7 -20 -30 0 -23 4
-30 20 -30 18 0 20 -7 20 -80 l0 -80 35 0 35 0 0 80 c0 79 0 80 25 80 21 0 25
5 25 30 0 25 -4 30 -25 30 -23 0 -25 4 -25 45 0 45 0 45 -35 45 -35 0 -35 0
-35 -45z"/>
<path d="M2850 11614 c-22 -10 -36 -11 -38 -4 -2 5 -17 10 -33 10 l-29 0 0
-160 0 -160 35 0 35 0 0 59 0 59 32 -15 c65 -33 151 26 151 104 0 54 -26 99
-64 112 -40 14 -46 14 -89 -5z m62 -61 c36 -33 14 -103 -33 -103 -38 0 -59 19
-59 52 0 58 52 87 92 51z"/>
<path d="M3260 11623 c-81 -30 -102 -165 -33 -210 30 -20 96 -22 118 -3 10 9
15 9 15 1 0 -6 16 -11 35 -11 l35 0 0 110 0 110 -29 0 c-16 0 -31 -5 -33 -12
-3 -8 -11 -7 -28 5 -24 17 -52 20 -80 10z m84 -66 c13 -9 17 -23 14 -52 -2
-33 -8 -41 -31 -49 -23 -8 -31 -6 -48 11 -53 53 5 134 65 90z"/>
<path d="M3603 11610 c-27 -16 -33 -17 -33 -5 0 10 -10 15 -30 15 l-30 0 0
-110 0 -110 35 0 35 0 0 68 c0 57 4 72 21 88 15 14 24 16 37 8 13 -9 18 -29
20 -88 l3 -76 34 0 35 0 0 90 c0 83 -2 93 -25 115 -29 30 -59 31 -102 5z"/>
<path d="M3920 11623 c-8 -3 -22 -12 -31 -20 -14 -12 -17 -12 -22 2 -4 9 -19
15 -37 15 l-30 0 0 -110 0 -110 34 0 34 0 4 71 c3 56 8 74 23 85 40 29 50 15
53 -74 l3 -82 34 0 35 0 0 93 c0 98 -3 108 -37 126 -23 12 -39 13 -63 4z"/>
<path d="M4145 11612 c-46 -21 -65 -55 -65 -111 0 -75 79 -126 156 -101 38 13
40 18 20 45 -9 12 -20 16 -35 12 -25 -6 -51 0 -51 13 0 4 33 17 74 29 l75 22
-10 28 c-24 69 -94 95 -164 63z m84 -56 c10 -11 3 -17 -34 -29 -42 -15 -45
-15 -45 2 0 37 55 56 79 27z"/>
<path d="M4938 11614 c-60 -32 -78 -129 -33 -182 31 -36 75 -47 121 -27 19 8
34 10 34 4 0 -5 16 -9 35 -9 l35 0 0 110 0 110 -29 0 c-17 0 -32 -4 -36 -9 -3
-6 -17 -4 -33 5 -34 18 -60 17 -94 -2z m106 -60 c33 -32 8 -104 -36 -104 -25
0 -58 35 -58 62 0 49 61 76 94 42z"/>
<path d="M5453 11620 c-28 -11 -45 -44 -41 -78 2 -21 14 -32 48 -50 25 -12 46
-26 48 -31 6 -17 -30 -21 -58 -6 -27 14 -30 14 -40 -6 -7 -11 -10 -22 -8 -24
18 -15 55 -25 92 -25 36 0 48 5 65 26 38 48 19 96 -45 113 -15 4 -29 12 -32
19 -6 18 28 27 49 14 15 -10 20 -8 29 7 14 27 14 28 -21 40 -37 13 -56 13 -86
1z"/>
<path d="M6475 11623 c-37 -10 -73 -43 -85 -78 -30 -91 54 -171 152 -144 42
11 43 12 27 41 -8 16 -17 19 -42 14 -31 -5 -68 6 -51 16 5 3 40 15 77 28 66
21 68 23 62 49 -9 35 -24 52 -62 68 -33 13 -44 14 -78 6z m60 -72 c0 -14 -74
-46 -83 -36 -3 2 3 16 12 30 13 19 24 25 44 23 15 -2 27 -9 27 -17z"/>
<path d="M6713 11620 c-28 -11 -45 -44 -41 -78 2 -21 14 -32 48 -50 25 -12 46
-26 48 -31 6 -17 -30 -21 -58 -6 -27 14 -30 14 -40 -6 -7 -11 -10 -22 -8 -24
18 -15 55 -25 92 -25 36 0 48 5 65 26 38 48 19 96 -45 113 -15 4 -29 12 -32
19 -6 18 28 27 49 14 15 -10 20 -8 29 7 14 27 14 28 -21 40 -37 13 -56 13 -86
1z"/>
<path d="M6933 11616 c-63 -28 -56 -97 13 -127 24 -11 44 -24 44 -29 0 -17
-22 -22 -51 -10 -23 10 -32 10 -45 -1 -15 -12 -14 -15 6 -31 34 -27 110 -24
138 5 42 45 23 94 -47 118 -42 15 -34 34 15 34 28 0 39 5 42 17 4 20 -3 25
-48 32 -21 4 -48 0 -67 -8z"/>
<path d="M8240 11623 c-8 -3 -22 -12 -31 -20 -14 -12 -17 -12 -23 2 -4 11 -15
15 -33 13 l-28 -3 -3 -107 -3 -108 36 0 35 0 0 53 c0 56 15 94 43 111 30 18
47 -17 47 -96 l0 -68 36 0 36 0 -4 95 c-2 67 -7 99 -18 109 -17 18 -68 28 -90
19z"/>
<path d="M8453 11620 c-28 -11 -45 -44 -41 -78 2 -21 14 -32 48 -50 25 -12 46
-26 48 -31 6 -17 -30 -21 -58 -6 -27 14 -30 14 -40 -6 -7 -11 -10 -22 -8 -24
18 -15 55 -25 92 -25 36 0 48 5 65 26 38 48 19 96 -45 113 -15 4 -29 12 -32
19 -6 18 28 27 49 14 15 -10 20 -8 29 7 14 27 14 28 -21 40 -37 13 -56 13 -86
1z"/>
<path d="M8884 11620 c-73 -29 -88 -160 -25 -207 28 -20 72 -24 105 -8 19 10
32 12 34 5 2 -5 19 -10 38 -10 l35 0 -3 108 -3 107 -32 3 c-19 2 -33 -1 -33
-8 0 -6 -11 -5 -30 5 -32 17 -54 18 -86 5z m98 -67 c36 -32 12 -103 -35 -103
-30 0 -57 29 -57 61 0 52 53 77 92 42z"/>
<path d="M9454 11611 c-38 -23 -59 -77 -51 -128 12 -69 77 -106 141 -79 20 8
36 11 36 5 0 -5 16 -9 35 -9 l35 0 0 110 0 110 -29 0 c-17 0 -32 -4 -36 -9 -3
-6 -17 -4 -33 5 -36 19 -61 18 -98 -5z m107 -51 c14 -8 19 -21 19 -51 0 -32
-4 -41 -25 -51 -56 -25 -105 35 -71 87 17 26 45 32 77 15z"/>
<path d="M10115 11616 c-50 -23 -70 -52 -70 -106 0 -37 6 -54 24 -74 93 -99
259 -6 207 117 -25 62 -101 91 -161 63z m93 -78 c28 -59 -40 -118 -80 -68 -22
27 -23 49 -2 78 22 31 64 26 82 -10z"/>
<path d="M10460 11623 c-8 -3 -22 -12 -31 -20 -14 -12 -17 -12 -22 2 -4 9 -19
15 -37 15 l-30 0 0 -110 0 -110 34 0 34 0 4 71 c3 56 8 74 23 85 40 29 50 15
53 -74 l3 -82 34 0 35 0 0 93 c0 98 -3 108 -37 126 -23 12 -39 13 -63 4z"/>
<path d="M11110 11623 c-8 -3 -22 -12 -31 -20 -14 -12 -17 -12 -23 2 -4 11
-15 15 -33 13 l-28 -3 -3 -107 -3 -108 36 0 35 0 0 53 c0 56 15 94 43 111 30
18 47 -17 47 -96 l0 -68 36 0 36 0 -4 95 c-2 67 -7 99 -18 109 -17 18 -68 28
-90 19z"/>
<path d="M11854 11616 c-70 -31 -94 -108 -54 -173 25 -41 84 -60 136 -43 37
13 40 20 22 49 -9 15 -16 17 -30 10 -19 -10 -58 -4 -58 10 0 4 34 17 76 29 69
21 75 24 69 45 -19 64 -100 101 -161 73z m70 -52 c27 -10 18 -21 -29 -37 -42
-15 -45 -15 -45 2 0 34 35 50 74 35z"/>
<path d="M12550 11613 c-44 -22 -74 -80 -65 -122 28 -129 221 -127 241 1 7 41
-15 97 -46 115 -36 23 -92 25 -130 6z m100 -75 c13 -25 13 -31 0 -55 -29 -52
-93 -34 -93 25 0 64 62 84 93 30z"/>
<path d="M12893 11610 c-18 -11 -33 -25 -34 -32 -1 -7 -4 -2 -8 12 -5 19 -13
25 -36 25 l-30 0 -3 -107 -3 -108 36 0 c35 0 35 0 35 44 0 63 15 96 50 109 25
9 30 17 30 44 0 18 -1 33 -2 33 -2 0 -18 -9 -35 -20z"/>
<path d="M5640 11525 c0 -82 3 -98 20 -115 26 -26 70 -26 104 1 21 17 26 18
26 5 0 -12 10 -16 35 -16 l36 0 -3 108 -3 107 -32 3 -33 3 0 -51 c0 -71 -23
-122 -52 -118 -22 3 -23 8 -26 86 l-3 82 -34 0 -35 0 0 -95z"/>
<path d="M5944 11586 c-35 -35 -36 -39 -32 -88 4 -39 12 -57 31 -74 36 -30 88
-38 133 -19 36 15 36 16 19 35 -13 14 -25 17 -46 13 -21 -4 -36 0 -49 12 -46
42 -5 118 53 96 20 -8 29 -6 43 10 25 28 7 41 -60 47 -53 4 -57 3 -92 -32z"/>
<path d="M6205 11608 c-37 -20 -55 -51 -55 -99 0 -83 68 -132 153 -108 41 11
41 12 27 39 -8 15 -17 18 -40 13 -38 -7 -70 19 -70 58 0 38 32 60 71 49 24 -7
32 -5 44 13 14 20 13 22 -8 34 -27 15 -95 16 -122 1z"/>
<path d="M7337 11613 c-4 -3 -7 -43 -7 -88 0 -68 4 -87 21 -109 24 -31 72 -35
109 -9 17 12 25 13 28 5 2 -7 17 -12 33 -12 l29 0 0 110 0 110 -35 0 -35 0 0
-63 c0 -68 -18 -107 -49 -107 -25 0 -31 19 -31 101 l0 69 -28 0 c-16 0 -32 -3
-35 -7z"/>
<path d="M7980 11510 l0 -110 35 0 35 0 0 110 0 110 -35 0 -35 0 0 -110z"/>
<path d="M9920 11510 l0 -110 35 0 35 0 0 110 0 110 -35 0 -35 0 0 -110z"/>
<path d="M10857 11613 c-4 -3 -7 -53 -7 -110 l0 -103 35 0 35 0 0 110 0 110
-28 0 c-16 0 -32 -3 -35 -7z"/>
<path d="M12091 11594 c-36 -30 -48 -78 -31 -128 19 -57 81 -85 150 -66 45 12
47 16 24 41 -11 13 -25 16 -44 12 -20 -4 -34 1 -49 16 -49 49 -5 110 64 88 15
-5 24 -1 34 15 12 19 11 23 -5 35 -10 7 -39 13 -65 13 -36 0 -55 -6 -78 -26z"/>
<path d="M4100 10905 l0 -195 35 0 35 0 0 68 c0 57 4 72 21 88 15 14 24 16 37
8 13 -9 18 -29 20 -88 l3 -76 34 0 35 0 0 90 c0 83 -2 93 -25 115 -29 30 -59
31 -102 5 l-33 -20 0 100 0 100 -30 0 -30 0 0 -195z"/>
<path d="M5160 11009 c0 -79 -2 -90 -16 -85 -66 25 -125 11 -155 -38 -37 -61
-14 -146 47 -172 32 -14 42 -14 80 -1 24 8 44 10 44 6 0 -5 16 -9 35 -9 l35 0
0 195 0 195 -35 0 -35 0 0 -91z m-18 -146 c46 -41 -2 -120 -58 -95 -13 7 -29
23 -36 36 -24 55 48 101 94 59z"/>
<path d="M6260 10905 l0 -195 35 0 35 0 0 59 c0 69 6 88 30 101 39 21 50 3 50
-81 l0 -79 35 0 35 0 0 94 c0 91 -1 95 -27 116 -31 24 -74 22 -105 -7 -17 -15
-18 -12 -18 85 l0 102 -35 0 -35 0 0 -195z"/>
<path d="M7900 11009 c0 -79 -2 -90 -16 -85 -63 24 -121 12 -150 -32 -21 -32
-24 -100 -5 -135 8 -14 29 -33 48 -42 31 -15 39 -15 79 -2 24 8 44 10 44 6 0
-5 16 -9 35 -9 l35 0 0 195 0 195 -35 0 -35 0 0 -91z m-16 -145 c34 -33 6
-104 -40 -104 -43 0 -72 71 -44 105 16 20 64 19 84 -1z"/>
<path d="M9325 11088 c-35 -21 -44 -42 -45 -100 0 -51 -2 -58 -20 -58 -15 0
-20 -7 -20 -29 0 -20 6 -30 20 -34 18 -5 20 -14 20 -81 l0 -76 35 0 35 0 0 80
0 80 30 0 c27 0 30 3 30 30 0 27 -3 30 -31 30 l-30 0 3 53 c3 48 5 52 31 55
25 3 55 37 44 49 -12 11 -84 13 -102 1z"/>
<path d="M10110 11009 c0 -79 -2 -90 -16 -85 -63 24 -121 12 -150 -32 -21 -32
-24 -100 -5 -135 8 -14 29 -33 48 -42 31 -15 39 -15 79 -2 24 8 44 10 44 6 0
-5 16 -9 35 -9 l35 0 0 195 0 195 -35 0 -35 0 0 -91z m-16 -145 c34 -33 6
-104 -40 -104 -43 0 -72 71 -44 105 16 20 64 19 84 -1z"/>
<path d="M12394 11077 c-23 -20 -28 -34 -32 -85 -3 -48 -8 -61 -23 -65 -27 -7
-26 -57 1 -57 18 0 20 -7 20 -80 l0 -80 35 0 35 0 0 80 0 80 35 0 c32 0 35 2
35 30 0 28 -3 30 -35 30 -35 0 -35 1 -35 43 0 53 12 72 40 64 28 -7 53 39 29
54 -26 17 -77 10 -105 -14z"/>
<path d="M12850 10905 l0 -195 35 0 35 0 0 195 0 195 -35 0 -35 0 0 -195z"/>
<path d="M3865 11073 c-36 -9 -87 -55 -106 -97 -60 -131 23 -266 164 -266 77
0 110 16 102 49 -9 37 -20 44 -43 32 -11 -6 -39 -11 -62 -11 -33 0 -48 6 -71
29 -25 25 -29 37 -29 81 0 46 4 56 34 86 38 38 70 43 116 19 29 -15 30 -15 44
17 13 33 13 33 -23 50 -35 17 -84 21 -126 11z"/>
<path d="M2740 11005 c0 -24 5 -35 15 -35 13 0 15 -21 15 -130 l0 -130 35 0
35 0 0 165 0 165 -50 0 -50 0 0 -35z"/>
<path d="M2907 11033 c-4 -3 -7 -19 -7 -35 0 -28 1 -28 60 -28 33 0 60 -2 60
-5 0 -2 -20 -57 -45 -121 -25 -64 -45 -120 -45 -125 0 -5 17 -9 38 -9 l38 0
57 158 c32 86 57 160 57 165 0 9 -204 10 -213 0z"/>
<path d="M5312 11031 c-8 -4 -12 -19 -10 -32 2 -19 9 -24 33 -24 33 0 45 25
25 50 -14 17 -29 19 -48 6z"/>
<path d="M10742 11031 c-8 -4 -12 -19 -10 -32 2 -19 9 -24 33 -24 33 0 45 25
25 50 -14 17 -29 19 -48 6z"/>
<path d="M9490 10975 c0 -33 -4 -45 -15 -45 -10 0 -15 -10 -15 -30 0 -20 5
-30 15 -30 12 0 15 -16 15 -80 l0 -80 35 0 35 0 0 80 c0 79 0 80 25 80 21 0
25 5 25 30 0 25 -4 30 -25 30 -23 0 -25 4 -25 45 0 45 0 45 -35 45 -35 0 -35
0 -35 -45z"/>
<path d="M12170 10975 c0 -38 -3 -45 -20 -45 -16 0 -20 -7 -20 -30 0 -23 4
-30 20 -30 18 0 20 -7 20 -80 l0 -80 35 0 35 0 0 80 c0 79 0 80 25 80 21 0 25
5 25 30 0 25 -4 30 -25 30 -23 0 -25 4 -25 45 0 45 0 45 -35 45 -35 0 -35 0
-35 -45z"/>
<path d="M4450 10933 c-81 -30 -102 -165 -33 -210 30 -20 96 -22 118 -3 10 9
15 9 15 1 0 -6 16 -11 35 -11 l35 0 0 110 0 110 -29 0 c-16 0 -31 -5 -33 -12
-3 -8 -11 -7 -28 5 -24 17 -52 20 -80 10z m84 -66 c13 -9 17 -23 14 -52 -2
-33 -8 -41 -31 -49 -23 -8 -31 -6 -48 11 -53 53 5 134 65 90z"/>
<path d="M4810 10933 c-8 -3 -22 -12 -31 -20 -14 -12 -17 -12 -23 2 -4 11 -15
15 -33 13 l-28 -3 -3 -107 -3 -108 36 0 35 0 0 53 c0 56 15 94 43 111 30 18
47 -17 47 -96 l0 -68 36 0 36 0 -4 95 c-2 67 -7 99 -18 109 -17 18 -68 28 -90
19z"/>
<path d="M5495 10931 c-74 -32 -96 -133 -41 -190 36 -38 74 -46 120 -27 34 14
36 14 36 -4 0 -21 -35 -50 -60 -50 -8 0 -27 6 -42 14 -24 13 -28 12 -48 -9
l-21 -22 27 -18 c41 -26 104 -31 148 -10 56 27 66 55 66 195 l0 121 -47 -2
c-27 -1 -64 1 -83 4 -19 4 -44 3 -55 -2z m96 -61 c12 -7 19 -21 19 -42 0 -61
-59 -89 -100 -48 -52 52 14 125 81 90z"/>
<path d="M5804 10930 c-73 -29 -88 -160 -25 -207 28 -20 72 -24 105 -8 19 10
32 12 34 5 2 -5 19 -10 38 -10 l35 0 -3 108 -3 107 -32 3 c-19 2 -33 -1 -33
-8 0 -6 -11 -5 -30 5 -32 17 -54 18 -86 5z m98 -67 c36 -32 12 -103 -35 -103
-30 0 -57 29 -57 61 0 52 53 77 92 42z"/>
<path d="M6170 10923 c-14 -9 -30 -24 -37 -33 -11 -13 -12 -11 -13 13 0 23 -4
27 -30 27 l-30 0 0 -110 0 -110 30 0 c27 0 30 3 30 33 0 62 19 109 50 120 18
7 30 20 33 36 7 36 -4 44 -33 24z"/>
<path d="M7184 10930 c-73 -29 -88 -160 -25 -207 28 -20 72 -24 105 -8 19 10
32 12 34 5 2 -5 19 -10 38 -10 l35 0 -3 108 -3 107 -32 3 c-19 2 -33 -1 -33
-8 0 -6 -11 -5 -30 5 -32 17 -54 18 -86 5z m98 -67 c36 -32 12 -103 -35 -103
-30 0 -57 29 -57 61 0 52 53 77 92 42z"/>
<path d="M7554 10930 c-12 -5 -25 -13 -29 -19 -9 -16 -25 -13 -25 4 0 10 -10
15 -30 15 l-30 0 0 -110 0 -110 35 0 35 0 0 59 c0 69 6 88 30 101 39 21 50 3
50 -81 l0 -79 35 0 35 0 0 94 c0 90 -1 96 -26 115 -29 22 -46 25 -80 11z"/>
<path d="M8870 10923 c-14 -9 -30 -24 -37 -33 -11 -13 -12 -11 -13 13 0 23 -4
27 -30 27 l-30 0 0 -110 0 -110 30 0 c27 0 30 3 30 33 0 62 19 109 50 120 18
7 30 20 33 36 7 36 -4 44 -33 24z"/>
<path d="M9010 10933 c-81 -30 -102 -165 -33 -210 30 -20 96 -22 118 -3 10 9
15 9 15 1 0 -6 16 -11 35 -11 l35 0 0 110 0 110 -29 0 c-16 0 -31 -5 -33 -12
-3 -8 -11 -7 -28 5 -24 17 -52 20 -80 10z m84 -66 c13 -9 17 -23 14 -52 -2
-33 -8 -41 -31 -49 -23 -8 -31 -6 -48 11 -53 53 5 134 65 90z"/>
<path d="M9724 10926 c-70 -31 -94 -108 -54 -173 25 -41 84 -60 136 -43 37 13
40 20 22 49 -9 15 -16 17 -30 10 -19 -10 -58 -4 -58 10 0 4 34 17 76 29 69 21
75 24 69 45 -19 64 -100 101 -161 73z m70 -52 c27 -10 18 -21 -29 -37 -42 -15
-45 -15 -45 2 0 34 35 50 74 35z"/>
<path d="M10963 10920 c-27 -16 -33 -17 -33 -5 0 10 -10 15 -30 15 l-30 0 0
-110 0 -110 35 0 35 0 0 65 c0 52 4 69 21 86 34 34 44 19 47 -69 l3 -82 34 0
35 0 0 55 c0 59 14 101 38 110 26 10 37 -13 40 -90 l4 -75 29 0 29 0 0 99 c0
106 -4 114 -53 126 -21 6 -36 2 -56 -12 -26 -20 -27 -20 -50 -2 -30 24 -58 24
-98 -1z"/>
<path d="M11393 10926 c-18 -8 -33 -11 -33 -6 0 6 -13 10 -30 10 l-30 0 0
-160 0 -160 30 0 c30 0 30 1 30 55 0 58 3 61 45 45 42 -16 102 4 126 43 28 44
21 119 -13 153 -30 31 -83 39 -125 20z m67 -66 c24 -24 25 -48 4 -78 -17 -24
-62 -30 -82 -10 -19 19 -15 85 6 97 26 16 50 13 72 -9z"/>
<path d="M11648 10924 c-60 -32 -78 -129 -33 -182 31 -36 75 -47 121 -27 19 8
34 10 34 4 0 -5 16 -9 35 -9 l35 0 0 110 0 110 -29 0 c-17 0 -32 -4 -36 -9 -3
-6 -17 -4 -33 5 -34 18 -60 17 -94 -2z m106 -60 c33 -32 8 -104 -36 -104 -25
0 -58 35 -58 62 0 49 61 76 94 42z"/>
<path d="M5300 10820 l0 -110 35 0 35 0 0 110 0 110 -35 0 -35 0 0 -110z"/>
<path d="M8541 10904 c-36 -30 -48 -78 -31 -128 19 -57 81 -85 150 -66 45 12
47 16 24 41 -11 13 -25 16 -44 12 -20 -4 -34 1 -49 16 -49 49 -5 110 64 88 15
-5 24 -1 34 15 12 19 11 23 -5 35 -10 7 -39 13 -65 13 -36 0 -55 -6 -78 -26z"/>
<path d="M10730 10820 l0 -110 35 0 35 0 0 110 0 110 -35 0 -35 0 0 -110z"/>
<path d="M11931 10904 c-36 -30 -48 -78 -31 -128 19 -57 81 -85 150 -66 45 12
47 16 24 41 -11 13 -25 16 -44 12 -20 -4 -34 1 -49 16 -49 49 -5 110 64 88 15
-5 24 -1 34 15 12 19 11 23 -5 35 -10 7 -39 13 -65 13 -36 0 -55 -6 -78 -26z"/>
<path d="M12560 10835 c0 -82 3 -98 20 -115 26 -26 70 -26 104 1 21 17 26 18
26 5 0 -12 10 -16 35 -16 l36 0 -3 108 -3 107 -32 3 -33 3 0 -51 c0 -71 -23
-122 -52 -118 -22 3 -23 8 -26 86 l-3 82 -34 0 -35 0 0 -95z"/>
<path d="M3151 10713 c-7 -21 -15 -44 -17 -50 -4 -9 4 -13 24 -13 25 0 31 6
46 43 21 56 21 57 -12 57 -24 0 -31 -6 -41 -37z"/>
<path d="M6540 10725 c-6 -14 -14 -36 -20 -50 -9 -23 -7 -25 19 -25 25 0 31 7
49 50 l21 50 -30 0 c-22 0 -32 -6 -39 -25z"/>
<path d="M2750 10215 l0 -195 35 0 c19 0 35 5 35 11 0 8 5 8 15 -1 8 -7 33
-13 55 -14 78 -2 132 74 110 156 -18 66 -88 93 -162 63 -16 -6 -18 1 -18 84
l0 91 -35 0 -35 0 0 -195z m169 -39 c21 -25 9 -79 -20 -95 -24 -13 -29 -13
-53 2 -32 21 -37 80 -8 96 25 15 68 13 81 -3z"/>
<path d="M4020 10321 l0 -90 -31 11 c-72 25 -149 -30 -149 -106 0 -56 18 -88
63 -110 36 -17 41 -17 78 -3 21 8 39 11 39 6 0 -5 16 -9 35 -9 l35 0 0 195 0
195 -35 0 -35 0 0 -89z m-12 -143 c7 -7 12 -29 12 -50 0 -32 -4 -40 -26 -48
-35 -14 -41 -13 -64 10 -24 24 -26 57 -3 82 18 20 63 24 81 6z"/>
<path d="M7580 10215 l0 -195 34 0 34 0 4 71 c3 56 8 74 23 85 40 29 50 15 53
-74 l3 -82 34 0 35 0 0 93 c0 50 -4 97 -8 103 -24 37 -88 40 -124 7 -17 -15
-18 -11 -18 85 l0 102 -35 0 -35 0 0 -195z"/>
<path d="M9169 10381 c-25 -26 -29 -37 -29 -85 0 -49 -2 -56 -20 -56 -16 0
-20 -7 -20 -30 0 -23 4 -30 20 -30 18 0 20 -7 20 -80 l0 -80 35 0 35 0 0 80 0
80 30 0 c27 0 30 3 30 30 0 27 -3 30 -31 30 l-30 0 3 53 c3 49 4 52 30 52 34
-1 61 40 38 55 -31 20 -81 11 -111 -19z"/>
<path d="M9405 10398 c-35 -21 -44 -42 -45 -100 0 -51 -2 -58 -20 -58 -15 0
-20 -7 -20 -29 0 -20 6 -30 20 -34 18 -5 20 -14 20 -81 l0 -76 35 0 35 0 0 80
0 80 30 0 c27 0 30 3 30 30 0 27 -3 30 -31 30 l-30 0 3 53 c3 48 5 52 31 55
25 3 55 37 44 49 -12 11 -84 13 -102 1z"/>
<path d="M10790 10215 l0 -195 35 0 35 0 0 195 0 195 -35 0 -35 0 0 -195z"/>
<path d="M11370 10321 l0 -90 -31 11 c-72 25 -149 -30 -149 -106 0 -56 18 -88
63 -110 36 -17 41 -17 78 -3 21 8 39 11 39 6 0 -5 16 -9 35 -9 l35 0 0 195 0
195 -35 0 -35 0 0 -89z m-12 -143 c7 -7 12 -29 12 -50 0 -32 -4 -40 -26 -48
-35 -14 -41 -13 -64 10 -24 24 -26 57 -3 82 18 20 63 24 81 6z"/>
<path d="M7280 10350 l0 -40 40 0 40 0 0 -145 0 -145 35 0 35 0 0 145 0 145
45 0 45 0 0 40 0 40 -120 0 -120 0 0 -40z"/>
<path d="M6226 10335 c-20 -20 -5 -55 23 -55 28 0 47 28 34 48 -14 23 -38 26
-57 7z"/>
<path d="M8162 10341 c-8 -4 -12 -19 -10 -32 2 -19 9 -24 33 -24 33 0 45 25
25 50 -14 17 -29 19 -48 6z"/>
<path d="M12733 10330 c-54 -32 -68 -83 -38 -140 17 -34 31 -37 56 -14 14 12
15 20 6 44 -8 22 -8 32 2 44 19 23 68 20 81 -4 19 -35 -7 -87 -82 -166 l-71
-74 122 0 121 0 0 35 c0 34 -1 35 -39 35 l-40 0 35 57 c36 60 43 103 22 148
-24 54 -115 72 -175 35z"/>
<path d="M4760 10286 c0 -35 -4 -45 -20 -49 -12 -3 -20 -14 -20 -27 0 -13 8
-24 20 -27 18 -5 20 -14 20 -84 l0 -79 35 0 35 0 0 80 c0 79 0 80 25 80 21 0
25 5 25 30 0 25 -4 30 -25 30 -23 0 -25 4 -25 45 0 45 0 45 -35 45 -35 0 -35
0 -35 -44z"/>
<path d="M5450 10285 c0 -33 -4 -45 -15 -45 -10 0 -15 -10 -15 -30 0 -20 5
-30 15 -30 12 0 15 -16 15 -80 l0 -80 35 0 35 0 0 79 c0 79 0 80 28 83 21 2
27 8 27 28 0 20 -6 26 -27 28 -26 3 -28 7 -28 48 0 44 0 44 -35 44 -35 0 -35
0 -35 -45z"/>
<path d="M10040 10285 c0 -33 -4 -45 -15 -45 -10 0 -15 -10 -15 -30 0 -20 5
-30 15 -30 12 0 15 -16 15 -80 l0 -80 35 0 35 0 0 80 c0 79 0 80 25 80 21 0
25 5 25 30 0 25 -4 30 -25 30 -23 0 -25 4 -25 45 0 45 0 45 -35 45 -35 0 -35
0 -35 -45z"/>
<path d="M11890 10286 c0 -35 -4 -45 -20 -49 -12 -3 -20 -14 -20 -27 0 -13 8
-24 20 -27 18 -5 20 -14 20 -84 l0 -79 35 0 35 0 0 80 c0 79 0 80 25 80 21 0
25 5 25 30 0 25 -4 30 -25 30 -23 0 -25 4 -25 45 0 45 0 45 -35 45 -35 0 -35
0 -35 -44z"/>
<path d="M3167 10226 c-35 -24 -36 -24 -42 -5 -4 13 -15 19 -36 19 l-29 0 0
-110 0 -110 35 0 35 0 0 55 c0 46 4 60 25 80 13 14 31 25 40 25 11 0 15 10 15
35 0 19 -2 35 -4 35 -2 0 -19 -11 -39 -24z"/>
<path d="M3298 10234 c-60 -32 -78 -129 -33 -182 31 -36 75 -47 121 -27 19 8
34 10 34 4 0 -5 16 -9 35 -9 l35 0 0 110 0 110 -29 0 c-17 0 -32 -4 -36 -9 -3
-6 -17 -4 -33 5 -34 18 -60 17 -94 -2z m106 -60 c33 -32 8 -104 -36 -104 -25
0 -58 35 -58 62 0 49 61 76 94 42z"/>
<path d="M3680 10243 c-8 -3 -22 -12 -31 -20 -14 -12 -17 -12 -22 2 -4 9 -19
15 -37 15 l-30 0 0 -110 0 -110 34 0 34 0 4 71 c3 56 8 74 23 85 40 29 50 15
53 -74 l3 -82 34 0 35 0 0 93 c0 98 -3 108 -37 126 -23 12 -39 13 -63 4z"/>
<path d="M4553 10240 c-28 -11 -45 -44 -41 -78 2 -21 14 -32 48 -50 25 -12 46
-26 48 -31 6 -17 -30 -21 -58 -6 -27 14 -30 14 -40 -6 -7 -11 -10 -22 -8 -24
18 -15 55 -25 92 -25 36 0 48 5 65 26 38 48 19 96 -45 113 -15 4 -29 12 -32
19 -6 18 28 27 49 14 15 -10 20 -8 29 7 14 27 14 28 -21 40 -37 13 -56 13 -86
1z"/>
<path d="M5043 10230 c-18 -11 -33 -25 -34 -32 -1 -7 -4 -2 -8 12 -5 19 -13
25 -36 25 l-30 0 -3 -107 -3 -108 36 0 c35 0 35 0 35 44 0 63 15 96 50 109 25
9 30 17 30 44 0 18 -1 33 -2 33 -2 0 -18 -9 -35 -20z"/>
<path d="M5164 10231 c-38 -23 -59 -77 -51 -128 12 -69 77 -106 141 -79 20 8
36 11 36 5 0 -5 16 -9 35 -9 l35 0 0 110 0 110 -29 0 c-17 0 -32 -4 -36 -9 -3
-6 -17 -4 -33 5 -36 19 -61 18 -98 -5z m107 -51 c14 -8 19 -21 19 -51 0 -32
-4 -41 -25 -51 -56 -25 -105 35 -71 87 17 26 45 32 77 15z"/>
<path d="M5683 10235 c-36 -16 -73 -68 -73 -103 0 -79 78 -134 159 -112 l41
11 -15 30 c-13 25 -19 28 -36 19 -21 -12 -67 -3 -53 10 5 4 39 17 77 30 37 12
67 26 67 31 0 27 -35 72 -65 85 -42 17 -61 17 -102 -1z m84 -61 c2 -7 -17 -19
-42 -27 -47 -16 -53 -11 -34 24 7 15 19 19 41 17 17 -2 33 -8 35 -14z"/>
<path d="M5949 10235 c-14 -8 -34 -25 -43 -39 -21 -32 -21 -105 0 -135 32 -46
111 -60 152 -28 19 15 27 0 14 -28 -15 -33 -58 -43 -96 -21 -29 17 -30 17 -48
-6 -17 -22 -17 -24 3 -40 51 -43 153 -29 193 25 19 25 21 42 21 150 l0 122
-32 3 c-18 2 -33 -1 -33 -7 0 -6 -14 -4 -35 5 -42 17 -63 17 -96 -1z m109 -61
c45 -31 16 -104 -42 -104 -48 0 -73 64 -39 102 20 22 51 23 81 2z"/>
<path d="M6414 10236 c-70 -31 -94 -108 -54 -173 25 -41 84 -60 136 -43 37 13
40 20 22 49 -9 15 -16 17 -30 10 -19 -10 -58 -4 -58 10 0 4 34 17 76 29 69 21
75 24 69 45 -19 64 -100 101 -161 73z m70 -52 c27 -10 18 -21 -29 -37 -42 -15
-45 -15 -45 2 0 34 35 50 74 35z"/>
<path d="M6670 10237 c-13 -7 -31 -24 -39 -38 -13 -24 -13 -29 2 -53 10 -14
33 -32 52 -40 19 -8 35 -20 35 -26 0 -19 -29 -23 -54 -7 -22 15 -25 15 -41 -2
-15 -18 -15 -20 7 -35 13 -9 43 -16 70 -16 60 0 88 24 88 75 0 32 -4 37 -46
58 -52 24 -55 42 -9 42 62 0 73 29 18 44 -48 14 -53 13 -83 -2z"/>
<path d="M7934 10236 c-70 -31 -94 -108 -54 -173 25 -41 84 -60 136 -43 37 13
40 20 22 49 -9 15 -16 17 -30 10 -19 -10 -58 -4 -58 10 0 4 34 17 76 29 69 21
75 24 69 45 -19 64 -100 101 -161 73z m70 -52 c27 -10 18 -21 -29 -37 -42 -15
-45 -15 -45 2 0 34 35 50 74 35z"/>
<path d="M8397 10226 c-35 -24 -36 -24 -42 -5 -4 13 -15 19 -36 19 l-29 0 0
-110 0 -110 35 0 35 0 0 55 c0 46 4 60 25 80 13 14 31 25 40 25 11 0 15 10 15
35 0 19 -2 35 -4 35 -2 0 -19 -11 -39 -24z"/>
<path d="M8904 10236 c-70 -31 -94 -108 -54 -173 25 -41 84 -60 136 -43 37 13
40 20 22 49 -9 15 -16 17 -30 10 -19 -10 -58 -4 -58 10 0 4 34 17 76 29 69 21
75 24 69 45 -19 64 -100 101 -161 73z m70 -52 c27 -10 18 -21 -29 -37 -42 -15
-45 -15 -45 2 0 34 35 50 74 35z"/>
<path d="M9585 10231 c-44 -19 -65 -53 -65 -102 0 -81 74 -132 159 -109 54 14
81 51 81 109 0 55 -20 88 -66 107 -43 18 -61 17 -109 -5z m86 -51 c24 -13 26
-72 3 -94 -49 -49 -114 34 -67 86 18 20 36 23 64 8z"/>
<path d="M9945 10240 c-12 -4 -27 -15 -34 -24 -18 -22 -31 -20 -31 4 0 16 -7
20 -30 20 l-30 0 0 -110 0 -110 35 0 35 0 0 59 c0 52 3 62 26 80 15 12 33 21
40 21 9 0 14 12 14 35 0 19 -1 35 -2 34 -2 0 -12 -4 -23 -9z"/>
<path d="M10253 10240 c-28 -11 -45 -44 -41 -78 2 -21 14 -32 48 -50 25 -12
46 -26 48 -31 6 -17 -30 -21 -58 -6 -27 14 -30 14 -40 -6 -7 -11 -10 -22 -8
-24 18 -15 55 -25 92 -25 36 0 48 5 65 26 38 48 19 96 -45 113 -15 4 -29 12
-32 19 -6 18 28 27 49 14 15 -10 20 -8 29 7 14 27 14 28 -21 40 -37 13 -56 13
-86 1z"/>
<path d="M11005 10243 c-37 -10 -73 -43 -85 -78 -30 -91 54 -171 152 -144 42
11 43 12 27 41 -8 16 -17 19 -42 14 -31 -5 -68 6 -51 16 5 3 40 15 77 28 66
21 68 23 62 49 -9 35 -24 52 -62 68 -33 13 -44 14 -78 6z m60 -72 c0 -14 -74
-46 -83 -36 -3 2 3 16 12 30 13 19 24 25 44 23 15 -2 27 -9 27 -17z"/>
<path d="M12123 10239 c-47 -14 -73 -52 -73 -109 0 -60 26 -96 81 -110 112
-30 196 70 143 171 -15 30 -67 60 -101 58 -10 0 -32 -5 -50 -10z m79 -66 c22
-20 23 -61 1 -85 -33 -36 -83 -11 -83 42 0 52 45 76 82 43z"/>
<path d="M6220 10131 l0 -111 35 0 36 0 -3 108 -3 107 -32 3 -33 3 0 -110z"/>
<path d="M8150 10130 l0 -110 35 0 35 0 0 110 0 110 -35 0 -35 0 0 -110z"/>
<path d="M6831 10072 c-12 -23 4 -52 29 -52 25 0 41 30 29 53 -13 22 -46 22
-58 -1z"/>
<path d="M4920 9525 l0 -195 35 0 35 0 0 195 0 195 -35 0 -35 0 0 -195z"/>
<path d="M12850 9629 c0 -79 -2 -90 -16 -85 -66 25 -125 11 -155 -38 -37 -61
-14 -146 47 -172 32 -14 42 -14 80 -1 24 8 44 10 44 6 0 -5 16 -9 35 -9 l35 0
0 195 0 195 -35 0 -35 0 0 -91z m-18 -146 c46 -41 -2 -120 -58 -95 -13 7 -29
23 -36 36 -24 55 48 101 94 59z"/>
<path d="M4152 9648 c-20 -20 -14 -47 12 -54 32 -8 46 2 46 31 0 32 -35 46
-58 23z"/>
<path d="M5072 9648 c-20 -20 -14 -47 12 -54 32 -8 46 2 46 31 0 32 -35 46
-58 23z"/>
<path d="M7282 9651 c-8 -4 -12 -19 -10 -32 2 -19 9 -24 33 -24 33 0 45 25 25
50 -14 17 -29 19 -48 6z"/>
<path d="M7642 9648 c-20 -20 -14 -47 12 -54 32 -8 46 2 46 31 0 32 -35 46
-58 23z"/>
<path d="M7976 9645 c-20 -20 -5 -55 23 -55 28 0 47 28 34 48 -14 23 -38 26
-57 7z"/>
<path d="M11676 9645 c-20 -20 -5 -55 23 -55 28 0 47 28 34 48 -14 23 -38 26
-57 7z"/>
<path d="M5790 9596 c0 -35 -4 -45 -20 -49 -12 -3 -20 -14 -20 -27 0 -13 8
-24 20 -27 18 -5 20 -14 20 -84 l0 -79 35 0 35 0 0 80 c0 79 0 80 25 80 21 0
25 5 25 30 0 25 -4 30 -25 30 -23 0 -25 4 -25 45 0 45 0 45 -35 45 -35 0 -35
0 -35 -44z"/>
<path d="M7790 9595 c0 -33 -4 -45 -15 -45 -10 0 -15 -10 -15 -30 0 -20 5 -30
15 -30 12 0 15 -16 15 -80 l0 -80 35 0 35 0 0 80 c0 79 0 80 25 80 21 0 25 5
25 30 0 25 -4 30 -25 30 -23 0 -25 4 -25 45 0 45 0 45 -35 45 -35 0 -35 0 -35
-45z"/>
<path d="M11060 9595 c0 -33 -4 -45 -15 -45 -10 0 -15 -10 -15 -30 0 -20 5
-30 15 -30 12 0 15 -16 15 -80 l0 -80 35 0 35 0 0 80 c0 79 0 80 25 80 21 0
25 5 25 30 0 25 -4 30 -25 30 -23 0 -25 4 -25 45 0 45 0 45 -35 45 -35 0 -35
0 -35 -45z"/>
<path d="M2800 9543 c-44 -22 -74 -80 -65 -122 28 -129 221 -127 241 1 7 41
-15 97 -46 115 -36 23 -92 25 -130 6z m100 -75 c13 -25 13 -31 0 -55 -29 -52
-93 -34 -93 25 0 64 62 84 93 30z"/>
<path d="M3143 9540 c-18 -11 -33 -25 -34 -32 -1 -7 -4 -2 -8 12 -5 19 -13 25
-36 25 l-30 0 -3 -107 -3 -108 36 0 c35 0 35 0 35 44 0 63 15 96 50 109 25 9
30 17 30 44 0 18 -1 33 -2 33 -2 0 -18 -9 -35 -20z"/>
<path d="M3285 9551 c-74 -32 -96 -133 -41 -190 36 -38 74 -46 120 -27 34 14
36 14 36 -4 0 -21 -35 -50 -60 -50 -8 0 -27 6 -42 14 -24 13 -28 12 -48 -9
l-21 -22 27 -18 c41 -26 104 -31 148 -10 56 27 66 55 66 195 l0 121 -47 -2
c-27 -1 -64 1 -83 4 -19 4 -44 3 -55 -2z m96 -61 c12 -7 19 -21 19 -42 0 -61
-59 -89 -100 -48 -52 52 14 125 81 90z"/>
<path d="M3600 9553 c-81 -30 -102 -165 -33 -210 30 -20 96 -22 118 -3 10 9
15 9 15 1 0 -6 16 -11 35 -11 l35 0 0 110 0 110 -29 0 c-16 0 -31 -5 -33 -12
-3 -8 -11 -7 -28 5 -24 17 -52 20 -80 10z m84 -66 c13 -9 17 -23 14 -52 -2
-33 -8 -41 -31 -49 -23 -8 -31 -6 -48 11 -53 53 5 134 65 90z"/>
<path d="M3943 9540 c-27 -16 -33 -17 -33 -5 0 10 -10 15 -30 15 l-30 0 0
-110 0 -110 35 0 35 0 0 68 c0 57 4 72 21 88 15 14 24 16 37 8 13 -9 18 -29
20 -88 l3 -76 34 0 35 0 0 90 c0 83 -2 93 -25 115 -29 30 -59 31 -102 5z"/>
<path d="M5275 9553 c-37 -10 -73 -43 -85 -78 -30 -91 54 -171 152 -144 42 11
43 12 27 41 -8 16 -17 19 -42 14 -31 -5 -68 6 -51 16 5 3 40 15 77 28 66 21
68 23 62 49 -9 35 -24 52 -62 68 -33 13 -44 14 -78 6z m60 -72 c0 -14 -74 -46
-83 -36 -3 2 3 16 12 30 13 19 24 25 44 23 15 -2 27 -9 27 -17z"/>
<path d="M5590 9553 c-8 -3 -22 -12 -31 -20 -14 -12 -17 -12 -23 2 -4 11 -15
15 -33 13 l-28 -3 -3 -107 -3 -108 36 0 35 0 0 53 c0 56 15 94 43 111 30 18
47 -17 47 -96 l0 -68 36 0 36 0 -4 95 c-2 67 -7 99 -18 109 -17 18 -68 28 -90
19z"/>
<path d="M6164 9541 c-38 -23 -59 -77 -51 -128 12 -69 77 -106 141 -79 20 8
36 11 36 5 0 -5 16 -9 35 -9 l35 0 0 110 0 110 -29 0 c-17 0 -32 -4 -36 -9 -3
-6 -17 -4 -33 5 -36 19 -61 18 -98 -5z m107 -51 c14 -8 19 -21 19 -51 0 -32
-4 -41 -25 -51 -56 -25 -105 35 -71 87 17 26 45 32 77 15z"/>
<path d="M6713 9544 c-34 -17 -63 -67 -63 -109 0 -73 68 -125 138 -105 53 14
52 15 52 -45 l0 -55 35 0 35 0 0 161 0 160 -47 -2 c-27 0 -64 2 -83 5 -23 4
-46 1 -67 -10z m105 -60 c26 -18 29 -60 5 -86 -23 -25 -68 -23 -87 4 -21 30
-20 54 4 78 24 24 48 25 78 4z"/>
<path d="M7443 9546 c-63 -28 -56 -97 13 -127 24 -11 44 -24 44 -29 0 -17 -22
-22 -51 -10 -23 10 -32 10 -45 -1 -15 -12 -14 -15 6 -31 34 -27 110 -24 138 5
42 45 23 94 -47 118 -42 15 -34 34 15 34 28 0 39 5 42 17 4 20 -3 25 -48 32
-21 4 -48 0 -67 -8z"/>
<path d="M8155 9541 c-44 -19 -65 -53 -65 -102 0 -81 74 -132 159 -109 54 14
81 51 81 109 0 55 -20 88 -66 107 -43 18 -61 17 -109 -5z m86 -51 c24 -13 26
-72 3 -94 -49 -49 -114 34 -67 86 18 20 36 23 64 8z"/>
<path d="M8504 9550 c-12 -5 -25 -13 -29 -19 -9 -16 -25 -13 -25 4 0 10 -10
15 -30 15 l-30 0 0 -110 0 -110 35 0 35 0 0 59 c0 69 6 88 30 101 39 21 50 3
50 -81 l0 -79 35 0 35 0 0 94 c0 90 -1 96 -26 115 -29 22 -46 25 -80 11z"/>
<path d="M8730 9553 c-31 -12 -50 -37 -50 -68 0 -35 20 -58 64 -72 17 -5 31
-14 33 -20 7 -19 -36 -26 -61 -9 -24 15 -46 6 -46 -21 0 -32 107 -46 147 -18
49 35 34 103 -29 121 -36 11 -52 44 -21 44 10 0 24 -4 32 -9 10 -7 19 -4 28 7
18 25 16 29 -18 41 -34 12 -55 13 -79 4z"/>
<path d="M9220 9543 c-44 -22 -74 -80 -65 -122 28 -129 221 -127 241 1 7 41
-15 97 -46 115 -36 23 -92 25 -130 6z m100 -75 c13 -25 13 -31 0 -55 -29 -52
-93 -34 -93 25 0 64 62 84 93 30z"/>
<path d="M9853 9540 c-18 -11 -33 -25 -34 -32 -1 -7 -4 -2 -8 12 -5 19 -13 25
-36 25 l-30 0 -3 -107 -3 -108 36 0 c35 0 35 0 35 44 0 63 15 96 50 109 25 9
30 17 30 44 0 18 -1 33 -2 33 -2 0 -18 -9 -35 -20z"/>
<path d="M10207 9540 c-21 -17 -26 -18 -31 -5 -3 9 -18 15 -36 15 l-30 0 0
-110 0 -110 34 0 34 0 4 71 c3 56 8 74 23 85 32 24 40 11 43 -74 l3 -82 33 0
33 0 6 66 c3 49 10 72 25 87 18 17 23 18 36 7 12 -9 16 -32 16 -86 l0 -74 35
0 35 0 0 90 c0 83 -2 93 -25 115 -29 30 -50 31 -91 6 -29 -18 -31 -18 -53 0
-30 24 -62 24 -94 -1z"/>
<path d="M10595 9546 c-50 -23 -70 -52 -70 -106 0 -37 6 -54 24 -74 93 -99
259 -6 207 117 -25 62 -101 91 -161 63z m93 -78 c28 -59 -40 -118 -80 -68 -22
27 -23 49 -2 78 22 31 64 26 82 -10z"/>
<path d="M10860 9547 c-13 -7 -31 -24 -39 -38 -13 -24 -13 -29 2 -53 10 -14
33 -32 52 -40 19 -8 35 -20 35 -26 0 -19 -29 -23 -54 -7 -22 15 -25 15 -41 -2
-15 -18 -15 -20 7 -35 13 -9 43 -16 70 -16 60 0 88 24 88 75 0 32 -4 37 -46
58 -52 24 -55 42 -9 42 62 0 73 29 18 44 -48 14 -53 13 -83 -2z"/>
<path d="M11864 9546 c-70 -31 -94 -108 -54 -173 25 -41 84 -60 136 -43 37 13
40 20 22 49 -9 15 -16 17 -30 10 -19 -10 -58 -4 -58 10 0 4 34 17 76 29 69 21
75 24 69 45 -19 64 -100 101 -161 73z m70 -52 c27 -10 18 -21 -29 -37 -42 -15
-45 -15 -45 2 0 34 35 50 74 35z"/>
<path d="M12455 9542 c-46 -21 -65 -55 -65 -111 0 -75 79 -126 156 -101 38 13
40 18 20 45 -9 12 -20 16 -35 12 -25 -6 -51 0 -51 13 0 4 33 17 74 29 l75 22
-10 28 c-24 69 -94 95 -164 63z m84 -56 c10 -11 3 -17 -34 -29 -42 -15 -45
-15 -45 2 0 37 55 56 79 27z"/>
<path d="M4140 9440 l0 -110 35 0 35 0 0 110 0 110 -35 0 -35 0 0 -110z"/>
<path d="M4314 9531 c-37 -22 -58 -75 -48 -117 15 -65 86 -103 157 -83 41 11
42 12 25 38 -9 14 -20 18 -42 14 -61 -9 -94 50 -52 92 22 22 29 23 53 14 22
-8 30 -7 40 7 18 24 16 31 -6 44 -31 16 -93 12 -127 -9z"/>
<path d="M4714 9531 c-37 -22 -58 -75 -48 -117 15 -65 86 -103 157 -83 41 11
42 12 25 38 -9 14 -20 18 -42 14 -61 -9 -94 50 -52 92 22 22 29 23 53 14 22
-8 30 -7 40 7 18 24 16 31 -6 44 -31 16 -93 12 -127 -9z"/>
<path d="M5060 9440 l0 -110 35 0 35 0 0 110 0 110 -35 0 -35 0 0 -110z"/>
<path d="M6464 9531 c-37 -22 -58 -75 -48 -117 15 -65 86 -103 157 -83 41 11
42 12 25 38 -9 14 -20 18 -42 14 -61 -9 -94 50 -52 92 22 22 29 23 53 14 22
-8 30 -7 40 7 18 24 16 31 -6 44 -31 16 -93 12 -127 -9z"/>
<path d="M6980 9455 c0 -82 3 -98 20 -115 26 -26 70 -26 104 1 21 17 26 18 26
5 0 -12 10 -16 35 -16 l36 0 -3 108 -3 107 -32 3 -33 3 0 -51 c0 -71 -23 -122
-52 -118 -22 3 -23 8 -26 86 l-3 82 -34 0 -35 0 0 -95z"/>
<path d="M7270 9440 l0 -110 35 0 35 0 0 110 0 110 -35 0 -35 0 0 -110z"/>
<path d="M7630 9440 l0 -110 35 0 35 0 0 110 0 110 -35 0 -35 0 0 -110z"/>
<path d="M7970 9441 l0 -111 35 0 36 0 -3 108 -3 107 -32 3 -33 3 0 -110z"/>
<path d="M9457 9543 c-4 -3 -7 -43 -7 -88 0 -68 4 -87 21 -109 24 -31 72 -35
109 -9 17 12 25 13 28 5 2 -7 17 -12 33 -12 l29 0 0 110 0 110 -35 0 -35 0 0
-63 c0 -68 -18 -107 -49 -107 -25 0 -31 19 -31 101 l0 69 -28 0 c-16 0 -32 -3
-35 -7z"/>
<path d="M11399 9498 c17 -29 46 -79 63 -110 18 -32 35 -58 38 -58 6 0 120
203 120 214 0 3 -16 6 -36 6 -33 0 -37 -3 -58 -52 l-23 -53 -27 53 c-25 50
-28 52 -67 52 l-41 0 31 -52z"/>
<path d="M11670 9441 l0 -111 35 0 36 0 -3 108 -3 107 -32 3 -33 3 0 -110z"/>
<path d="M12050 9540 c0 -17 83 -210 91 -210 3 0 18 27 32 60 15 33 29 60 32
60 3 0 20 -29 37 -65 17 -37 32 -65 33 -63 4 4 95 219 95 224 0 2 -15 4 -33 4
-31 0 -35 -4 -47 -41 -8 -22 -17 -42 -20 -44 -4 -3 -15 16 -25 40 -15 40 -20
45 -47 45 -23 0 -29 -4 -24 -15 6 -16 -12 -65 -25 -65 -4 0 -14 18 -23 40 -14
34 -20 40 -46 40 -16 0 -30 -5 -30 -10z"/>
<path d="M8886 9330 c-21 -54 -20 -60 9 -60 19 0 28 9 45 46 11 26 20 48 20
50 0 2 -13 4 -29 4 -24 0 -31 -6 -45 -40z"/>
<path d="M6140 8835 l0 -195 35 0 35 0 0 195 0 195 -35 0 -35 0 0 -195z"/>
<path d="M7380 8939 c0 -79 -2 -90 -16 -85 -66 25 -125 11 -155 -38 -37 -61
-14 -146 47 -172 32 -14 42 -14 80 -1 24 8 44 10 44 6 0 -5 16 -9 35 -9 l35 0
0 195 0 195 -35 0 -35 0 0 -91z m-18 -146 c46 -41 -2 -120 -58 -95 -13 7 -29
23 -36 36 -24 55 48 101 94 59z"/>
<path d="M8500 8835 l0 -195 35 0 c34 0 35 1 35 39 0 56 12 57 40 5 23 -42 27
-44 68 -44 l43 0 -41 59 c-22 33 -40 64 -40 68 0 4 16 19 35 32 34 23 35 25
19 42 -22 25 -24 25 -78 -16 l-46 -36 0 121 0 120 -35 0 -35 0 0 -195z"/>
<path d="M9200 8941 l0 -90 -31 11 c-72 25 -149 -30 -149 -106 0 -56 18 -88
63 -110 36 -17 41 -17 78 -3 21 8 39 11 39 6 0 -5 16 -9 35 -9 l35 0 0 195 0
195 -35 0 -35 0 0 -89z m-12 -143 c7 -7 12 -29 12 -50 0 -32 -4 -40 -26 -48
-35 -14 -41 -13 -64 10 -24 24 -26 57 -3 82 18 20 63 24 81 6z"/>
<path d="M11350 8835 l0 -195 35 0 35 0 0 59 c0 69 6 88 30 101 39 21 50 3 50
-81 l0 -79 35 0 35 0 0 94 c0 91 -1 95 -27 116 -31 24 -74 22 -105 -7 -17 -15
-18 -12 -18 85 l0 102 -35 0 -35 0 0 -195z"/>
<path d="M11919 9001 c-25 -26 -29 -37 -29 -85 0 -49 -2 -56 -20 -56 -16 0
-20 -7 -20 -30 0 -23 4 -30 20 -30 18 0 20 -7 20 -80 l0 -80 35 0 35 0 0 80 0
80 30 0 c27 0 30 3 30 30 0 27 -3 30 -31 30 l-30 0 3 53 c3 49 4 52 30 52 34
-1 61 40 38 55 -31 20 -81 11 -111 -19z"/>
<path d="M2767 9003 c-4 -3 -7 -87 -7 -185 l0 -178 35 0 35 0 0 185 0 185 -28
0 c-16 0 -32 -3 -35 -7z"/>
<path d="M7757 9004 c-4 -4 -7 -88 -7 -186 l0 -178 125 0 125 0 0 35 0 35 -85
0 -84 0 -3 148 -3 147 -30 3 c-17 2 -34 0 -38 -4z"/>
<path d="M9360 8826 l0 -186 35 0 35 0 -2 183 -3 182 -32 3 -33 3 0 -185z"/>
<path d="M8072 8958 c-20 -20 -14 -47 12 -54 32 -8 46 2 46 31 0 32 -35 46
-58 23z"/>
<path d="M3450 8905 c0 -33 -4 -45 -15 -45 -10 0 -15 -10 -15 -30 0 -20 5 -30
15 -30 12 0 15 -16 15 -80 l0 -80 35 0 35 0 0 79 c0 79 0 80 28 83 21 2 27 8
27 28 0 20 -6 26 -27 28 -26 3 -28 7 -28 48 0 44 0 44 -35 44 -35 0 -35 0 -35
-45z"/>
<path d="M11170 8905 c0 -33 -4 -45 -15 -45 -10 0 -15 -10 -15 -30 0 -20 5
-30 15 -30 12 0 15 -16 15 -80 l0 -80 35 0 35 0 0 79 c0 79 0 80 28 83 21 2
27 8 27 28 0 20 -6 26 -27 28 -26 3 -28 7 -28 48 0 44 0 44 -35 44 -35 0 -35
0 -35 -45z"/>
<path d="M3034 8860 c-12 -5 -25 -13 -29 -19 -9 -16 -25 -13 -25 4 0 10 -10
15 -30 15 l-30 0 0 -110 0 -110 35 0 35 0 0 59 c0 69 6 88 30 101 39 21 50 3
50 -81 l0 -79 35 0 35 0 0 94 c0 90 -1 96 -26 115 -29 22 -46 25 -80 11z"/>
<path d="M3250 8857 c-13 -7 -31 -24 -39 -38 -13 -24 -13 -29 2 -53 10 -14 33
-32 52 -40 19 -8 35 -20 35 -26 0 -19 -29 -23 -54 -7 -22 15 -25 15 -41 -2
-15 -18 -15 -20 7 -35 13 -9 43 -16 70 -16 60 0 88 24 88 75 0 32 -4 37 -46
58 -52 24 -55 42 -9 42 62 0 73 29 18 44 -48 14 -53 13 -83 -2z"/>
<path d="M3664 8851 c-38 -23 -59 -77 -51 -128 12 -69 77 -106 141 -79 20 8
36 11 36 5 0 -5 16 -9 35 -9 l35 0 0 110 0 110 -29 0 c-17 0 -32 -4 -36 -9 -3
-6 -17 -4 -33 5 -36 19 -61 18 -98 -5z m107 -51 c14 -8 19 -21 19 -51 0 -32
-4 -41 -25 -51 -56 -25 -105 35 -71 87 17 26 45 32 77 15z"/>
<path d="M3979 8855 c-14 -8 -34 -25 -43 -39 -21 -32 -21 -105 0 -135 32 -46
111 -60 152 -28 19 15 27 0 14 -28 -15 -33 -58 -43 -96 -21 -29 17 -30 17 -48
-6 -17 -22 -17 -24 3 -40 51 -43 153 -29 193 25 19 25 21 42 21 150 l0 122
-32 3 c-18 2 -33 -1 -33 -7 0 -6 -14 -4 -35 5 -42 17 -63 17 -96 -1z m109 -61
c45 -31 16 -104 -42 -104 -48 0 -73 64 -39 102 20 22 51 23 81 2z"/>
<path d="M4360 8853 c-14 -9 -30 -24 -37 -33 -11 -13 -12 -11 -13 13 0 23 -4
27 -30 27 l-30 0 0 -110 0 -110 30 0 c27 0 30 3 30 33 0 62 19 109 50 120 18
7 30 20 33 36 7 36 -4 44 -33 24z"/>
<path d="M4500 8863 c-81 -30 -102 -165 -33 -210 30 -20 96 -22 118 -3 10 9
15 9 15 1 0 -6 16 -11 35 -11 l35 0 0 110 0 110 -29 0 c-16 0 -31 -5 -33 -12
-3 -8 -11 -7 -28 5 -24 17 -52 20 -80 10z m84 -66 c13 -9 17 -23 14 -52 -2
-33 -8 -41 -31 -49 -23 -8 -31 -6 -48 11 -53 53 5 134 65 90z"/>
<path d="M4860 8863 c-8 -3 -23 -12 -32 -21 -16 -14 -18 -13 -18 1 0 12 -9 17
-30 17 l-30 0 0 -110 0 -110 35 0 35 0 0 68 c0 56 4 72 20 87 34 31 50 5 50
-81 l0 -74 35 0 35 0 0 65 c0 52 4 69 21 86 34 34 44 19 47 -69 l3 -82 34 0
35 0 0 91 c0 50 -4 99 -10 109 -16 30 -67 36 -101 11 l-29 -21 -20 20 c-19 19
-49 24 -80 13z"/>
<path d="M5507 8846 c-35 -24 -36 -24 -42 -5 -4 13 -15 19 -36 19 l-29 0 0
-110 0 -110 35 0 35 0 0 55 c0 46 4 60 25 80 13 14 31 25 40 25 11 0 15 10 15
35 0 19 -2 35 -4 35 -2 0 -19 -11 -39 -24z"/>
<path d="M5645 8852 c-46 -21 -65 -55 -65 -111 0 -75 79 -126 156 -101 38 13
40 18 20 45 -9 12 -20 16 -35 12 -25 -6 -51 0 -51 13 0 4 33 17 74 29 l75 22
-10 28 c-24 69 -94 95 -164 63z m84 -56 c10 -11 3 -17 -34 -29 -42 -15 -45
-15 -45 2 0 37 55 56 79 27z"/>
<path d="M5923 8855 c-36 -16 -73 -68 -73 -103 0 -79 78 -134 159 -112 l41 11
-15 30 c-13 25 -19 28 -36 19 -21 -12 -67 -3 -53 10 5 4 39 17 77 30 37 12 67
26 67 31 0 27 -35 72 -65 85 -42 17 -61 17 -102 -1z m84 -61 c2 -7 -17 -19
-42 -27 -47 -16 -53 -11 -34 24 7 15 19 19 41 17 17 -2 33 -8 35 -14z"/>
<path d="M6644 8851 c-38 -23 -59 -77 -51 -128 12 -69 77 -106 141 -79 20 8
36 11 36 5 0 -5 16 -9 35 -9 l35 0 0 110 0 110 -29 0 c-17 0 -32 -4 -36 -9 -3
-6 -17 -4 -33 5 -36 19 -61 18 -98 -5z m107 -51 c14 -8 19 -21 19 -51 0 -32
-4 -41 -25 -51 -56 -25 -105 35 -71 87 17 26 45 32 77 15z"/>
<path d="M7030 8863 c-8 -3 -22 -12 -31 -20 -14 -12 -17 -12 -23 2 -4 11 -15
15 -33 13 l-28 -3 -3 -107 -3 -108 36 0 35 0 0 53 c0 56 15 94 43 111 30 18
47 -17 47 -96 l0 -68 36 0 36 0 -4 95 c-2 67 -7 99 -18 109 -17 18 -68 28 -90
19z"/>
<path d="M8320 8863 c-8 -3 -22 -12 -31 -20 -14 -12 -17 -12 -22 2 -4 9 -19
15 -37 15 l-30 0 0 -110 0 -110 34 0 34 0 4 71 c3 56 8 74 23 85 40 29 50 15
53 -74 l3 -82 34 0 35 0 0 93 c0 98 -3 108 -37 126 -23 12 -39 13 -63 4z"/>
<path d="M8835 8863 c-37 -10 -73 -43 -85 -78 -30 -91 54 -171 152 -144 42 11
43 12 27 41 -8 16 -17 19 -42 14 -31 -5 -68 6 -51 16 5 3 40 15 77 28 66 21
68 23 62 49 -9 35 -24 52 -62 68 -33 13 -44 14 -78 6z m60 -72 c0 -14 -74 -46
-83 -36 -3 2 3 16 12 30 13 19 24 25 44 23 15 -2 27 -9 27 -17z"/>
<path d="M9630 8863 c-8 -3 -22 -12 -31 -20 -14 -12 -17 -12 -22 2 -4 9 -19
15 -37 15 l-30 0 0 -110 0 -110 34 0 34 0 4 71 c3 56 8 74 23 85 40 29 50 15
53 -74 l3 -82 34 0 35 0 0 93 c0 98 -3 108 -37 126 -23 12 -39 13 -63 4z"/>
<path d="M10070 8848 c-22 -15 -40 -38 -49 -64 -13 -37 -12 -44 5 -80 13 -26
32 -45 57 -58 36 -17 41 -17 78 -3 l40 16 -3 -26 c-4 -37 -49 -51 -93 -30 -31
15 -34 14 -49 -2 -23 -26 -20 -35 19 -54 43 -21 85 -22 129 -3 59 24 66 45 66
189 l0 128 -47 -2 c-27 -1 -64 1 -83 5 -28 6 -42 3 -70 -16z m111 -48 c14 -8
19 -21 19 -50 0 -29 -5 -42 -19 -50 -32 -17 -58 -11 -80 17 -44 55 16 117 80
83z"/>
<path d="M10460 8853 c-14 -9 -30 -24 -37 -33 -11 -13 -12 -11 -13 13 0 23 -4
27 -30 27 l-30 0 0 -110 0 -110 30 0 c27 0 30 3 30 33 0 62 19 109 50 120 18
7 30 20 33 36 7 36 -4 44 -33 24z"/>
<path d="M10595 8856 c-50 -23 -70 -52 -70 -106 0 -37 6 -54 24 -74 93 -99
259 -6 207 117 -25 62 -101 91 -161 63z m93 -78 c28 -59 -40 -118 -80 -68 -22
27 -23 49 -2 78 22 31 64 26 82 -10z"/>
<path d="M12193 8850 c-18 -11 -33 -25 -34 -32 -1 -7 -4 -2 -8 12 -5 19 -13
25 -36 25 l-30 0 -3 -107 -3 -108 36 0 c35 0 35 0 35 44 0 63 15 96 50 109 25
9 30 17 30 44 0 18 -1 33 -2 33 -2 0 -18 -9 -35 -20z"/>
<path d="M12325 8851 c-44 -19 -65 -53 -65 -102 0 -81 74 -132 159 -109 54 14
81 51 81 109 0 55 -20 88 -66 107 -43 18 -61 17 -109 -5z m86 -51 c24 -13 26
-72 3 -94 -49 -49 -114 34 -67 86 18 20 36 23 64 8z"/>
<path d="M12657 8850 c-21 -17 -26 -18 -31 -5 -3 9 -18 15 -36 15 l-30 0 0
-110 0 -110 34 0 34 0 4 71 c3 56 8 74 23 85 32 24 40 11 43 -74 l3 -82 33 0
33 0 6 66 c3 49 10 72 25 87 18 17 23 18 36 7 12 -9 16 -32 16 -86 l0 -74 35
0 35 0 0 90 c0 83 -2 93 -25 115 -29 30 -50 31 -91 6 -29 -18 -31 -18 -53 0
-30 24 -62 24 -94 -1z"/>
<path d="M8060 8750 l0 -110 35 0 35 0 0 110 0 110 -35 0 -35 0 0 -110z"/>
<path d="M10790 8850 c0 -17 83 -210 91 -210 3 0 18 27 32 60 15 33 29 60 32
60 3 0 20 -29 37 -65 17 -37 32 -65 33 -63 4 4 95 219 95 224 0 2 -15 4 -33 4
-31 0 -35 -4 -47 -41 -8 -22 -17 -42 -20 -44 -4 -3 -15 16 -25 40 -15 40 -20
45 -47 45 -23 0 -29 -4 -24 -15 6 -16 -12 -65 -25 -65 -4 0 -14 18 -23 40 -14
34 -20 40 -46 40 -16 0 -30 -5 -30 -10z"/>
<path d="M6261 8643 c-7 -21 -15 -44 -17 -50 -4 -9 4 -13 24 -13 25 0 31 6 46
43 21 56 21 57 -12 57 -24 0 -31 -6 -41 -37z"/>
<path d="M4885 8328 c-35 -21 -44 -42 -45 -100 0 -51 -2 -58 -20 -58 -15 0
-20 -7 -20 -29 0 -20 6 -30 20 -34 18 -5 20 -14 20 -81 l0 -76 35 0 35 0 0 80
0 80 30 0 c27 0 30 3 30 30 0 27 -3 30 -31 30 l-30 0 3 53 c3 48 5 52 31 55
25 3 55 37 44 49 -12 11 -84 13 -102 1z"/>
<path d="M5300 8145 l0 -195 35 0 35 0 0 195 0 195 -35 0 -35 0 0 -195z"/>
<path d="M5440 8145 l0 -195 35 0 35 0 0 195 0 195 -35 0 -35 0 0 -195z"/>
<path d="M6964 8274 c-10 -30 -9 -37 4 -41 18 -7 52 31 52 58 0 13 -7 19 -23
19 -17 0 -25 -9 -33 -36z"/>
<path d="M7034 8274 c-10 -30 -9 -37 4 -41 18 -7 52 31 52 58 0 13 -7 19 -23
19 -17 0 -25 -9 -33 -36z"/>
<path d="M2801 8267 c-80 -40 -92 -201 -21 -280 26 -29 33 -32 89 -32 53 0 63
4 91 30 73 70 62 230 -20 279 -33 19 -105 21 -139 3z m113 -79 c10 -13 16 -43
16 -73 0 -63 -20 -95 -60 -95 -40 0 -60 32 -60 95 0 63 20 95 60 95 18 0 34
-8 44 -22z"/>
<path d="M3850 8245 c0 -24 5 -35 15 -35 13 0 15 -21 15 -130 l0 -130 35 0 35
0 0 165 0 165 -50 0 -50 0 0 -35z"/>
<path d="M4078 8264 c-15 -8 -35 -29 -44 -46 -22 -42 -22 -154 0 -196 50 -97
193 -96 237 1 38 85 13 209 -50 241 -38 20 -107 20 -143 0z m106 -60 c38 -15
43 -136 6 -169 -26 -24 -72 -16 -88 15 -16 30 -11 122 7 144 14 16 47 21 75
10z"/>
<path d="M4388 8264 c-15 -8 -35 -29 -44 -46 -22 -42 -22 -154 0 -196 50 -97
193 -96 237 1 38 85 13 209 -50 241 -38 20 -107 20 -143 0z m106 -60 c38 -15
43 -136 6 -169 -26 -24 -72 -16 -88 15 -16 30 -11 122 7 144 14 16 47 21 75
10z"/>
<path d="M3240 8215 c0 -33 -4 -45 -15 -45 -10 0 -15 -10 -15 -30 0 -20 5 -30
15 -30 12 0 15 -16 15 -80 l0 -80 35 0 35 0 0 79 c0 79 0 80 28 83 21 2 27 8
27 28 0 20 -6 26 -27 28 -26 3 -28 7 -28 48 0 44 0 44 -35 44 -35 0 -35 0 -35
-45z"/>
<path d="M3475 8166 c-50 -23 -70 -52 -70 -106 0 -37 6 -54 24 -74 93 -99 259
-6 207 117 -25 62 -101 91 -161 63z m93 -78 c28 -59 -40 -118 -80 -68 -22 27
-23 49 -2 78 22 31 64 26 82 -10z"/>
<path d="M5075 8166 c-50 -23 -70 -52 -70 -106 0 -37 6 -54 24 -74 93 -99 259
-6 207 117 -25 62 -101 91 -161 63z m93 -78 c28 -59 -40 -118 -80 -68 -22 27
-23 49 -2 78 22 31 64 26 82 -10z"/>
<path d="M5630 8163 c-44 -22 -74 -80 -65 -122 28 -129 221 -127 241 1 7 41
-15 97 -46 115 -36 23 -92 25 -130 6z m100 -75 c13 -25 13 -31 0 -55 -29 -52
-93 -34 -93 25 0 64 62 84 93 30z"/>
<path d="M6243 8165 c-36 -16 -73 -68 -73 -103 0 -79 78 -134 159 -112 l41 11
-15 30 c-13 25 -19 28 -36 19 -21 -12 -67 -3 -53 10 5 4 39 17 77 30 37 12 67
26 67 31 0 27 -35 72 -65 85 -42 17 -61 17 -102 -1z m84 -61 c2 -7 -17 -19
-42 -27 -47 -16 -53 -11 -34 24 7 15 19 19 41 17 17 -2 33 -8 35 -14z"/>
<path d="M6573 8160 c-18 -11 -33 -25 -34 -32 -1 -7 -4 -2 -8 12 -5 19 -13 25
-36 25 l-30 0 -3 -107 -3 -108 36 0 c35 0 35 0 35 44 0 63 15 96 50 109 25 9
30 17 30 44 0 18 -1 33 -2 33 -2 0 -18 -9 -35 -20z"/>
<path d="M6703 8170 c-28 -11 -45 -44 -41 -78 2 -21 14 -32 48 -50 25 -12 46
-26 48 -31 6 -17 -30 -21 -58 -6 -27 14 -30 14 -40 -6 -7 -11 -10 -22 -8 -24
18 -15 55 -25 92 -25 36 0 48 5 65 26 38 48 19 96 -45 113 -15 4 -29 12 -32
19 -6 18 28 27 49 14 15 -10 20 -8 29 7 14 27 14 28 -21 40 -37 13 -56 13 -86
1z"/>
<path d="M5830 8163 c0 -5 21 -57 47 -117 l47 -109 31 69 32 69 35 -69 34 -68
47 108 c26 60 47 113 47 117 0 5 -15 7 -32 5 -28 -3 -35 -9 -49 -48 l-17 -45
-22 48 c-18 40 -25 47 -50 47 -21 0 -28 -4 -24 -14 3 -7 -1 -29 -9 -47 l-14
-34 -21 48 c-18 41 -25 47 -51 47 -17 0 -31 -3 -31 -7z"/>
<path d="M6867 8014 c-15 -16 -7 -53 14 -59 30 -10 58 19 43 43 -12 18 -45 28
-57 16z"/>
<path d="M4955 6248 c-2 -13 -11 -84 -20 -158 -8 -74 -18 -152 -21 -172 -6
-38 -6 -38 30 -38 34 0 35 1 41 48 8 64 29 109 55 117 36 11 42 -6 33 -89 l-9
-77 35 3 36 3 9 89 c10 97 5 115 -36 130 -20 7 -36 4 -67 -11 l-41 -20 5 36
c3 20 9 64 14 99 l8 62 -33 0 c-27 0 -35 -5 -39 -22z"/>
<path d="M6540 6258 c0 -7 -9 -85 -20 -172 -27 -214 -27 -206 14 -206 33 0 33
0 39 57 7 62 33 108 63 108 17 0 19 -8 17 -82 l-1 -83 33 0 c36 0 34 -6 51
135 7 66 -9 90 -64 90 -26 0 -48 -7 -63 -20 l-22 -20 7 65 c4 36 10 82 13 103
6 37 6 37 -31 37 -22 0 -36 -5 -36 -12z"/>
<path d="M8177 6238 c-4 -18 -13 -96 -22 -173 -9 -77 -18 -150 -21 -162 -4
-20 0 -23 31 -23 41 0 38 -9 60 185 9 77 18 155 22 173 5 31 4 32 -30 32 -31
0 -35 -3 -40 -32z"/>
<path d="M10505 6248 c-2 -13 -11 -84 -20 -158 -8 -74 -18 -152 -21 -172 -6
-38 -6 -38 29 -38 41 0 37 -13 62 210 9 74 18 145 20 158 5 19 1 22 -30 22
-28 0 -36 -4 -40 -22z"/>
<path d="M11577 6238 c-4 -18 -13 -96 -22 -173 -9 -77 -18 -150 -21 -162 -4
-20 0 -23 30 -23 37 0 46 12 46 61 0 43 25 96 49 104 38 12 44 -2 36 -86 l-6
-79 34 0 34 0 11 88 c9 72 8 91 -4 109 -20 31 -54 37 -99 19 l-38 -16 7 72 c4
40 10 83 13 96 5 20 1 22 -30 22 -31 0 -35 -3 -40 -32z"/>
<path d="M4180 6255 c0 -5 -11 -92 -23 -192 l-23 -183 37 0 36 0 13 106 12
106 114 -113 c63 -63 114 -111 114 -109 1 3 11 86 24 185 13 99 20 184 16 188
-4 5 -20 7 -36 5 -28 -3 -29 -6 -36 -68 -4 -36 -11 -85 -14 -110 l-6 -45 -114
120 c-63 66 -114 116 -114 110z"/>
<path d="M6285 6236 c-143 -53 -169 -274 -40 -340 44 -22 122 -26 167 -8 25
10 26 13 16 45 l-11 35 -35 -15 c-29 -12 -44 -13 -74 -4 -48 15 -68 44 -68
101 0 95 73 150 155 116 40 -17 41 -17 66 26 21 38 -105 70 -176 44z"/>
<path d="M8580 6243 c-1 -5 -11 -88 -24 -185 l-22 -178 37 0 c37 0 38 0 44 48
10 72 10 72 60 72 87 0 138 51 138 138 0 76 -58 110 -185 112 -27 0 -48 -3
-48 -7z m148 -85 c17 -17 15 -48 -5 -70 -22 -24 -98 -26 -89 -2 3 9 6 31 6 50
0 33 1 34 38 34 21 0 43 -5 50 -12z"/>
<path d="M10850 6118 c-40 -73 -86 -157 -103 -185 l-29 -53 36 0 c32 0 38 5
53 35 16 35 18 35 80 35 62 0 62 0 71 -32 7 -30 12 -33 51 -36 33 -2 42 0 39
10 -3 7 -29 91 -58 186 -29 94 -56 172 -60 172 -3 0 -39 -60 -80 -132z m80
-95 c0 -8 -13 -13 -35 -13 l-35 0 21 43 22 42 13 -30 c7 -16 13 -36 14 -42z"/>
<path d="M4592 6198 c-21 -21 -14 -47 15 -54 19 -5 30 -2 39 11 26 36 -22 75
-54 43z"/>
<path d="M9074 6196 c-11 -28 1 -51 25 -51 28 0 47 25 38 49 -8 20 -56 21 -63
2z"/>
<path d="M9749 6194 c-17 -21 0 -49 31 -49 31 0 48 28 31 49 -8 9 -21 16 -31
16 -10 0 -23 -7 -31 -16z"/>
<path d="M11864 6196 c-11 -28 1 -51 25 -51 28 0 47 25 38 49 -8 20 -56 21
-63 2z"/>
<path d="M5856 6146 c-5 -32 -12 -45 -26 -49 -24 -6 -28 -57 -5 -57 16 0 17
-13 6 -102 l-7 -58 33 0 c38 0 39 2 48 92 6 63 8 67 33 70 21 2 28 9 30 31 3
23 0 27 -23 27 -25 0 -26 1 -19 45 l6 45 -35 0 c-33 0 -35 -2 -41 -44z"/>
<path d="M7150 6161 c0 -39 -9 -61 -25 -61 -7 0 -15 -10 -19 -22 -9 -34 -8
-38 10 -38 14 0 15 -10 9 -80 l-7 -80 35 0 35 0 7 80 c7 80 7 80 36 80 26 0
29 4 29 30 0 25 -4 30 -24 30 -22 0 -23 3 -18 45 l5 45 -37 0 c-33 0 -36 -2
-36 -29z"/>
<path d="M7346 6168 c-3 -13 -6 -33 -6 -45 0 -16 -6 -23 -20 -23 -16 0 -20 -7
-20 -30 0 -21 5 -30 16 -30 13 0 15 -8 10 -40 -3 -22 -9 -58 -12 -80 l-6 -40
36 0 c38 0 36 -5 51 113 5 41 9 47 30 47 22 0 35 17 35 46 0 8 -10 14 -26 14
-26 0 -27 1 -21 45 l7 45 -34 0 c-26 0 -35 -5 -40 -22z"/>
<path d="M12020 6161 c0 -39 -9 -61 -25 -61 -7 0 -15 -10 -19 -22 -9 -34 -8
-38 10 -38 14 0 15 -10 9 -80 l-7 -80 35 0 35 0 7 80 c7 80 7 80 36 80 26 0
29 4 29 30 0 25 -4 30 -24 30 -22 0 -23 3 -18 45 l5 45 -37 0 c-33 0 -36 -2
-36 -29z"/>
<path d="M12730 6161 c0 -39 -9 -61 -25 -61 -7 0 -15 -10 -19 -22 -9 -34 -8
-38 10 -38 14 0 15 -10 9 -80 l-7 -80 35 0 35 0 7 80 c7 80 7 80 36 80 26 0
29 4 29 30 0 25 -4 30 -24 30 -22 0 -23 3 -18 45 l5 45 -37 0 c-33 0 -36 -2
-36 -29z"/>
<path d="M4750 6103 c-32 -12 -50 -37 -50 -68 0 -34 17 -53 63 -73 15 -6 27
-16 27 -21 0 -17 -33 -21 -61 -7 -25 12 -30 12 -44 -4 -15 -17 -15 -19 7 -34
13 -9 43 -16 71 -16 103 0 133 98 41 136 -19 8 -34 19 -34 24 0 17 27 23 48
11 15 -8 23 -6 37 9 16 17 16 19 -2 28 -25 14 -85 22 -103 15z"/>
<path d="M5270 6092 c-88 -44 -90 -180 -2 -213 15 -6 36 -4 62 5 22 8 40 10
40 5 0 -5 15 -9 34 -9 39 0 41 6 52 140 l7 80 -32 0 c-17 0 -31 -5 -31 -10 0
-6 -13 -4 -30 5 -37 19 -57 19 -100 -3z m103 -56 c28 -29 -4 -106 -45 -106
-31 0 -61 38 -53 68 11 48 66 69 98 38z"/>
<path d="M5637 6091 c-30 -15 -37 -16 -37 -4 0 10 -9 13 -32 11 -33 -3 -33 -4
-40 -68 -4 -36 -10 -84 -13 -107 l-6 -43 35 0 c34 0 35 1 41 48 8 64 29 109
55 117 37 12 43 -6 33 -89 l-9 -76 32 0 c18 0 35 4 38 8 3 5 8 49 12 99 6 87
6 91 -17 107 -30 21 -46 20 -92 -3z"/>
<path d="M6854 6091 c-47 -29 -64 -59 -64 -114 0 -38 5 -53 25 -72 13 -14 32
-25 42 -26 37 -2 68 3 82 14 11 9 15 9 18 0 3 -7 19 -13 37 -13 l33 0 7 68 c4
37 10 86 13 110 6 42 5 42 -25 42 -17 0 -33 -4 -37 -9 -3 -6 -17 -4 -33 5 -36
19 -61 18 -98 -5z m104 -53 c30 -30 -2 -108 -45 -108 -46 0 -69 66 -36 102 18
20 63 24 81 6z"/>
<path d="M7890 6092 c-88 -44 -90 -180 -2 -213 15 -6 36 -4 62 5 22 8 40 10
40 5 0 -5 15 -9 34 -9 39 0 41 6 52 140 l7 80 -32 0 c-17 0 -31 -5 -31 -10 0
-6 -13 -4 -30 5 -37 19 -57 19 -100 -3z m103 -56 c28 -29 -4 -106 -45 -106
-31 0 -61 38 -53 68 11 48 66 69 98 38z"/>
<path d="M8956 6085 c-35 -24 -36 -24 -36 -4 0 17 -5 20 -32 17 -33 -3 -33 -4
-40 -68 -4 -36 -10 -84 -13 -107 l-6 -43 35 0 c35 0 35 0 42 52 8 55 46 108
78 108 9 0 16 8 16 19 0 11 3 26 6 35 9 23 -8 20 -50 -9z"/>
<path d="M9320 6103 c-8 -3 -22 -12 -31 -20 -14 -12 -17 -12 -22 2 -4 9 -18
15 -35 15 -33 0 -34 -4 -48 -147 l-7 -73 35 0 35 0 6 56 c6 58 27 101 54 111
28 11 40 -21 32 -79 -13 -89 -13 -88 25 -88 32 0 34 2 40 43 17 121 17 142 4
159 -14 19 -64 31 -88 21z"/>
<path d="M9985 6101 c-11 -5 -39 -7 -62 -4 -24 3 -43 4 -43 2 0 -2 -9 -74 -20
-159 -11 -85 -20 -156 -20 -157 0 -2 15 -3 34 -3 34 0 35 0 41 54 l7 54 31 -9
c40 -11 97 4 125 34 28 29 44 83 37 118 -12 53 -82 91 -130 70z m43 -63 c21
-21 15 -75 -10 -92 -43 -30 -88 -9 -88 41 0 51 65 84 98 51z"/>
<path d="M10220 6092 c-88 -44 -90 -180 -2 -213 15 -6 36 -4 62 5 22 8 40 10
40 5 0 -5 15 -9 34 -9 39 0 41 6 52 140 l7 80 -32 0 c-17 0 -31 -5 -31 -10 0
-6 -13 -4 -30 5 -37 19 -57 19 -100 -3z m103 -56 c28 -29 -4 -106 -45 -106
-31 0 -61 38 -53 68 11 48 66 69 98 38z"/>
<path d="M11250 6102 c-8 -3 -27 -14 -42 -24 -28 -19 -28 -19 -28 1 0 16 -6
21 -29 21 -32 0 -33 -4 -47 -147 l-7 -73 37 0 c35 0 36 1 36 35 0 56 25 105
60 118 40 15 59 82 20 69z"/>
<path d="M12235 6096 c-52 -23 -70 -52 -70 -112 0 -41 5 -58 21 -74 27 -28 86
-41 129 -29 32 9 34 11 23 35 -9 19 -17 24 -34 20 -25 -7 -54 1 -54 14 0 5 34
16 75 26 48 11 75 23 75 31 0 30 -33 75 -65 89 -42 17 -61 17 -100 0z m80 -65
c0 -8 -19 -19 -42 -26 -35 -11 -43 -11 -43 0 0 23 31 46 59 43 14 -2 26 -9 26
-17z"/>
<path d="M4575 6088 c-5 -17 -25 -164 -25 -189 0 -15 7 -19 34 -19 37 0 34 -9
52 158 l7 62 -32 0 c-17 0 -34 -6 -36 -12z"/>
<path d="M7484 6085 c3 -8 17 -54 32 -102 15 -49 30 -92 34 -96 4 -5 24 22 45
59 l38 67 25 -68 c30 -80 23 -84 105 67 l48 88 -33 0 c-31 0 -36 -5 -58 -47
l-23 -48 -15 48 c-14 41 -19 47 -44 47 -22 0 -28 -5 -28 -22 -1 -21 -21 -58
-32 -58 -3 0 -10 18 -17 40 -11 37 -15 40 -47 40 -28 0 -35 -3 -30 -15z"/>
<path d="M9057 6063 c-4 -21 -9 -71 -13 -110 l-7 -73 35 0 35 0 7 73 c4 39 10
89 13 110 6 37 5 37 -29 37 -33 0 -36 -2 -41 -37z"/>
<path d="M9505 6067 c-31 -31 -35 -41 -35 -85 0 -57 29 -95 80 -106 34 -6 88
2 96 15 11 19 -15 46 -40 42 -39 -8 -66 13 -66 51 0 44 20 60 69 53 30 -4 44
-1 56 13 14 16 14 18 0 30 -9 8 -41 15 -70 18 -52 4 -56 3 -90 -31z"/>
<path d="M9737 6093 c-3 -5 -8 -39 -11 -78 -4 -38 -10 -85 -13 -102 -5 -32 -4
-33 30 -33 40 0 41 3 53 143 l7 77 -31 0 c-17 0 -33 -3 -35 -7z"/>
<path d="M11325 6067 c-31 -31 -35 -41 -35 -85 0 -57 29 -95 80 -106 34 -6 88
2 96 15 11 19 -15 46 -40 42 -39 -8 -66 13 -66 51 0 44 20 60 69 53 30 -4 44
-1 56 13 14 16 14 18 0 30 -9 8 -41 15 -70 18 -52 4 -56 3 -90 -31z"/>
<path d="M11847 6063 c-4 -21 -9 -71 -13 -110 l-7 -73 35 0 35 0 7 73 c4 39
10 89 13 110 6 37 5 37 -29 37 -33 0 -36 -2 -41 -37z"/>
<path d="M12475 6067 c-66 -66 -51 -158 29 -185 39 -12 101 -8 111 9 3 4 0 17
-6 28 -10 15 -20 18 -45 14 -27 -4 -35 -1 -50 22 -16 25 -16 30 -3 54 13 22
22 26 60 26 24 0 50 4 57 8 36 24 -11 57 -79 57 -33 0 -48 -7 -74 -33z"/>
<path d="M3730 5990 l0 -31 78 3 c76 3 77 3 80 31 l3 27 -80 0 -81 0 0 -30z"/>
<path d="M8254 5830 c-9 -32 -8 -40 3 -45 25 -9 32 -6 48 26 20 38 13 59 -18
59 -18 0 -25 -8 -33 -40z"/>
<path d="M12854 5830 c-9 -32 -8 -40 3 -45 25 -9 32 -6 48 26 20 38 13 59 -18
59 -18 0 -25 -8 -33 -40z"/>
<path d="M8656 5428 c-9 -84 -20 -172 -23 -195 l-6 -43 35 0 36 0 7 58 c8 66
18 87 46 102 15 9 24 8 35 0 14 -12 13 -26 -2 -127 -5 -32 -4 -33 29 -33 40 0
42 5 53 120 5 65 4 78 -11 90 -26 21 -89 18 -116 -5 l-22 -20 6 40 c3 22 9 68
13 103 l7 62 -35 0 -34 0 -18 -152z"/>
<path d="M8966 5543 c-3 -21 -13 -96 -21 -168 -9 -71 -17 -142 -20 -157 -4
-26 -2 -28 30 -28 19 0 35 4 35 9 0 5 17 3 38 -5 102 -40 199 75 147 175 -24
47 -75 60 -140 34 -16 -6 -17 0 -11 53 4 32 10 74 13 92 5 31 4 32 -30 32 -33
0 -36 -2 -41 -37z m146 -208 c27 -59 -35 -115 -87 -81 -20 13 -23 22 -19 49 8
39 28 57 66 57 21 0 32 -7 40 -25z"/>
<path d="M12456 5563 c-3 -10 -8 -51 -12 -91 -5 -58 -10 -72 -21 -68 -62 24
-118 12 -158 -35 -72 -87 19 -224 116 -175 16 8 29 10 29 5 0 -5 16 -9 35 -9
19 0 35 3 35 8 0 12 39 324 45 355 4 25 2 27 -30 27 -23 0 -35 -5 -39 -17z
m-43 -218 c22 -21 7 -76 -25 -94 -23 -13 -29 -13 -52 2 -48 32 -24 107 35 107
15 0 34 -7 42 -15z"/>
<path d="M8040 5553 c-1 -5 -11 -88 -24 -185 l-22 -178 37 0 37 0 9 72 c4 39
13 73 19 75 7 2 31 -30 55 -71 l44 -76 47 0 47 0 -59 95 c-33 52 -60 98 -60
102 0 5 34 42 75 83 41 41 75 78 75 82 0 5 -17 8 -37 8 -33 0 -46 -9 -111 -72
l-74 -73 7 73 7 72 -36 0 c-20 0 -36 -3 -36 -7z"/>
<path d="M9747 5553 c-6 -9 -47 -311 -47 -345 0 -16 11 -18 88 -18 63 0 98 6
127 19 131 59 155 240 44 323 -27 21 -202 38 -212 21z m179 -94 c29 -27 37
-61 24 -108 -15 -57 -50 -83 -115 -89 -41 -3 -55 -1 -55 9 0 22 21 193 26 208
7 20 92 6 120 -20z"/>
<path d="M11588 5553 c-15 -3 -41 -17 -58 -33 -25 -23 -30 -36 -30 -73 0 -48
8 -58 90 -110 45 -29 51 -62 15 -79 -21 -9 -33 -9 -58 1 -59 23 -63 23 -80 -3
-17 -25 -17 -26 25 -47 32 -17 54 -20 100 -17 73 5 107 34 115 96 5 37 2 45
-28 74 -19 18 -49 41 -67 50 -84 45 -28 102 63 64 32 -14 34 -13 49 9 9 14 16
26 16 28 0 6 -73 35 -100 40 -14 2 -37 2 -52 0z"/>
<path d="M10604 5506 c-11 -28 1 -51 25 -51 28 0 47 25 38 49 -8 20 -56 21
-63 2z"/>
<path d="M12589 5504 c-17 -21 0 -49 31 -49 31 0 48 28 31 49 -8 9 -21 16 -31
16 -10 0 -23 -7 -31 -16z"/>
<path d="M11806 5456 c-5 -32 -12 -45 -26 -49 -24 -6 -28 -57 -5 -57 16 0 17
-13 6 -102 l-7 -58 33 0 c38 0 39 2 48 92 6 63 8 67 33 70 21 2 28 9 30 31 3
23 0 27 -23 27 -25 0 -26 1 -19 45 l6 45 -35 0 c-33 0 -35 -2 -41 -44z"/>
<path d="M8393 5405 c-63 -27 -91 -112 -58 -175 22 -42 87 -56 136 -29 13 6
19 6 19 -1 0 -5 15 -10 34 -10 l33 0 12 88 c16 130 16 132 -18 132 -17 0 -33
-5 -36 -10 -4 -7 -14 -5 -28 5 -26 18 -52 19 -94 0z m95 -57 c17 -17 15 -68
-5 -90 -33 -36 -93 -8 -93 44 0 43 69 75 98 46z"/>
<path d="M9303 5405 c-63 -27 -91 -112 -58 -175 22 -42 87 -56 136 -29 13 6
19 6 19 -1 0 -5 15 -10 34 -10 l33 0 12 88 c16 130 16 132 -18 132 -17 0 -33
-5 -36 -10 -4 -7 -14 -5 -28 5 -26 18 -52 19 -94 0z m95 -57 c17 -17 15 -68
-5 -90 -33 -36 -93 -8 -93 44 0 43 69 75 98 46z"/>
<path d="M10153 5413 c-32 -6 -79 -56 -86 -90 -12 -64 28 -131 82 -135 43 -3
85 2 94 11 15 15 -12 52 -36 50 -83 -7 -73 14 18 35 60 14 75 21 75 36 0 28
-19 64 -39 77 -23 14 -78 22 -108 16z m66 -67 c15 -18 6 -23 -49 -32 -44 -7
-46 -4 -17 34 13 16 52 15 66 -2z"/>
<path d="M10399 5409 c-31 -11 -54 -58 -44 -88 3 -12 24 -30 46 -41 21 -11 39
-25 39 -31 0 -19 -30 -21 -56 -4 -25 16 -27 16 -43 0 -15 -15 -14 -18 8 -36
35 -28 111 -26 139 4 24 26 29 70 10 87 -7 6 -28 20 -47 31 -25 15 -31 23 -22
32 8 8 19 8 40 0 21 -8 32 -8 40 0 20 20 11 36 -26 46 -44 13 -49 13 -84 0z"/>
<path d="M10773 5405 c-91 -39 -95 -174 -6 -212 32 -13 41 -13 75 0 36 15 38
14 38 -3 0 -22 -36 -50 -65 -50 -11 0 -31 7 -44 16 -22 16 -24 15 -48 -8 l-24
-25 27 -18 c57 -37 148 -29 193 19 18 19 26 47 37 123 7 54 14 113 14 131 0
29 -3 32 -30 32 -16 0 -30 -4 -30 -9 0 -6 -12 -3 -27 5 -35 17 -69 17 -110 -1z
m108 -61 c29 -35 -5 -104 -52 -104 -22 0 -59 34 -59 54 0 7 9 25 21 40 24 30
69 35 90 10z"/>
<path d="M11147 5401 c-30 -15 -37 -16 -37 -4 0 10 -9 13 -32 11 -33 -3 -33
-4 -40 -68 -4 -36 -10 -84 -13 -107 l-6 -43 35 0 c34 0 35 1 41 48 8 64 29
109 55 117 37 12 43 -6 33 -89 l-9 -76 32 0 c18 0 35 4 38 8 3 5 8 49 12 99 6
87 6 91 -17 107 -30 21 -46 20 -92 -3z"/>
<path d="M12764 5406 c-47 -21 -74 -62 -74 -111 0 -54 28 -91 81 -105 82 -22
159 33 159 114 0 50 -21 83 -66 102 -41 17 -60 17 -100 0z m77 -56 c26 -15 26
-71 -1 -95 -32 -29 -74 -10 -78 34 -5 54 34 85 79 61z"/>
<path d="M10587 5373 c-4 -21 -9 -71 -13 -110 l-7 -73 35 0 35 0 7 73 c4 39
10 89 13 110 6 37 5 37 -29 37 -33 0 -36 -2 -41 -37z"/>
<path d="M11976 5402 c-3 -5 -8 -49 -12 -98 -6 -77 -4 -92 10 -107 22 -21 58
-22 96 -2 17 9 30 11 30 5 0 -5 15 -10 34 -10 l33 0 12 88 c17 133 17 134 -21
130 -31 -3 -32 -5 -43 -69 -12 -75 -28 -101 -59 -97 -20 3 -21 8 -18 86 l4 82
-31 0 c-16 0 -32 -4 -35 -8z"/>
<path d="M12577 5403 c-3 -5 -8 -39 -11 -78 -4 -38 -10 -85 -13 -102 -5 -32
-4 -33 30 -33 40 0 41 3 53 143 l7 77 -31 0 c-17 0 -33 -3 -35 -7z"/>
<path d="M13965 2479 c-11 -21 -15 -42 -10 -63 8 -41 8 -63 0 -114 -7 -40 -6
-44 29 -77 l38 -35 -30 -48 c-20 -32 -35 -46 -47 -44 -51 10 -175 -47 -175
-80 0 -6 -12 -24 -27 -42 -14 -17 -32 -46 -40 -64 -13 -31 -12 -38 8 -78 11
-25 39 -59 60 -76 21 -17 39 -39 39 -48 0 -37 39 -48 92 -25 23 9 36 -21 20
-46 -18 -28 -14 -57 8 -71 11 -7 20 -24 20 -38 0 -14 11 -37 24 -52 l25 -26
-15 -93 c-10 -65 -20 -97 -31 -104 -52 -31 -63 -52 -63 -119 l0 -65 -61 -58
c-67 -63 -119 -136 -119 -166 0 -12 14 2 40 39 22 33 64 86 94 119 l53 60 39
-27 c22 -15 60 -36 87 -47 28 -12 47 -27 47 -37 0 -8 -25 -44 -55 -77 -30 -34
-55 -67 -55 -73 0 -16 112 -147 130 -152 8 -2 -3 14 -24 37 -22 22 -37 43 -34
46 3 4 18 -10 33 -29 15 -20 32 -36 38 -36 6 0 31 19 54 42 24 23 43 37 43 31
0 -6 -20 -27 -46 -48 -25 -20 -42 -40 -39 -43 6 -6 121 103 136 130 6 12 -2
31 -37 78 -51 70 -53 94 -9 97 140 12 289 54 380 108 l43 25 63 -90 c35 -50
65 -86 67 -81 5 15 -25 66 -73 126 -44 54 -45 56 -45 128 0 59 -4 77 -18 90
-16 15 -18 25 -11 75 37 271 30 587 -15 743 l-24 83 34 38 c38 42 44 80 20
127 -13 25 -13 30 5 57 19 29 25 78 13 108 -12 30 -42 17 -70 -29 -22 -39 -33
-47 -81 -61 -45 -13 -57 -21 -71 -50 l-16 -35 -56 8 c-58 8 -114 7 -167 -2
-27 -5 -34 -2 -50 26 -10 17 -39 42 -65 55 -42 21 -47 28 -50 61 -4 50 -31 56
-53 12z m45 -21 c0 -24 5 -50 10 -58 6 -10 10 -11 10 -3 0 22 65 -16 84 -49
10 -16 16 -31 14 -32 -1 -1 -19 -12 -39 -24 l-36 -22 -11 23 c-11 20 -11 20
-5 -7 8 -38 -13 -26 -33 18 -7 17 -13 23 -14 14 0 -9 12 -30 26 -47 24 -29 27
-61 5 -61 -13 0 -61 59 -61 75 0 8 5 26 10 40 10 27 11 27 37 9 24 -15 23 -12
-10 26 -40 47 -47 82 -21 118 23 33 34 27 34 -20z m624 26 c12 -31 6 -72 -15
-95 -17 -20 -20 -21 -14 -5 3 11 -14 -2 -37 -29 -45 -50 -56 -70 -57 -95 0 -8
7 1 15 20 8 19 24 45 36 57 18 19 22 20 35 8 7 -8 18 -28 24 -44 12 -35 2 -60
-44 -108 -30 -32 -48 -85 -21 -62 26 21 53 -170 54 -376 0 -161 -19 -490 -31
-521 -21 -58 -387 -157 -415 -113 -4 7 -22 9 -48 5 -34 -5 -50 -1 -94 25 -45
25 -53 34 -48 52 3 12 11 54 17 93 l13 72 47 5 c84 10 170 58 259 144 71 68
86 89 89 126 1 5 5 6 10 2 5 -3 13 0 17 6 5 8 3 9 -6 4 -10 -6 -12 -4 -6 11
18 45 16 46 -7 4 -32 -58 -102 -137 -138 -156 -16 -8 -29 -12 -29 -9 0 2 -17
-4 -37 -14 -80 -41 -195 -35 -228 12 -27 38 -19 45 60 49 41 2 79 8 86 15 8 8
-1 8 -36 1 -53 -11 -123 -4 -151 16 -17 13 -17 17 -4 41 11 20 12 33 3 56 -9
24 -9 29 3 29 17 0 36 -44 32 -74 -3 -19 3 -21 47 -24 103 -7 133 4 200 71 63
63 107 141 120 209 7 35 8 36 37 26 21 -7 33 -7 40 0 8 8 6 11 -8 11 -10 1
-37 3 -59 7 -24 3 -35 2 -28 -3 10 -7 10 -20 -1 -61 -18 -70 -57 -126 -111
-157 -68 -41 -113 -43 -196 -10 -75 29 -94 48 -104 107 -7 34 -5 36 25 43 60
13 138 102 123 141 -10 27 -102 64 -163 65 -94 1 -26 18 77 18 50 1 103 5 116
10 46 18 61 112 21 128 -21 8 -71 -44 -79 -82 -5 -25 -3 -23 13 12 34 71 81
79 82 14 0 -20 -2 -22 -16 -10 -14 11 -18 10 -30 -6 -8 -10 -12 -27 -8 -37 5
-16 -1 -18 -40 -18 l-46 0 33 62 c36 71 72 107 104 108 15 0 23 7 25 22 4 26
31 36 109 37 91 2 149 -9 150 -28 0 -9 11 7 24 36 22 49 27 53 79 68 45 13 59
23 72 48 30 59 47 71 58 41z m-781 -617 c22 -11 37 -26 37 -37 0 -9 7 -36 15
-59 14 -41 14 -43 -10 -67 -33 -33 -52 -30 -69 11 -8 19 -19 35 -25 35 -19 0
-82 88 -87 122 -4 25 1 43 22 74 l27 42 26 -51 c18 -36 37 -57 64 -70z m315
-212 c-28 -24 -94 -40 -139 -33 -23 3 -23 4 9 21 18 10 36 15 41 13 5 -3 28 1
52 8 62 20 68 19 37 -9z m446 -447 c-15 -18 -15 -20 -1 -9 15 12 17 11 17 -12
0 -74 -8 -86 -94 -127 -102 -49 -215 -79 -328 -87 l-88 -6 0 52 c0 28 5 51 10
51 6 0 9 6 8 12 -2 9 24 15 92 19 157 11 370 92 370 142 0 20 1 20 17 4 16
-15 15 -18 -3 -39z m-653 19 c-6 -8 -7 -18 -3 -22 4 -5 1 -5 -5 -1 -7 4 -13 3
-13 -2 0 -13 58 -57 102 -78 34 -16 34 -16 30 -73 -2 -31 -6 -57 -7 -59 -6 -6
-76 28 -120 58 -40 28 -45 35 -45 70 0 21 4 41 10 45 5 3 30 -10 55 -30 26
-19 52 -35 58 -35 7 0 -4 11 -24 23 -52 32 -89 64 -89 75 0 10 39 41 54 41 5
1 3 -5 -3 -12z m174 -129 c-23 -21 -26 -30 -27 -100 -2 -78 -12 -100 -24 -53
-10 38 0 141 15 159 8 9 24 16 38 16 l24 0 -26 -22z m25 -148 c0 -5 -2 -10 -4
-10 -3 0 -8 5 -11 10 -3 6 -1 10 4 10 6 0 11 -4 11 -10z m29 -76 c28 -37 51
-72 51 -79 0 -6 -9 -20 -20 -30 -15 -13 -20 -15 -20 -4 0 7 -22 -8 -49 -35
l-48 -47 -49 53 c-27 29 -43 46 -36 37 25 -32 10 -33 -18 0 l-29 34 28 36 c39
48 81 87 81 74 0 -6 -7 -16 -15 -23 -9 -7 -30 -32 -47 -54 -29 -37 -30 -39 -5
-17 19 17 27 20 27 10 1 -10 3 -9 11 4 14 24 33 22 19 -2 -7 -13 -7 -22 0 -26
13 -8 13 -65 0 -65 -6 0 -9 12 -8 26 2 17 -2 28 -12 31 -10 3 -11 2 -4 -4 6
-4 11 -19 10 -33 -2 -36 28 -33 32 4 2 16 -1 33 -7 39 -7 7 -7 16 0 29 14 26
3 35 -21 20 -33 -20 -23 4 15 37 36 31 51 39 40 21 -3 -5 0 -10 7 -10 19 0 91
-99 84 -116 -3 -8 -1 -14 3 -14 5 0 11 6 14 13 3 10 -18 42 -96 145 -6 8 -6
12 1 12 5 0 33 -30 61 -66z"/>
<path d="M14580 2317 c0 -21 -59 -89 -71 -81 -5 3 -9 -2 -9 -11 0 -12 4 -14
19 -5 37 19 82 92 67 107 -3 4 -6 -1 -6 -10z"/>
<path d="M14228 2300 c-31 -19 -22 -39 15 -33 24 4 37 0 51 -16 21 -23 56 -28
56 -8 0 39 -87 78 -122 57z"/>
<path d="M14207 2202 c-10 -10 -17 -25 -17 -33 0 -8 6 -3 13 11 19 37 68 39
96 4 28 -36 27 -68 -5 -93 -15 -12 -22 -21 -15 -21 18 0 51 39 51 60 0 29 -26
76 -45 84 -30 11 -62 6 -78 -12z"/>
<path d="M14190 2131 c0 -26 27 -52 46 -44 9 3 14 15 12 32 -2 20 -9 27 -30
29 -22 3 -28 -1 -28 -17z"/>
<path d="M14215 2050 c12 -19 72 -22 101 -5 16 9 20 13 9 10 -46 -16 -56 -17
-85 -6 -17 5 -28 6 -25 1z"/>
<path d="M14247 1533 c-4 -3 -7 -11 -7 -17 0 -6 5 -5 12 2 6 6 9 14 7 17 -3 3
-9 2 -12 -2z"/>
<path d="M14524 1154 c-18 -14 -18 -14 6 -3 31 14 36 19 24 19 -6 0 -19 -7
-30 -16z"/>
<path d="M14220 1080 l-65 -7 60 0 c33 -1 71 3 85 7 30 10 15 10 -80 0z"/>
<path d="M14105 837 c-4 -18 -5 -51 -2 -72 3 -34 4 -32 5 15 1 30 7 62 12 70
8 13 14 10 35 -15 13 -16 24 -33 25 -37 0 -3 -12 -21 -27 -40 l-27 -33 32 29
c18 17 32 34 32 39 0 18 -51 77 -65 77 -8 0 -17 -14 -20 -33z"/>
<path d="M14133 805 c4 -8 2 -17 -3 -20 -6 -4 -10 -14 -10 -23 0 -11 6 -7 19
13 19 30 18 45 -1 45 -5 0 -8 -7 -5 -15z"/>
<path d="M1653 1560 c-88 -54 -83 -192 9 -251 26 -16 45 -19 87 -16 48 3 58 8
93 45 34 37 38 47 38 92 0 96 -52 150 -145 150 -32 0 -62 -7 -82 -20z"/>
<path d="M2085 1549 c-104 -92 -38 -259 103 -259 100 0 174 120 127 209 -8 16
-28 40 -45 55 -26 22 -41 26 -90 26 -52 0 -64 -4 -95 -31z"/>
<path d="M2548 1563 c-14 -9 -36 -33 -47 -54 -72 -127 62 -266 195 -203 49 24
74 70 74 139 0 53 -3 60 -39 96 -36 37 -42 39 -97 39 -37 0 -69 -7 -86 -17z"/>
</g>
</svg>
