<?xml version="1.0" standalone="no"?>
<!DOCTYPE svg PUBLIC "-//W3C//DTD SVG 20010904//EN"
 "http://www.w3.org/TR/2001/REC-SVG-20010904/DTD/svg10.dtd">
<svg version="1.0" xmlns="http://www.w3.org/2000/svg"
 width="1587.000000pt" height="2245.000000pt" viewBox="0 0 1587.000000 2245.000000"
 preserveAspectRatio="xMidYMid meet">

<g transform="translate(0.000000,2245.000000) scale(0.100000,-0.100000)"
fill="#000000" stroke="none">
<path d="M7606 20850 c-723 -90 -1342 -598 -1565 -1285 -76 -231 -85 -297 -86
-585 0 -228 2 -267 23 -370 102 -502 388 -928 817 -1214 263 -176 600 -291
893 -303 l122 -6 0 -478 c0 -472 0 -479 20 -479 20 0 20 7 20 475 l0 475 28 0
c114 1 348 23 433 40 662 134 1208 619 1419 1260 74 225 85 302 85 595 -1 233
-3 271 -23 365 -171 783 -750 1348 -1533 1496 -97 19 -541 28 -653 14z"/>
<path d="M7435 15551 c-47 -12 -72 -28 -102 -68 -26 -34 -28 -43 -31 -154 l-4
-118 -36 -3 -37 -3 -3 -62 -3 -62 38 -3 38 -3 3 -157 3 -158 69 0 70 0 0 160
0 160 65 0 65 0 0 65 0 65 -65 0 -65 0 0 95 c0 82 3 98 20 115 22 22 51 26 80
10 15 -8 22 -3 44 34 14 25 26 49 26 55 0 22 -124 45 -175 32z"/>
<path d="M5660 15135 l0 -375 75 0 75 0 0 120 0 120 81 0 c98 0 146 13 194 52
48 41 77 100 83 175 6 77 -11 139 -50 187 -59 71 -146 96 -340 96 l-118 0 0
-375z m331 196 c22 -23 29 -39 29 -70 0 -88 -40 -121 -145 -121 l-65 0 0 110
0 110 76 0 c70 0 78 -2 105 -29z"/>
<path d="M8220 15493 c-98 -34 -171 -108 -213 -217 -23 -60 -28 -199 -10 -261
20 -67 75 -147 128 -187 72 -55 133 -73 240 -73 80 0 97 4 158 32 l68 32 -14
28 c-8 15 -22 45 -30 65 l-16 38 -50 -26 c-111 -58 -246 -26 -306 71 -25 40
-31 61 -33 124 -3 68 -1 82 25 131 40 77 94 113 176 118 53 3 70 -1 119 -25
l56 -29 26 65 c31 77 28 82 -57 110 -75 26 -201 28 -267 4z"/>
<path d="M6519 15200 c-20 -10 -50 -35 -67 -54 -29 -33 -30 -33 -36 -13 -3 12
-6 32 -6 45 0 21 -4 22 -65 22 l-65 0 0 -220 0 -220 70 0 70 0 0 93 c0 50 5
109 10 129 14 50 70 98 115 98 33 0 35 2 35 33 0 17 3 49 6 70 6 32 4 37 -12
37 -11 -1 -35 -9 -55 -20z"/>
<path d="M6780 15199 c-80 -36 -125 -96 -136 -183 -20 -145 89 -266 241 -266
85 0 131 16 181 62 56 52 78 108 72 192 -8 134 -100 216 -242 216 -50 0 -84
-7 -116 -21z m161 -105 c32 -16 59 -66 59 -110 0 -72 -64 -131 -129 -118 -81
16 -113 140 -54 207 35 38 77 46 124 21z"/>
<path d="M8815 15196 c-96 -44 -139 -120 -133 -232 3 -61 8 -79 34 -116 41
-59 100 -90 184 -96 66 -4 162 16 175 38 3 5 -8 31 -25 59 -30 49 -31 49 -58
35 -38 -19 -95 -18 -122 4 -23 19 -23 19 126 66 82 26 154 49 161 51 18 6 -10
90 -45 134 -64 81 -193 106 -297 57z m155 -96 c11 -6 24 -19 30 -29 9 -18 2
-22 -73 -47 -45 -15 -88 -29 -94 -32 -27 -9 -14 58 16 89 31 31 83 39 121 19z"/>
<path d="M9345 15206 c-96 -43 -120 -166 -45 -229 16 -14 53 -33 82 -42 63
-21 78 -31 78 -55 0 -38 -79 -41 -132 -5 l-37 25 -30 -39 -31 -39 29 -21 c98
-70 228 -66 303 9 35 34 38 42 38 92 0 83 -21 103 -155 150 -45 15 -58 44 -29
65 23 17 52 16 88 -2 39 -21 41 -20 67 21 18 30 20 38 8 49 -38 35 -175 47
-234 21z"/>
<path d="M9790 15201 c-55 -29 -83 -76 -77 -134 6 -63 40 -99 128 -132 69 -27
88 -47 68 -71 -18 -22 -78 -16 -124 11 l-42 24 -26 -36 c-30 -43 -26 -52 37
-86 57 -30 176 -31 225 -2 55 32 76 69 76 130 0 46 -4 58 -29 84 -16 17 -52
38 -80 47 -57 18 -96 40 -96 54 0 18 32 40 58 40 15 0 41 -9 59 -19 l31 -20
26 39 c14 22 26 42 26 45 0 3 -19 15 -42 25 -58 26 -170 27 -218 1z"/>
<path d="M7680 14990 l0 -60 95 0 95 0 0 60 0 60 -95 0 -95 0 0 -60z"/>
<path d="M6340 13665 l0 -195 35 0 35 0 0 195 0 195 -35 0 -35 0 0 -195z"/>
<path d="M7080 13665 l0 -195 58 0 c31 -1 70 -1 85 -2 66 -2 114 58 104 132
-10 79 -72 112 -159 86 l-28 -8 0 91 0 91 -30 0 -30 0 0 -195z m162 -42 c24
-21 23 -58 -2 -83 -22 -22 -42 -25 -71 -10 -22 12 -27 78 -7 98 17 17 58 15
80 -5z"/>
<path d="M7380 13665 l0 -195 35 0 35 0 0 195 0 195 -35 0 -35 0 0 -195z"/>
<path d="M8440 13769 c0 -89 0 -90 -22 -82 -86 31 -158 -18 -158 -106 0 -89
68 -139 144 -107 20 8 36 11 36 5 0 -5 16 -9 35 -9 l35 0 0 195 0 195 -35 0
-35 0 0 -91z m-12 -141 c7 -7 12 -27 12 -45 0 -24 -7 -37 -26 -50 -24 -15 -29
-15 -53 -2 -32 18 -40 68 -16 93 19 19 66 21 83 4z"/>
<path d="M8750 13769 c0 -89 0 -90 -22 -82 -86 31 -158 -18 -158 -106 0 -89
68 -139 144 -107 20 8 36 11 36 5 0 -5 16 -9 35 -9 l35 0 0 195 0 195 -35 0
-35 0 0 -91z m-12 -141 c7 -7 12 -27 12 -45 0 -24 -7 -37 -26 -50 -24 -15 -29
-15 -53 -2 -32 18 -40 68 -16 93 19 19 66 21 83 4z"/>
<path d="M11609 13831 c-25 -26 -29 -37 -29 -85 0 -49 -2 -56 -20 -56 -16 0
-20 -7 -20 -30 0 -23 4 -30 20 -30 18 0 20 -7 20 -80 l0 -80 35 0 35 0 0 80 0
80 30 0 c27 0 30 3 30 30 0 27 -3 30 -31 30 l-30 0 3 53 c3 49 4 52 30 52 34
-1 61 40 38 55 -31 20 -81 11 -111 -19z"/>
<path d="M2748 13823 c-9 -10 -19 -28 -22 -40 -6 -20 -4 -23 21 -23 23 0 30 6
39 35 9 27 8 35 -3 40 -19 7 -18 7 -35 -12z"/>
<path d="M2810 13813 c-28 -36 -25 -53 8 -53 22 0 29 6 38 34 9 30 8 35 -8 39
-11 3 -25 -4 -38 -20z"/>
<path d="M2930 13655 l0 -185 35 0 34 0 3 105 3 104 120 -109 c66 -60 123
-109 128 -110 4 0 6 84 5 188 l-3 187 -35 0 -35 0 -3 -108 -3 -109 -118 111
c-65 61 -121 111 -125 111 -3 0 -6 -83 -6 -185z"/>
<path d="M10780 13656 l0 -186 35 0 35 0 0 60 0 60 56 0 c48 0 60 4 84 28 56
56 47 157 -17 194 -19 12 -61 21 -112 25 l-81 6 0 -187z m171 78 c15 -42 -11
-74 -61 -74 l-40 0 0 50 0 50 45 0 c40 0 47 -3 56 -26z"/>
<path d="M12009 13817 c-131 -70 -119 -293 19 -338 41 -14 144 -8 165 9 21 18
0 76 -23 66 -24 -11 -88 -17 -115 -10 -14 4 -34 21 -45 39 -39 64 -15 150 50
177 28 12 39 12 76 -2 l43 -15 10 30 c13 37 9 44 -37 57 -57 15 -95 12 -143
-13z"/>
<path d="M3352 13791 c-8 -4 -12 -19 -10 -32 2 -19 9 -24 33 -24 33 0 45 25
25 50 -14 17 -29 19 -48 6z"/>
<path d="M3679 13784 c-9 -11 -10 -20 -2 -32 25 -41 86 -14 63 27 -13 25 -42
27 -61 5z"/>
<path d="M8899 13784 c-9 -11 -10 -20 -2 -32 25 -41 86 -14 63 27 -13 25 -42
27 -61 5z"/>
<path d="M9242 13791 c-8 -4 -12 -19 -10 -32 2 -19 9 -24 33 -24 33 0 45 25
25 50 -14 17 -29 19 -48 6z"/>
<path d="M3500 13736 c0 -35 -4 -45 -20 -49 -12 -3 -20 -14 -20 -27 0 -13 8
-24 20 -27 18 -5 20 -14 20 -84 l0 -79 35 0 35 0 0 80 c0 79 0 80 25 80 21 0
25 5 25 30 0 25 -4 30 -25 30 -23 0 -25 4 -25 45 0 45 0 45 -35 45 -35 0 -35
0 -35 -44z"/>
<path d="M9050 13735 c0 -33 -4 -45 -15 -45 -10 0 -15 -10 -15 -30 0 -20 5
-30 15 -30 12 0 15 -16 15 -80 l0 -80 35 0 35 0 0 79 c0 79 0 80 28 83 21 2
27 8 27 28 0 20 -6 26 -27 28 -26 3 -28 7 -28 48 0 44 0 44 -35 44 -35 0 -35
0 -35 -45z"/>
<path d="M10140 13736 c0 -35 -4 -45 -20 -49 -12 -3 -20 -14 -20 -27 0 -13 8
-24 20 -27 18 -5 20 -14 20 -84 l0 -79 35 0 35 0 0 80 c0 79 0 80 25 80 21 0
25 5 25 30 0 25 -4 30 -25 30 -23 0 -25 4 -25 45 0 45 0 45 -35 45 -35 0 -35
0 -35 -44z"/>
<path d="M3913 13680 c-27 -16 -33 -17 -33 -5 0 10 -10 15 -30 15 l-30 0 0
-110 0 -110 35 0 35 0 0 68 c0 57 4 72 21 88 15 14 24 16 37 8 13 -9 18 -29
20 -88 l3 -76 34 0 35 0 0 90 c0 83 -2 93 -25 115 -29 30 -59 31 -102 5z"/>
<path d="M4644 13681 c-38 -23 -59 -77 -51 -128 12 -69 77 -106 141 -79 20 8
36 11 36 5 0 -5 16 -9 35 -9 l35 0 0 110 0 110 -29 0 c-17 0 -32 -4 -36 -9 -3
-6 -17 -4 -33 5 -36 19 -61 18 -98 -5z m107 -51 c14 -8 19 -21 19 -51 0 -32
-4 -41 -25 -51 -56 -25 -105 35 -71 87 17 26 45 32 77 15z"/>
<path d="M4960 13693 c-31 -12 -50 -37 -50 -68 0 -35 20 -58 64 -72 17 -5 31
-14 33 -20 7 -19 -36 -26 -61 -9 -24 15 -46 6 -46 -21 0 -32 107 -46 147 -18
49 35 34 103 -29 121 -36 11 -52 44 -21 44 10 0 24 -4 32 -9 10 -7 19 -4 28 7
18 25 16 29 -18 41 -34 12 -55 13 -79 4z"/>
<path d="M5348 13684 c-60 -32 -78 -129 -33 -182 31 -36 75 -47 121 -27 19 8
34 10 34 4 0 -5 16 -9 35 -9 l35 0 0 110 0 110 -29 0 c-17 0 -32 -4 -36 -9 -3
-6 -17 -4 -33 5 -34 18 -60 17 -94 -2z m106 -60 c33 -32 8 -104 -36 -104 -25
0 -58 35 -58 62 0 49 61 76 94 42z"/>
<path d="M6078 13684 c-60 -32 -78 -129 -33 -182 31 -36 75 -47 121 -27 19 8
34 10 34 4 0 -5 16 -9 35 -9 l35 0 0 110 0 110 -29 0 c-17 0 -32 -4 -36 -9 -3
-6 -17 -4 -33 5 -34 18 -60 17 -94 -2z m106 -60 c33 -32 8 -104 -36 -104 -25
0 -58 35 -58 62 0 49 61 76 94 42z"/>
<path d="M6830 13693 c-81 -30 -102 -165 -33 -210 30 -20 96 -22 118 -3 10 9
15 9 15 1 0 -6 16 -11 35 -11 l35 0 0 110 0 110 -29 0 c-16 0 -31 -5 -33 -12
-3 -8 -11 -7 -28 5 -24 17 -52 20 -80 10z m84 -66 c13 -9 17 -23 14 -52 -2
-33 -8 -41 -31 -49 -23 -8 -31 -6 -48 11 -53 53 5 134 65 90z"/>
<path d="M7575 13682 c-46 -21 -65 -55 -65 -111 0 -75 79 -126 156 -101 38 13
40 18 20 45 -9 12 -20 16 -35 12 -25 -6 -51 0 -51 13 0 4 33 17 74 29 l75 22
-10 28 c-24 69 -94 95 -164 63z m84 -56 c10 -11 3 -17 -34 -29 -42 -15 -45
-15 -45 2 0 37 55 56 79 27z"/>
<path d="M8030 13693 c-81 -30 -102 -165 -33 -210 30 -20 96 -22 118 -3 10 9
15 9 15 1 0 -6 16 -11 35 -11 l35 0 0 110 0 110 -29 0 c-16 0 -31 -5 -33 -12
-3 -8 -11 -7 -28 5 -24 17 -52 20 -80 10z m84 -66 c13 -9 17 -23 14 -52 -2
-33 -8 -41 -31 -49 -23 -8 -31 -6 -48 11 -53 53 5 134 65 90z"/>
<path d="M9425 13686 c-50 -23 -70 -52 -70 -106 0 -37 6 -54 24 -74 93 -99
259 -6 207 117 -25 62 -101 91 -161 63z m93 -78 c28 -59 -40 -118 -80 -68 -22
27 -23 49 -2 78 22 31 64 26 82 -10z"/>
<path d="M9770 13693 c-8 -3 -22 -12 -31 -20 -14 -12 -17 -12 -22 2 -4 9 -19
15 -37 15 l-30 0 0 -110 0 -110 34 0 34 0 4 71 c3 56 8 74 23 85 40 29 50 15
53 -74 l3 -82 34 0 35 0 0 93 c0 98 -3 108 -37 126 -23 12 -39 13 -63 4z"/>
<path d="M10373 13689 c-47 -14 -73 -52 -73 -109 0 -60 26 -96 81 -110 112
-30 196 70 143 171 -15 30 -67 60 -101 58 -10 0 -32 -5 -50 -10z m79 -66 c22
-20 23 -61 1 -85 -33 -36 -83 -11 -83 42 0 52 45 76 82 43z"/>
<path d="M11187 13676 c-35 -24 -36 -24 -42 -5 -4 13 -15 19 -36 19 l-29 0 0
-110 0 -110 35 0 35 0 0 55 c0 46 4 60 25 80 13 14 31 25 40 25 11 0 15 10 15
35 0 19 -2 35 -4 35 -2 0 -19 -11 -39 -24z"/>
<path d="M11325 13681 c-44 -19 -65 -53 -65 -102 0 -81 74 -132 159 -109 54
14 81 51 81 109 0 55 -20 88 -66 107 -43 18 -61 17 -109 -5z m86 -51 c24 -13
26 -72 3 -94 -49 -49 -114 34 -67 86 18 20 36 23 64 8z"/>
<path d="M12345 13693 c-37 -10 -73 -43 -85 -78 -30 -91 54 -171 152 -144 42
11 43 12 27 41 -8 16 -17 19 -42 14 -31 -5 -68 6 -51 16 5 3 40 15 77 28 66
21 68 23 62 49 -9 35 -24 52 -62 68 -33 13 -44 14 -78 6z m60 -72 c0 -14 -74
-46 -83 -36 -3 2 3 16 12 30 13 19 24 25 44 23 15 -2 27 -9 27 -17z"/>
<path d="M12590 13693 c-31 -12 -50 -37 -50 -68 0 -35 20 -58 64 -72 17 -5 31
-14 33 -20 7 -19 -36 -26 -61 -9 -24 15 -46 6 -46 -21 0 -32 107 -46 147 -18
49 35 34 103 -29 121 -36 11 -52 44 -21 44 10 0 24 -4 32 -9 10 -7 19 -4 28 7
18 25 16 29 -18 41 -34 12 -55 13 -79 4z"/>
<path d="M12803 13690 c-28 -11 -45 -44 -41 -78 2 -21 14 -32 48 -50 25 -12
46 -26 48 -31 6 -17 -30 -21 -58 -6 -27 14 -30 14 -40 -6 -7 -11 -10 -22 -8
-24 18 -15 55 -25 92 -25 36 0 48 5 65 26 38 48 19 96 -45 113 -15 4 -29 12
-32 19 -6 18 28 27 49 14 15 -10 20 -8 29 7 14 27 14 28 -21 40 -37 13 -56 13
-86 1z"/>
<path d="M3340 13580 l0 -110 35 0 35 0 0 110 0 110 -35 0 -35 0 0 -110z"/>
<path d="M3677 13683 c-4 -3 -7 -53 -7 -110 l0 -103 35 0 35 0 0 110 0 110
-28 0 c-16 0 -32 -3 -35 -7z"/>
<path d="M4250 13687 c0 -2 22 -54 49 -117 l49 -114 32 70 32 69 35 -69 35
-69 40 94 c65 154 62 139 24 139 -30 0 -35 -4 -51 -47 l-18 -46 -24 46 c-19
38 -29 47 -49 47 -17 0 -24 -4 -21 -13 3 -7 -2 -29 -10 -48 l-15 -34 -20 48
c-19 43 -23 47 -54 47 -19 0 -34 -1 -34 -3z"/>
<path d="M5779 13638 c17 -29 46 -79 63 -110 18 -32 35 -58 38 -58 6 0 120
203 120 214 0 3 -16 6 -36 6 -33 0 -37 -3 -58 -52 l-23 -53 -27 53 c-25 50
-28 52 -67 52 l-41 0 31 -52z"/>
<path d="M6480 13595 c0 -82 3 -98 20 -115 30 -30 98 -22 122 14 5 7 8 4 8 -6
0 -14 8 -18 35 -18 l35 0 0 110 0 110 -35 0 -35 0 0 -63 c0 -72 -19 -110 -53
-105 -20 3 -22 10 -25 86 l-3 82 -34 0 -35 0 0 -95z"/>
<path d="M8897 13683 c-4 -3 -7 -53 -7 -110 l0 -103 35 0 35 0 0 110 0 110
-28 0 c-16 0 -32 -3 -35 -7z"/>
<path d="M9230 13580 l0 -110 35 0 35 0 0 110 0 110 -35 0 -35 0 0 -110z"/>
<path d="M11762 13583 c3 -26 7 -28 51 -31 46 -3 47 -3 47 27 0 30 -1 31 -51
31 -49 0 -50 -1 -47 -27z"/>
<path d="M2920 13079 c0 -79 -2 -90 -16 -85 -63 24 -121 12 -150 -32 -21 -32
-24 -100 -5 -135 8 -14 29 -33 48 -42 31 -15 39 -15 79 -2 24 8 44 10 44 6 0
-5 16 -9 35 -9 l35 0 0 195 0 195 -35 0 -35 0 0 -91z m-16 -145 c34 -33 6
-104 -40 -104 -43 0 -72 71 -44 105 16 20 64 19 84 -1z"/>
<path d="M4730 12975 l0 -195 35 0 35 0 0 68 c0 57 4 72 21 88 15 14 24 16 37
8 13 -9 18 -29 20 -88 l3 -76 34 0 35 0 0 90 c0 83 -2 93 -25 115 -29 30 -59
31 -102 5 l-33 -20 0 100 0 100 -30 0 -30 0 0 -195z"/>
<path d="M11060 12975 l0 -195 35 0 35 0 0 195 0 195 -35 0 -35 0 0 -195z"/>
<path d="M7498 13144 c-5 -4 -8 -88 -8 -187 l0 -179 96 4 c94 3 96 4 125 36
39 44 40 94 1 130 -28 26 -28 28 -10 46 18 19 24 69 12 101 -4 8 -19 22 -35
30 -32 17 -170 31 -181 19z m147 -94 c9 -30 -12 -50 -51 -50 -32 0 -34 2 -34
35 0 34 1 35 39 35 31 0 41 -4 46 -20z m13 -143 c11 -12 11 -19 3 -36 -9 -17
-21 -21 -56 -21 -44 0 -45 1 -45 33 0 19 3 37 8 41 11 11 73 -1 90 -17z"/>
<path d="M9900 12966 l0 -186 83 0 c66 0 92 5 127 23 104 52 129 187 53 278
-36 43 -73 56 -176 65 l-87 7 0 -187z m152 104 c49 -14 78 -52 78 -102 0 -77
-43 -118 -126 -118 l-34 0 0 115 c0 129 -1 128 82 105z"/>
<path d="M3559 13094 c-9 -11 -10 -20 -2 -32 25 -41 86 -14 63 27 -13 25 -42
27 -61 5z"/>
<path d="M5032 13101 c-8 -4 -12 -19 -10 -32 2 -19 9 -24 33 -24 33 0 45 25
25 50 -14 17 -29 19 -48 6z"/>
<path d="M8322 13098 c-20 -20 -14 -47 12 -54 32 -8 46 2 46 31 0 32 -35 46
-58 23z"/>
<path d="M12810 13045 c0 -33 -4 -45 -15 -45 -10 0 -15 -10 -15 -30 0 -20 5
-30 15 -30 12 0 15 -16 15 -80 l0 -80 35 0 35 0 0 79 c0 79 0 80 28 83 21 2
27 8 27 28 0 20 -6 26 -27 28 -26 3 -28 7 -28 48 0 44 0 44 -35 44 -35 0 -35
0 -35 -45z"/>
<path d="M3457 12986 c-35 -24 -36 -24 -42 -5 -4 13 -15 19 -36 19 l-29 0 0
-110 0 -110 35 0 35 0 0 55 c0 46 4 60 25 80 13 14 31 25 40 25 11 0 15 10 15
35 0 19 -2 35 -4 35 -2 0 -19 -11 -39 -24z"/>
<path d="M3810 13003 c-8 -3 -22 -12 -31 -20 -14 -12 -17 -12 -23 2 -4 11 -15
15 -33 13 l-28 -3 -3 -107 -3 -108 36 0 35 0 0 53 c0 56 15 94 43 111 30 18
47 -17 47 -96 l0 -68 36 0 36 0 -4 95 c-2 67 -7 99 -18 109 -17 18 -68 28 -90
19z"/>
<path d="M4045 13001 c-74 -32 -96 -133 -41 -190 36 -38 74 -46 120 -27 34 14
36 14 36 -4 0 -21 -35 -50 -60 -50 -8 0 -27 6 -42 14 -24 13 -28 12 -48 -9
l-21 -22 27 -18 c41 -26 104 -31 148 -10 56 27 66 55 66 195 l0 121 -47 -2
c-27 -1 -64 1 -83 4 -19 4 -44 3 -55 -2z m96 -61 c12 -7 19 -21 19 -42 0 -61
-59 -89 -100 -48 -52 52 14 125 81 90z"/>
<path d="M5200 12997 c-13 -7 -31 -24 -39 -38 -13 -24 -13 -29 2 -53 10 -14
33 -32 52 -40 19 -8 35 -20 35 -26 0 -19 -29 -23 -54 -7 -22 15 -25 15 -41 -2
-15 -18 -15 -20 7 -35 13 -9 43 -16 70 -16 60 0 88 24 88 75 0 32 -4 37 -46
58 -52 24 -55 42 -9 42 62 0 73 29 18 44 -48 14 -53 13 -83 -2z"/>
<path d="M5854 13000 c-73 -29 -88 -160 -25 -207 28 -20 72 -24 105 -8 19 10
32 12 34 5 2 -5 19 -10 38 -10 l35 0 -3 108 -3 107 -32 3 c-19 2 -33 -1 -33
-8 0 -6 -11 -5 -30 5 -32 17 -54 18 -86 5z m98 -67 c36 -32 12 -103 -35 -103
-30 0 -57 29 -57 61 0 52 53 77 92 42z"/>
<path d="M6143 12996 c-63 -28 -56 -97 13 -127 24 -11 44 -24 44 -29 0 -17
-22 -22 -51 -10 -23 10 -32 10 -45 -1 -15 -12 -14 -15 6 -31 34 -27 110 -24
138 5 42 45 23 94 -47 118 -42 15 -34 34 15 34 28 0 39 5 42 17 4 20 -3 25
-48 32 -21 4 -48 0 -67 -8z"/>
<path d="M6804 13000 c-73 -29 -88 -160 -25 -207 28 -20 72 -24 105 -8 19 10
32 12 34 5 2 -5 19 -10 38 -10 l35 0 -3 108 -3 107 -32 3 c-19 2 -33 -1 -33
-8 0 -6 -11 -5 -30 5 -32 17 -54 18 -86 5z m98 -67 c36 -32 12 -103 -35 -103
-30 0 -57 29 -57 61 0 52 53 77 92 42z"/>
<path d="M8130 12997 c-13 -7 -31 -24 -39 -38 -13 -24 -13 -29 2 -53 10 -14
33 -32 52 -40 19 -8 35 -20 35 -26 0 -19 -29 -23 -54 -7 -22 15 -25 15 -41 -2
-15 -18 -15 -20 7 -35 13 -9 43 -16 70 -16 60 0 88 24 88 75 0 32 -4 37 -46
58 -52 24 -55 42 -9 42 62 0 73 29 18 44 -48 14 -53 13 -83 -2z"/>
<path d="M8570 13003 c-8 -3 -22 -12 -31 -20 -14 -12 -17 -12 -23 2 -4 11 -15
15 -33 13 l-28 -3 -3 -107 -3 -108 36 0 35 0 0 53 c0 56 15 94 43 111 30 18
47 -17 47 -96 l0 -68 36 0 36 0 -4 95 c-2 67 -7 99 -18 109 -17 18 -68 28 -90
19z"/>
<path d="M8804 12996 c-70 -31 -94 -108 -54 -173 25 -41 84 -60 136 -43 37 13
40 20 22 49 -9 15 -16 17 -30 10 -19 -10 -58 -4 -58 10 0 4 34 17 76 29 69 21
75 24 69 45 -19 64 -100 101 -161 73z m70 -52 c27 -10 18 -21 -29 -37 -42 -15
-45 -15 -45 2 0 34 35 50 74 35z"/>
<path d="M9060 12997 c-13 -7 -31 -24 -39 -38 -13 -24 -13 -29 2 -53 10 -14
33 -32 52 -40 19 -8 35 -20 35 -26 0 -19 -29 -23 -54 -7 -22 15 -25 15 -41 -2
-15 -18 -15 -20 7 -35 13 -9 43 -16 70 -16 60 0 88 24 88 75 0 32 -4 37 -46
58 -52 24 -55 42 -9 42 62 0 73 29 18 44 -48 14 -53 13 -83 -2z"/>
<path d="M9280 12997 c-13 -7 -31 -24 -39 -38 -13 -24 -13 -29 2 -53 10 -14
33 -32 52 -40 19 -8 35 -20 35 -26 0 -19 -29 -23 -54 -7 -22 15 -25 15 -41 -2
-15 -18 -15 -20 7 -35 13 -9 43 -16 70 -16 60 0 88 24 88 75 0 32 -4 37 -46
58 -52 24 -55 42 -9 42 62 0 73 29 18 44 -48 14 -53 13 -83 -2z"/>
<path d="M10323 12995 c-36 -16 -73 -68 -73 -103 0 -79 78 -134 159 -112 l41
11 -15 30 c-13 25 -19 28 -36 19 -21 -12 -67 -3 -53 10 5 4 39 17 77 30 37 12
67 26 67 31 0 27 -35 72 -65 85 -42 17 -61 17 -102 -1z m84 -61 c2 -7 -17 -19
-42 -27 -47 -16 -53 -11 -34 24 7 15 19 19 41 17 17 -2 33 -8 35 -14z"/>
<path d="M10843 12995 c-36 -16 -73 -68 -73 -103 0 -79 78 -134 159 -112 l41
11 -15 30 c-13 25 -19 28 -36 19 -21 -12 -67 -3 -53 10 5 4 39 17 77 30 37 12
67 26 67 31 0 27 -35 72 -65 85 -42 17 -61 17 -102 -1z m84 -61 c2 -7 -17 -19
-42 -27 -47 -16 -53 -11 -34 24 7 15 19 19 41 17 17 -2 33 -8 35 -14z"/>
<path d="M11263 12999 c-47 -14 -73 -52 -73 -109 0 -60 26 -96 81 -110 112
-30 196 70 143 171 -15 30 -67 60 -101 58 -10 0 -32 -5 -50 -10z m79 -66 c22
-20 23 -61 1 -85 -33 -36 -83 -11 -83 42 0 52 45 76 82 43z"/>
<path d="M11585 12995 c-19 -10 -31 -12 -33 -6 -2 6 -17 11 -33 11 l-29 0 0
-160 0 -160 35 0 35 0 0 55 c0 30 2 55 4 55 3 0 17 -5 31 -10 37 -14 99 4 124
37 32 40 29 114 -6 153 -34 38 -85 48 -128 25z m63 -61 c44 -30 17 -104 -38
-104 -36 0 -50 17 -50 62 0 54 42 75 88 42z"/>
<path d="M11910 13003 c-8 -3 -23 -12 -32 -21 -16 -14 -18 -13 -18 1 0 12 -9
17 -30 17 l-30 0 0 -110 0 -110 35 0 35 0 0 68 c0 56 4 72 20 87 34 31 50 5
50 -81 l0 -74 35 0 35 0 0 65 c0 52 4 69 21 86 34 34 44 19 47 -69 l3 -82 34
0 35 0 0 91 c0 50 -4 99 -10 109 -16 30 -67 36 -101 11 l-29 -21 -20 20 c-19
19 -49 24 -80 13z"/>
<path d="M12275 12992 c-46 -21 -65 -55 -65 -111 0 -75 79 -126 156 -101 38
13 40 18 20 45 -9 12 -20 16 -35 12 -25 -6 -51 0 -51 13 0 4 33 17 74 29 l75
22 -10 28 c-24 69 -94 95 -164 63z m84 -56 c10 -11 3 -17 -34 -29 -42 -15 -45
-15 -45 2 0 37 55 56 79 27z"/>
<path d="M12614 13000 c-12 -5 -25 -13 -29 -19 -9 -16 -25 -13 -25 4 0 10 -10
15 -30 15 l-30 0 0 -110 0 -110 35 0 35 0 0 59 c0 69 6 88 30 101 39 21 50 3
50 -81 l0 -79 35 0 35 0 0 94 c0 90 -1 96 -26 115 -29 22 -46 25 -80 11z"/>
<path d="M3060 12905 c0 -82 3 -98 20 -115 30 -30 98 -22 122 14 5 7 8 4 8 -6
0 -14 8 -18 35 -18 l35 0 0 110 0 110 -35 0 -35 0 0 -63 c0 -72 -19 -110 -53
-105 -20 3 -22 10 -25 86 l-3 82 -34 0 -35 0 0 -95z"/>
<path d="M3557 12993 c-4 -3 -7 -53 -7 -110 l0 -103 35 0 35 0 0 110 0 110
-28 0 c-16 0 -32 -3 -35 -7z"/>
<path d="M5020 12890 l0 -110 35 0 35 0 0 110 0 110 -35 0 -35 0 0 -110z"/>
<path d="M7800 12905 c0 -82 3 -98 20 -115 30 -30 98 -22 122 14 5 7 8 4 8 -6
0 -14 8 -18 35 -18 l35 0 0 110 0 110 -35 0 -35 0 0 -63 c0 -72 -19 -110 -53
-105 -20 3 -22 10 -25 86 l-3 82 -34 0 -35 0 0 -95z"/>
<path d="M8310 12890 l0 -110 35 0 35 0 0 110 0 110 -35 0 -35 0 0 -110z"/>
<path d="M10510 12992 c0 -11 104 -190 119 -205 7 -7 121 184 121 205 0 4 -16
8 -35 8 -32 0 -36 -4 -56 -51 l-22 -50 -26 48 c-23 43 -30 48 -63 51 -21 2
-38 -1 -38 -6z"/>
<path d="M7220 12285 l0 -195 35 0 c34 0 35 1 35 39 0 56 12 57 40 5 23 -42
27 -44 68 -44 l43 0 -41 59 c-22 33 -40 64 -40 68 0 4 16 19 35 32 34 23 35
25 19 42 -22 25 -24 25 -78 -16 l-46 -36 0 121 0 120 -35 0 -35 0 0 -195z"/>
<path d="M10260 12285 l0 -195 35 0 c19 0 35 5 35 11 0 8 5 8 15 -1 8 -7 33
-13 55 -14 78 -2 132 74 110 156 -18 66 -88 93 -162 63 -16 -6 -18 1 -18 84
l0 91 -35 0 -35 0 0 -195z m169 -39 c21 -25 9 -79 -20 -95 -24 -13 -29 -13
-53 2 -32 21 -37 80 -8 96 25 15 68 13 81 -3z"/>
<path d="M11840 12391 l0 -90 -31 11 c-72 25 -149 -30 -149 -106 0 -56 18 -88
63 -110 36 -17 41 -17 78 -3 21 8 39 11 39 6 0 -5 16 -9 35 -9 l35 0 0 195 0
195 -35 0 -35 0 0 -89z m-12 -143 c7 -7 12 -29 12 -50 0 -32 -4 -40 -26 -48
-35 -14 -41 -13 -64 10 -24 24 -26 57 -3 82 18 20 63 24 81 6z"/>
<path d="M12330 12285 l0 -195 34 0 34 0 4 71 c3 56 8 74 23 85 40 29 50 15
53 -74 l3 -82 34 0 35 0 0 93 c0 50 -4 97 -8 103 -24 37 -88 40 -124 7 -17
-15 -18 -11 -18 85 l0 102 -35 0 -35 0 0 -195z"/>
<path d="M2767 12453 c-4 -3 -7 -87 -7 -185 l0 -178 130 0 130 0 0 35 0 35
-96 0 -95 0 3 38 3 37 78 3 77 3 0 34 0 35 -80 0 -80 0 0 35 0 35 90 0 90 0 0
40 0 40 -118 0 c-65 0 -122 -3 -125 -7z"/>
<path d="M5450 12276 l0 -186 35 0 35 0 0 75 0 75 80 0 80 0 0 -75 0 -75 35 0
35 0 0 186 0 185 -32 -3 -33 -3 -3 -72 -3 -73 -79 0 -79 0 -3 73 -3 72 -32 3
-33 3 0 -185z"/>
<path d="M4339 12404 c-9 -11 -10 -20 -2 -32 25 -41 86 -14 63 27 -13 25 -42
27 -61 5z"/>
<path d="M7839 12404 c-9 -11 -10 -20 -2 -32 25 -41 86 -14 63 27 -13 25 -42
27 -61 5z"/>
<path d="M8282 12411 c-8 -4 -12 -19 -10 -32 2 -19 9 -24 33 -24 33 0 45 25
25 50 -14 17 -29 19 -48 6z"/>
<path d="M8609 12404 c-9 -11 -10 -20 -2 -32 25 -41 86 -14 63 27 -13 25 -42
27 -61 5z"/>
<path d="M9249 12404 c-9 -11 -10 -20 -2 -32 25 -41 86 -14 63 27 -13 25 -42
27 -61 5z"/>
<path d="M12636 12405 c-20 -20 -5 -55 23 -55 28 0 47 28 34 48 -14 23 -38 26
-57 7z"/>
<path d="M4160 12356 c0 -35 -4 -45 -20 -49 -12 -3 -20 -14 -20 -27 0 -13 8
-24 20 -27 18 -5 20 -14 20 -84 l0 -79 35 0 35 0 0 80 c0 79 0 80 25 80 21 0
25 5 25 30 0 25 -4 30 -25 30 -23 0 -25 4 -25 45 0 45 0 45 -35 45 -35 0 -35
0 -35 -44z"/>
<path d="M6480 12355 c0 -38 -3 -45 -20 -45 -16 0 -20 -7 -20 -30 0 -23 4 -30
20 -30 18 0 20 -7 20 -80 l0 -80 35 0 35 0 0 80 c0 79 0 80 25 80 21 0 25 5
25 30 0 25 -4 30 -25 30 -23 0 -25 4 -25 45 0 45 0 45 -35 45 -35 0 -35 0 -35
-45z"/>
<path d="M8430 12356 c0 -35 -4 -45 -20 -49 -12 -3 -20 -14 -20 -27 0 -13 8
-24 20 -27 18 -5 20 -14 20 -84 l0 -79 35 0 35 0 0 80 c0 79 0 80 25 80 21 0
25 5 25 30 0 25 -4 30 -25 30 -23 0 -25 4 -25 45 0 45 0 45 -35 45 -35 0 -35
0 -35 -44z"/>
<path d="M9070 12356 c0 -35 -4 -45 -20 -49 -12 -3 -20 -14 -20 -27 0 -13 8
-24 20 -27 18 -5 20 -14 20 -84 l0 -79 35 0 35 0 0 80 c0 79 0 80 25 80 21 0
25 5 25 30 0 25 -4 30 -25 30 -23 0 -25 4 -25 45 0 45 0 45 -35 45 -35 0 -35
0 -35 -44z"/>
<path d="M3394 12306 c-70 -31 -94 -108 -54 -173 25 -41 84 -60 136 -43 37 13
40 20 22 49 -9 15 -16 17 -30 10 -19 -10 -58 -4 -58 10 0 4 34 17 76 29 69 21
75 24 69 45 -19 64 -100 101 -161 73z m70 -52 c27 -10 18 -21 -29 -37 -42 -15
-45 -15 -45 2 0 34 35 50 74 35z"/>
<path d="M4805 12313 c-37 -10 -73 -43 -85 -78 -30 -91 54 -171 152 -144 42
11 43 12 27 41 -8 16 -17 19 -42 14 -31 -5 -68 6 -51 16 5 3 40 15 77 28 66
21 68 23 62 49 -9 35 -24 52 -62 68 -33 13 -44 14 -78 6z m60 -72 c0 -14 -74
-46 -83 -36 -3 2 3 16 12 30 13 19 24 25 44 23 15 -2 27 -9 27 -17z"/>
<path d="M5894 12306 c-70 -31 -94 -108 -54 -173 25 -41 84 -60 136 -43 37 13
40 20 22 49 -9 15 -16 17 -30 10 -19 -10 -58 -4 -58 10 0 4 34 17 76 29 69 21
75 24 69 45 -19 64 -100 101 -161 73z m70 -52 c27 -10 18 -21 -29 -37 -42 -15
-45 -15 -45 2 0 34 35 50 74 35z"/>
<path d="M6700 12303 c-44 -22 -74 -80 -65 -122 28 -129 221 -127 241 1 7 41
-15 97 -46 115 -36 23 -92 25 -130 6z m100 -75 c13 -25 13 -31 0 -55 -29 -52
-93 -34 -93 25 0 64 62 84 93 30z"/>
<path d="M6993 12309 c-47 -14 -73 -52 -73 -109 0 -60 26 -96 81 -110 112 -30
196 70 143 171 -15 30 -67 60 -101 58 -10 0 -32 -5 -50 -10z m79 -66 c22 -20
23 -61 1 -85 -33 -36 -83 -11 -83 42 0 52 45 76 82 43z"/>
<path d="M8090 12313 c-8 -3 -22 -12 -31 -20 -14 -12 -17 -12 -23 2 -4 11 -15
15 -33 13 l-28 -3 -3 -107 -3 -108 36 0 35 0 0 53 c0 56 15 94 43 111 30 18
47 -17 47 -96 l0 -68 36 0 36 0 -4 95 c-2 67 -7 99 -18 109 -17 18 -68 28 -90
19z"/>
<path d="M8794 12310 c-73 -29 -88 -160 -25 -207 28 -20 72 -24 105 -8 19 10
32 12 34 5 2 -5 19 -10 38 -10 l35 0 -3 108 -3 107 -32 3 c-19 2 -33 -1 -33
-8 0 -6 -11 -5 -30 5 -32 17 -54 18 -86 5z m98 -67 c36 -32 12 -103 -35 -103
-30 0 -57 29 -57 61 0 52 53 77 92 42z"/>
<path d="M9715 12313 c-37 -10 -73 -43 -85 -78 -30 -91 54 -171 152 -144 42
11 43 12 27 41 -8 16 -17 19 -42 14 -31 -5 -68 6 -51 16 5 3 40 15 77 28 66
21 68 23 62 49 -9 35 -24 52 -62 68 -33 13 -44 14 -78 6z m60 -72 c0 -14 -74
-46 -83 -36 -3 2 3 16 12 30 13 19 24 25 44 23 15 -2 27 -9 27 -17z"/>
<path d="M10645 12313 c-37 -10 -73 -43 -85 -78 -30 -91 54 -171 152 -144 42
11 43 12 27 41 -8 16 -17 19 -42 14 -31 -5 -68 6 -51 16 5 3 40 15 77 28 66
21 68 23 62 49 -9 35 -24 52 -62 68 -33 13 -44 14 -78 6z m60 -72 c0 -14 -74
-46 -83 -36 -3 2 3 16 12 30 13 19 24 25 44 23 15 -2 27 -9 27 -17z"/>
<path d="M11155 12306 c-50 -23 -70 -52 -70 -106 0 -37 6 -54 24 -74 93 -99
259 -6 207 117 -25 62 -101 91 -161 63z m93 -78 c28 -59 -40 -118 -80 -68 -22
27 -23 49 -2 78 22 31 64 26 82 -10z"/>
<path d="M11500 12313 c-8 -3 -22 -12 -31 -20 -14 -12 -17 -12 -22 2 -4 9 -19
15 -37 15 l-30 0 0 -110 0 -110 34 0 34 0 4 71 c3 56 8 74 23 85 40 29 50 15
53 -74 l3 -82 34 0 35 0 0 93 c0 98 -3 108 -37 126 -23 12 -39 13 -63 4z"/>
<path d="M12803 12310 c-28 -11 -45 -44 -41 -78 2 -21 14 -32 48 -50 25 -12
46 -26 48 -31 6 -17 -30 -21 -58 -6 -27 14 -30 14 -40 -6 -7 -11 -10 -22 -8
-24 18 -15 55 -25 92 -25 36 0 48 5 65 26 38 48 19 96 -45 113 -15 4 -29 12
-32 19 -6 18 28 27 49 14 15 -10 20 -8 29 7 14 27 14 28 -21 40 -37 13 -56 13
-86 1z"/>
<path d="M3057 12298 c5 -7 24 -32 42 -56 l33 -42 -36 -50 c-20 -28 -36 -52
-36 -55 0 -3 15 -5 33 -5 26 0 36 6 51 32 l19 32 27 -32 c22 -27 33 -32 69
-32 l42 0 -41 53 c-22 30 -40 58 -40 63 0 5 14 27 30 48 37 49 37 56 1 56 -23
0 -34 -7 -48 -30 -9 -16 -20 -30 -23 -30 -3 0 -14 14 -25 30 -17 26 -26 30
-64 30 -33 0 -41 -3 -34 -12z"/>
<path d="M3644 12291 c-37 -22 -58 -75 -48 -117 15 -65 86 -103 157 -83 41 11
42 12 25 38 -9 14 -20 18 -42 14 -61 -9 -94 50 -52 92 22 22 29 23 53 14 22
-8 30 -7 40 7 18 24 16 31 -6 44 -31 16 -93 12 -127 -9z"/>
<path d="M3850 12215 c0 -82 3 -98 20 -115 26 -26 70 -26 104 1 21 17 26 18
26 5 0 -12 10 -16 35 -16 l36 0 -3 108 -3 107 -32 3 -33 3 0 -51 c0 -71 -23
-122 -52 -118 -22 3 -23 8 -26 86 l-3 82 -34 0 -35 0 0 -95z"/>
<path d="M4337 12303 c-4 -3 -7 -53 -7 -110 l0 -103 35 0 35 0 0 110 0 110
-28 0 c-16 0 -32 -3 -35 -7z"/>
<path d="M4450 12302 c0 -11 104 -190 119 -205 7 -7 121 184 121 205 0 4 -16
8 -35 8 -32 0 -36 -4 -56 -51 l-22 -50 -26 48 c-23 43 -30 48 -63 51 -21 2
-38 -1 -38 -6z"/>
<path d="M7837 12303 c-4 -3 -7 -53 -7 -110 l0 -103 35 0 35 0 0 110 0 110
-28 0 c-16 0 -32 -3 -35 -7z"/>
<path d="M8270 12200 l0 -110 35 0 35 0 0 110 0 110 -35 0 -35 0 0 -110z"/>
<path d="M8607 12303 c-4 -3 -7 -53 -7 -110 l0 -103 35 0 35 0 0 110 0 110
-28 0 c-16 0 -32 -3 -35 -7z"/>
<path d="M9247 12303 c-4 -3 -7 -53 -7 -110 l0 -103 35 0 35 0 0 110 0 110
-28 0 c-16 0 -32 -3 -35 -7z"/>
<path d="M9360 12303 c0 -8 121 -213 125 -213 3 0 82 136 114 198 11 21 10 22
-27 22 -38 0 -40 -2 -62 -52 l-22 -53 -26 53 c-25 49 -28 52 -64 52 -21 0 -38
-3 -38 -7z"/>
<path d="M10820 12300 c0 -5 21 -52 46 -103 l47 -94 -26 -57 -26 -57 35 3 c36
3 36 3 99 148 36 80 65 151 65 158 0 9 -10 12 -27 10 -23 -2 -33 -14 -57 -63
l-29 -60 -29 63 c-28 58 -32 62 -64 62 -19 0 -34 -4 -34 -10z"/>
<path d="M12630 12201 l0 -111 35 0 36 0 -3 108 -3 107 -32 3 -33 3 0 -110z"/>
<path d="M4987 12154 c-15 -16 -7 -53 14 -59 30 -10 58 19 43 43 -12 18 -45
28 -57 16z"/>
<path d="M3230 11595 l0 -195 35 0 35 0 0 195 0 195 -35 0 -35 0 0 -195z"/>
<path d="M9270 11595 l0 -195 35 0 35 0 0 195 0 195 -35 0 -35 0 0 -195z"/>
<path d="M10480 11699 c0 -89 0 -90 -22 -82 -86 31 -158 -18 -158 -106 0 -89
68 -139 144 -107 20 8 36 11 36 5 0 -5 16 -9 35 -9 l35 0 0 195 0 195 -35 0
-35 0 0 -91z m-12 -141 c7 -7 12 -27 12 -45 0 -24 -7 -37 -26 -50 -24 -15 -29
-15 -53 -2 -32 18 -40 68 -16 93 19 19 66 21 83 4z"/>
<path d="M11680 11595 l0 -195 35 0 c34 0 35 1 35 39 0 56 14 58 42 9 21 -39
27 -43 66 -46 l44 -3 -43 62 -42 63 37 31 c37 31 37 31 17 49 -20 18 -21 17
-71 -19 l-50 -37 0 121 0 121 -35 0 -35 0 0 -195z"/>
<path d="M12390 11699 c0 -79 -2 -90 -16 -85 -66 25 -125 11 -155 -38 -37 -61
-14 -146 47 -172 32 -14 42 -14 80 -1 24 8 44 10 44 6 0 -5 16 -9 35 -9 l35 0
0 195 0 195 -35 0 -35 0 0 -91z m-18 -146 c46 -41 -2 -120 -58 -95 -13 7 -29
23 -36 36 -24 55 48 101 94 59z"/>
<path d="M10940 11586 l0 -186 120 0 120 0 0 35 0 35 -85 0 -84 0 -3 148 -3
147 -32 3 -33 3 0 -185z"/>
<path d="M12540 11585 l0 -185 35 0 35 0 0 185 0 185 -35 0 -35 0 0 -185z"/>
<path d="M6006 11715 c-20 -20 -5 -55 23 -55 28 0 47 28 34 48 -14 23 -38 26
-57 7z"/>
<path d="M9142 11718 c-20 -20 -14 -47 12 -54 32 -8 46 2 46 31 0 32 -35 46
-58 23z"/>
<path d="M11249 11714 c-9 -11 -10 -20 -2 -32 25 -41 86 -14 63 27 -13 25 -42
27 -61 5z"/>
<path d="M4610 11666 c0 -35 -4 -45 -20 -49 -12 -3 -20 -14 -20 -27 0 -13 8
-24 20 -27 18 -5 20 -14 20 -84 l0 -79 35 0 35 0 0 80 c0 79 0 80 25 80 21 0
25 5 25 30 0 25 -4 30 -25 30 -23 0 -25 4 -25 45 0 45 0 45 -35 45 -35 0 -35
0 -35 -44z"/>
<path d="M5820 11666 c0 -35 -4 -45 -20 -49 -12 -3 -20 -14 -20 -27 0 -13 8
-24 20 -27 18 -5 20 -14 20 -84 l0 -79 35 0 35 0 0 80 c0 79 0 80 25 80 21 0
25 5 25 30 0 25 -4 30 -25 30 -23 0 -25 4 -25 45 0 45 0 45 -35 45 -35 0 -35
0 -35 -44z"/>
<path d="M2857 11606 c-35 -24 -36 -24 -42 -5 -4 13 -15 19 -36 19 l-29 0 0
-110 0 -110 35 0 35 0 0 55 c0 46 4 60 25 80 13 14 31 25 40 25 11 0 15 10 15
35 0 19 -2 35 -4 35 -2 0 -19 -11 -39 -24z"/>
<path d="M2995 11611 c-44 -19 -65 -53 -65 -102 0 -81 74 -132 159 -109 54 14
81 51 81 109 0 55 -20 88 -66 107 -43 18 -61 17 -109 -5z m86 -51 c24 -13 26
-72 3 -94 -49 -49 -114 34 -67 86 18 20 36 23 64 8z"/>
<path d="M3423 11615 c-36 -16 -73 -68 -73 -103 0 -79 78 -134 159 -112 l41
11 -15 30 c-13 25 -19 28 -36 19 -21 -12 -67 -3 -53 10 5 4 39 17 77 30 37 12
67 26 67 31 0 27 -35 72 -65 85 -42 17 -61 17 -102 -1z m84 -61 c2 -7 -17 -19
-42 -27 -47 -16 -53 -11 -34 24 7 15 19 19 41 17 17 -2 33 -8 35 -14z"/>
<path d="M4038 11614 c-60 -32 -78 -129 -33 -182 31 -36 75 -47 121 -27 19 8
34 10 34 4 0 -5 16 -9 35 -9 l35 0 0 110 0 110 -29 0 c-17 0 -32 -4 -36 -9 -3
-6 -17 -4 -33 5 -34 18 -60 17 -94 -2z m106 -60 c33 -32 8 -104 -36 -104 -25
0 -58 35 -58 62 0 49 61 76 94 42z"/>
<path d="M4835 11611 c-44 -19 -65 -53 -65 -102 0 -81 74 -132 159 -109 54 14
81 51 81 109 0 55 -20 88 -66 107 -43 18 -61 17 -109 -5z m86 -51 c24 -13 26
-72 3 -94 -49 -49 -114 34 -67 86 18 20 36 23 64 8z"/>
<path d="M5163 11610 c-27 -16 -33 -17 -33 -5 0 10 -10 15 -30 15 l-30 0 0
-110 0 -110 35 0 35 0 0 65 c0 52 4 69 21 86 34 34 44 19 47 -69 l3 -82 34 0
35 0 0 55 c0 59 14 101 38 110 26 10 37 -13 40 -90 l4 -75 29 0 29 0 0 99 c0
106 -4 114 -53 126 -21 6 -36 2 -56 -12 -26 -20 -27 -20 -50 -2 -30 24 -58 24
-98 -1z"/>
<path d="M5538 11614 c-60 -32 -78 -129 -33 -182 31 -36 75 -47 121 -27 19 8
34 10 34 4 0 -5 16 -9 35 -9 l35 0 0 110 0 110 -29 0 c-17 0 -32 -4 -36 -9 -3
-6 -17 -4 -33 5 -34 18 -60 17 -94 -2z m106 -60 c33 -32 8 -104 -36 -104 -25
0 -58 35 -58 62 0 49 61 76 94 42z"/>
<path d="M6233 11610 c-27 -16 -33 -17 -33 -5 0 10 -10 15 -30 15 l-30 0 0
-110 0 -110 35 0 35 0 0 68 c0 57 4 72 21 88 15 14 24 16 37 8 13 -9 18 -29
20 -88 l3 -76 34 0 35 0 0 90 c0 83 -2 93 -25 115 -29 30 -59 31 -102 5z"/>
<path d="M6470 11608 c-22 -15 -40 -38 -49 -64 -13 -37 -12 -44 5 -80 13 -26
32 -45 57 -58 36 -17 41 -17 78 -3 l40 16 -3 -26 c-4 -37 -49 -51 -93 -30 -31
15 -34 14 -49 -2 -23 -26 -20 -35 19 -54 43 -21 85 -22 129 -3 59 24 66 45 66
189 l0 128 -47 -2 c-27 -1 -64 1 -83 5 -28 6 -42 3 -70 -16z m111 -48 c14 -8
19 -21 19 -50 0 -29 -5 -42 -19 -50 -32 -17 -58 -11 -80 17 -44 55 16 117 80
83z"/>
<path d="M7095 11611 c-44 -19 -65 -53 -65 -102 0 -81 74 -132 159 -109 54 14
81 51 81 109 0 55 -20 88 -66 107 -43 18 -61 17 -109 -5z m86 -51 c24 -13 26
-72 3 -94 -49 -49 -114 34 -67 86 18 20 36 23 64 8z"/>
<path d="M7745 11620 c-12 -4 -27 -15 -34 -24 -18 -22 -31 -20 -31 4 0 16 -7
20 -30 20 l-30 0 0 -110 0 -110 35 0 35 0 0 59 c0 52 3 62 26 80 15 12 33 21
40 21 9 0 14 12 14 35 0 19 -1 35 -2 34 -2 0 -12 -4 -23 -9z"/>
<path d="M8184 11616 c-70 -31 -94 -108 -54 -173 25 -41 84 -60 136 -43 37 13
40 20 22 49 -9 15 -16 17 -30 10 -19 -10 -58 -4 -58 10 0 4 34 17 76 29 69 21
75 24 69 45 -19 64 -100 101 -161 73z m70 -52 c27 -10 18 -21 -29 -37 -42 -15
-45 -15 -45 2 0 34 35 50 74 35z"/>
<path d="M8493 11610 c-27 -16 -33 -17 -33 -5 0 10 -10 15 -30 15 l-30 0 0
-110 0 -110 35 0 35 0 0 65 c0 52 4 69 21 86 34 34 44 19 47 -69 l3 -82 34 0
35 0 0 55 c0 59 14 101 38 110 26 10 37 -13 40 -90 l4 -75 29 0 29 0 0 99 c0
106 -4 114 -53 126 -21 6 -36 2 -56 -12 -26 -20 -27 -20 -50 -2 -30 24 -58 24
-98 -1z"/>
<path d="M8868 11614 c-60 -32 -78 -129 -33 -182 31 -36 75 -47 121 -27 19 8
34 10 34 4 0 -5 16 -9 35 -9 l35 0 0 110 0 110 -29 0 c-17 0 -32 -4 -36 -9 -3
-6 -17 -4 -33 5 -34 18 -60 17 -94 -2z m106 -60 c33 -32 8 -104 -36 -104 -25
0 -58 35 -58 62 0 49 61 76 94 42z"/>
<path d="M9758 11614 c-60 -32 -78 -129 -33 -182 31 -36 75 -47 121 -27 19 8
34 10 34 4 0 -5 16 -9 35 -9 l35 0 0 110 0 110 -29 0 c-17 0 -32 -4 -36 -9 -3
-6 -17 -4 -33 5 -34 18 -60 17 -94 -2z m106 -60 c33 -32 8 -104 -36 -104 -25
0 -58 35 -58 62 0 49 61 76 94 42z"/>
<path d="M10134 11620 c-12 -5 -25 -13 -29 -19 -9 -16 -25 -13 -25 4 0 10 -10
15 -30 15 l-30 0 0 -110 0 -110 35 0 35 0 0 59 c0 69 6 88 30 101 39 21 50 3
50 -81 l0 -79 35 0 35 0 0 94 c0 90 -1 96 -26 115 -29 22 -46 25 -80 11z"/>
<path d="M11500 11623 c-8 -3 -22 -12 -31 -20 -14 -12 -17 -12 -23 2 -4 11
-15 15 -33 13 l-28 -3 -3 -107 -3 -108 36 0 35 0 0 53 c0 56 15 94 43 111 30
18 47 -17 47 -96 l0 -68 36 0 36 0 -4 95 c-2 67 -7 99 -18 109 -17 18 -68 28
-90 19z"/>
<path d="M11995 11612 c-46 -21 -65 -55 -65 -111 0 -75 79 -126 156 -101 38
13 40 18 20 45 -9 12 -20 16 -35 12 -25 -6 -51 0 -51 13 0 4 33 17 74 29 l75
22 -10 28 c-24 69 -94 95 -164 63z m84 -56 c10 -11 3 -17 -34 -29 -42 -15 -45
-15 -45 2 0 37 55 56 79 27z"/>
<path d="M12810 11623 c-8 -3 -22 -12 -31 -20 -14 -12 -17 -12 -23 2 -4 11
-15 15 -33 13 l-28 -3 -3 -107 -3 -108 36 0 35 0 0 53 c0 56 15 94 43 111 30
18 47 -17 47 -96 l0 -68 36 0 36 0 -4 95 c-2 67 -7 99 -18 109 -17 18 -68 28
-90 19z"/>
<path d="M4300 11525 c0 -82 3 -98 20 -115 30 -30 98 -22 122 14 5 7 8 4 8 -6
0 -14 8 -18 35 -18 l35 0 0 110 0 110 -35 0 -35 0 0 -63 c0 -72 -19 -110 -53
-105 -20 3 -22 10 -25 86 l-3 82 -34 0 -35 0 0 -95z"/>
<path d="M6000 11511 l0 -111 35 0 36 0 -3 108 -3 107 -32 3 -33 3 0 -110z"/>
<path d="M7330 11525 c0 -82 3 -98 20 -115 26 -26 70 -26 104 1 21 17 26 18
26 5 0 -12 10 -16 35 -16 l36 0 -3 108 -3 107 -32 3 -33 3 0 -51 c0 -71 -23
-122 -52 -118 -22 3 -23 8 -26 86 l-3 82 -34 0 -35 0 0 -95z"/>
<path d="M9130 11510 l0 -110 35 0 35 0 0 110 0 110 -35 0 -35 0 0 -110z"/>
<path d="M11247 11613 c-4 -3 -7 -53 -7 -110 l0 -103 35 0 35 0 0 110 0 110
-28 0 c-16 0 -32 -3 -35 -7z"/>
<path d="M3660 11510 l0 -30 125 0 125 0 0 30 0 30 -125 0 -125 0 0 -30z"/>
<path d="M4530 10905 l0 -195 35 0 35 0 0 59 c0 69 6 88 30 101 39 21 50 3 50
-81 l0 -79 35 0 35 0 0 94 c0 91 -1 95 -27 116 -31 24 -74 22 -105 -7 -17 -15
-18 -12 -18 85 l0 102 -35 0 -35 0 0 -195z"/>
<path d="M5490 10905 l0 -195 35 0 c19 0 35 5 35 11 0 8 5 8 15 -1 8 -7 33
-13 55 -14 78 -2 132 74 110 156 -18 66 -88 93 -162 63 -16 -6 -18 1 -18 84
l0 91 -35 0 -35 0 0 -195z m169 -39 c21 -25 9 -79 -20 -95 -24 -13 -29 -13
-53 2 -32 21 -37 80 -8 96 25 15 68 13 81 -3z"/>
<path d="M6230 10905 l0 -195 35 0 35 0 0 195 0 195 -35 0 -35 0 0 -195z"/>
<path d="M6540 11009 c0 -79 -2 -90 -16 -85 -66 25 -125 11 -155 -38 -37 -61
-14 -146 47 -172 32 -14 42 -14 80 -1 24 8 44 10 44 6 0 -5 16 -9 35 -9 l35 0
0 195 0 195 -35 0 -35 0 0 -91z m-18 -146 c46 -41 -2 -120 -58 -95 -13 7 -29
23 -36 36 -24 55 48 101 94 59z"/>
<path d="M8770 10905 l0 -195 35 0 35 0 0 59 c0 69 6 88 30 101 39 21 50 3 50
-81 l0 -79 35 0 35 0 0 94 c0 91 -1 95 -27 116 -31 24 -74 22 -105 -7 -17 -15
-18 -12 -18 85 l0 102 -35 0 -35 0 0 -195z"/>
<path d="M12354 11077 c-23 -20 -28 -34 -32 -85 -3 -48 -8 -61 -23 -65 -27 -7
-26 -57 1 -57 18 0 20 -7 20 -80 l0 -80 35 0 35 0 0 80 0 80 35 0 c32 0 35 2
35 30 0 28 -3 30 -35 30 -35 0 -35 1 -35 43 0 53 12 72 40 64 28 -7 53 39 29
54 -26 17 -77 10 -105 -14z"/>
<path d="M8007 11073 c-4 -3 -7 -87 -7 -185 l0 -178 40 0 40 0 0 60 0 60 45 0
c87 0 131 47 128 134 -3 55 -45 96 -110 107 -60 10 -128 11 -136 2z m161 -85
c7 -7 12 -24 12 -38 0 -36 -17 -50 -62 -50 l-38 0 0 50 0 50 38 0 c21 0 43 -5
50 -12z"/>
<path d="M6102 11031 c-8 -4 -12 -19 -10 -32 2 -19 9 -24 33 -24 33 0 45 25
25 50 -14 17 -29 19 -48 6z"/>
<path d="M6692 11031 c-8 -4 -12 -19 -10 -32 2 -19 9 -24 33 -24 33 0 45 25
25 50 -14 17 -29 19 -48 6z"/>
<path d="M10882 11031 c-8 -4 -12 -19 -10 -32 2 -19 9 -24 33 -24 33 0 45 25
25 50 -14 17 -29 19 -48 6z"/>
<path d="M3340 10975 c0 -33 -4 -45 -15 -45 -10 0 -15 -10 -15 -30 0 -20 5
-30 15 -30 12 0 15 -16 15 -80 l0 -80 35 0 35 0 0 79 c0 79 0 80 28 83 21 2
27 8 27 28 0 20 -6 26 -27 28 -26 3 -28 7 -28 48 0 44 0 44 -35 44 -35 0 -35
0 -35 -45z"/>
<path d="M8590 10975 c0 -33 -4 -45 -15 -45 -10 0 -15 -10 -15 -30 0 -20 5
-30 15 -30 12 0 15 -16 15 -80 l0 -80 35 0 35 0 0 79 c0 79 0 80 28 83 21 2
27 8 27 28 0 20 -6 26 -27 28 -26 3 -28 7 -28 48 0 44 0 44 -35 44 -35 0 -35
0 -35 -45z"/>
<path d="M11340 10976 c0 -35 -4 -45 -20 -49 -12 -3 -20 -14 -20 -27 0 -13 8
-24 20 -27 18 -5 20 -14 20 -84 l0 -79 35 0 35 0 0 80 c0 79 0 80 25 80 21 0
25 5 25 30 0 25 -4 30 -25 30 -23 0 -25 4 -25 45 0 45 0 45 -35 45 -35 0 -35
0 -35 -44z"/>
<path d="M2800 10923 c-44 -22 -74 -80 -65 -122 28 -129 221 -127 241 1 7 41
-15 97 -46 115 -36 23 -92 25 -130 6z m100 -75 c13 -25 13 -31 0 -55 -29 -52
-93 -34 -93 25 0 64 62 84 93 30z"/>
<path d="M3645 10930 c-12 -4 -27 -15 -34 -24 -18 -22 -31 -20 -31 4 0 16 -7
20 -30 20 l-30 0 0 -110 0 -110 35 0 35 0 0 59 c0 52 3 62 26 80 15 12 33 21
40 21 9 0 14 12 14 35 0 19 -1 35 -2 34 -2 0 -12 -4 -23 -9z"/>
<path d="M3765 10922 c-46 -21 -65 -55 -65 -111 0 -75 79 -126 156 -101 38 13
40 18 20 45 -9 12 -20 16 -35 12 -25 -6 -51 0 -51 13 0 4 33 17 74 29 l75 22
-10 28 c-24 69 -94 95 -164 63z m84 -56 c10 -11 3 -17 -34 -29 -42 -15 -45
-15 -45 2 0 37 55 56 79 27z"/>
<path d="M4028 10924 c-60 -32 -78 -129 -33 -182 31 -36 75 -47 121 -27 19 8
34 10 34 4 0 -5 16 -9 35 -9 l35 0 0 110 0 110 -29 0 c-17 0 -32 -4 -36 -9 -3
-6 -17 -4 -33 5 -34 18 -60 17 -94 -2z m106 -60 c33 -32 8 -104 -36 -104 -25
0 -58 35 -58 62 0 49 61 76 94 42z"/>
<path d="M6934 10930 c-12 -5 -25 -13 -29 -19 -9 -16 -25 -13 -25 4 0 10 -10
15 -30 15 l-30 0 0 -110 0 -110 35 0 35 0 0 59 c0 69 6 88 30 101 39 21 50 3
50 -81 l0 -79 35 0 35 0 0 94 c0 90 -1 96 -26 115 -29 22 -46 25 -80 11z"/>
<path d="M7159 10925 c-14 -8 -34 -25 -43 -39 -21 -32 -21 -105 0 -135 32 -46
111 -60 152 -28 19 15 27 0 14 -28 -15 -33 -58 -43 -96 -21 -29 17 -30 17 -48
-6 -17 -22 -17 -24 3 -40 51 -43 153 -29 193 25 19 25 21 42 21 150 l0 122
-32 3 c-18 2 -33 -1 -33 -7 0 -6 -14 -4 -35 5 -42 17 -63 17 -96 -1z m109 -61
c45 -31 16 -104 -42 -104 -48 0 -73 64 -39 102 20 22 51 23 81 2z"/>
<path d="M9123 10929 c-47 -14 -73 -52 -73 -109 0 -60 26 -96 81 -110 112 -30
196 70 143 171 -15 30 -67 60 -101 58 -10 0 -32 -5 -50 -10z m79 -66 c22 -20
23 -61 1 -85 -33 -36 -83 -11 -83 42 0 52 45 76 82 43z"/>
<path d="M9443 10920 c-27 -16 -33 -17 -33 -5 0 10 -10 15 -30 15 l-30 0 0
-110 0 -110 35 0 35 0 0 68 c0 57 4 72 21 88 15 14 24 16 37 8 13 -9 18 -29
20 -88 l3 -76 34 0 35 0 0 90 c0 83 -2 93 -25 115 -29 30 -59 31 -102 5z"/>
<path d="M10243 10930 c-28 -11 -45 -44 -41 -78 2 -21 14 -32 48 -50 25 -12
46 -26 48 -31 6 -17 -30 -21 -58 -6 -27 14 -30 14 -40 -6 -7 -11 -10 -22 -8
-24 18 -15 55 -25 92 -25 36 0 48 5 65 26 38 48 19 96 -45 113 -15 4 -29 12
-32 19 -6 18 28 27 49 14 15 -10 20 -8 29 7 14 27 14 28 -21 40 -37 13 -56 13
-86 1z"/>
<path d="M10780 10923 c-14 -9 -30 -24 -37 -33 -11 -13 -12 -11 -13 13 0 23
-4 27 -30 27 l-30 0 0 -110 0 -110 30 0 c27 0 30 3 30 33 0 62 19 109 50 120
18 7 30 20 33 36 7 36 -4 44 -33 24z"/>
<path d="M11105 10925 c-19 -10 -31 -12 -33 -6 -2 6 -17 11 -33 11 l-29 0 0
-160 0 -160 35 0 35 0 0 55 c0 30 2 55 4 55 3 0 17 -5 31 -10 37 -14 99 4 124
37 32 40 29 114 -6 153 -34 38 -85 48 -128 25z m63 -61 c44 -30 17 -104 -38
-104 -36 0 -50 17 -50 62 0 54 42 75 88 42z"/>
<path d="M11560 10933 c-31 -12 -50 -37 -50 -68 0 -35 20 -58 64 -72 17 -5 31
-14 33 -20 7 -19 -36 -26 -61 -9 -24 15 -46 6 -46 -21 0 -32 107 -46 147 -18
49 35 34 103 -29 121 -36 11 -52 44 -21 44 10 0 24 -4 32 -9 10 -7 19 -4 28 7
18 25 16 29 -18 41 -34 12 -55 13 -79 4z"/>
<path d="M12550 10923 c-44 -22 -74 -80 -65 -122 28 -129 221 -127 241 1 7 41
-15 97 -46 115 -36 23 -92 25 -130 6z m100 -75 c13 -25 13 -31 0 -55 -29 -52
-93 -34 -93 25 0 64 62 84 93 30z"/>
<path d="M12893 10920 c-18 -11 -33 -25 -34 -32 -1 -7 -4 -2 -8 12 -5 19 -13
25 -36 25 l-30 0 -3 -107 -3 -108 36 0 c35 0 35 0 35 44 0 63 15 96 50 109 25
9 30 17 30 44 0 18 -1 33 -2 33 -2 0 -18 -9 -35 -20z"/>
<path d="M3037 10923 c-4 -3 -7 -43 -7 -88 0 -68 4 -87 21 -109 24 -31 72 -35
109 -9 17 12 25 13 28 5 2 -7 17 -12 33 -12 l29 0 0 110 0 110 -35 0 -35 0 0
-63 c0 -68 -18 -107 -49 -107 -25 0 -31 19 -31 101 l0 69 -28 0 c-16 0 -32 -3
-35 -7z"/>
<path d="M4324 10911 c-37 -22 -58 -75 -48 -117 15 -65 86 -103 157 -83 41 11
42 12 25 38 -9 14 -20 18 -42 14 -61 -9 -94 50 -52 92 22 22 29 23 53 14 22
-8 30 -7 40 7 18 24 16 31 -6 44 -31 16 -93 12 -127 -9z"/>
<path d="M5800 10835 c0 -82 3 -98 20 -115 26 -26 70 -26 104 1 21 17 26 18
26 5 0 -12 10 -16 35 -16 l36 0 -3 108 -3 107 -32 3 -33 3 0 -51 c0 -71 -23
-122 -52 -118 -22 3 -23 8 -26 86 l-3 82 -34 0 -35 0 0 -95z"/>
<path d="M6090 10820 l0 -110 35 0 35 0 0 110 0 110 -35 0 -35 0 0 -110z"/>
<path d="M6680 10820 l0 -110 35 0 35 0 0 110 0 110 -35 0 -35 0 0 -110z"/>
<path d="M8280 10925 c0 -3 22 -50 49 -104 l50 -98 -25 -52 c-13 -29 -24 -55
-24 -57 0 -2 15 -4 33 -4 32 0 33 1 95 145 34 79 65 151 68 160 5 11 -1 15
-24 15 -27 0 -33 -6 -60 -62 l-29 -63 -29 60 c-27 56 -32 60 -67 63 -20 2 -37
1 -37 -3z"/>
<path d="M10451 10904 c-36 -30 -48 -78 -31 -128 19 -57 81 -85 150 -66 45 12
47 16 24 41 -11 13 -25 16 -44 12 -20 -4 -34 1 -49 16 -49 49 -5 110 64 88 15
-5 24 -1 34 15 12 19 11 23 -5 35 -10 7 -39 13 -65 13 -36 0 -55 -6 -78 -26z"/>
<path d="M10870 10820 l0 -110 35 0 35 0 0 110 0 110 -35 0 -35 0 0 -110z"/>
<path d="M4801 10713 c-7 -21 -15 -44 -17 -50 -4 -9 4 -13 24 -13 25 0 31 6
46 43 21 56 21 57 -12 57 -24 0 -31 -6 -41 -37z"/>
<path d="M3095 10398 c-35 -21 -44 -42 -45 -100 0 -51 -2 -58 -20 -58 -15 0
-20 -7 -20 -29 0 -20 6 -30 20 -34 18 -5 20 -14 20 -81 l0 -76 35 0 35 0 0 80
0 80 30 0 c27 0 30 3 30 30 0 27 -3 30 -31 30 l-30 0 3 53 c3 48 5 52 31 55
25 3 55 37 44 49 -12 11 -84 13 -102 1z"/>
<path d="M3294 10387 c-23 -20 -28 -34 -32 -85 -3 -48 -8 -61 -23 -65 -27 -7
-26 -57 1 -57 18 0 20 -7 20 -80 l0 -80 35 0 35 0 0 80 0 80 35 0 c32 0 35 2
35 30 0 28 -3 30 -35 30 -35 0 -35 1 -35 43 0 53 12 72 40 64 28 -7 53 39 29
54 -26 17 -77 10 -105 -14z"/>
<path d="M6290 10319 c0 -79 -2 -90 -16 -85 -66 25 -125 11 -155 -38 -37 -61
-14 -146 47 -172 32 -14 42 -14 80 -1 24 8 44 10 44 6 0 -5 16 -9 35 -9 l35 0
0 195 0 195 -35 0 -35 0 0 -91z m-18 -146 c46 -41 -2 -120 -58 -95 -13 7 -29
23 -36 36 -24 55 48 101 94 59z"/>
<path d="M6800 10215 l0 -195 35 0 35 0 0 53 c0 56 15 94 43 111 30 18 47 -17
47 -96 l0 -68 36 0 36 0 -4 95 c-2 74 -7 98 -21 112 -24 24 -89 23 -116 -1
l-21 -19 0 101 0 102 -35 0 -35 0 0 -195z"/>
<path d="M7370 10215 l0 -195 35 0 35 0 0 195 0 195 -35 0 -35 0 0 -195z"/>
<path d="M12690 10215 l0 -195 35 0 35 0 0 53 c0 56 15 94 43 111 30 18 47
-17 47 -96 l0 -68 36 0 36 0 -4 95 c-2 74 -7 98 -21 112 -24 24 -89 23 -116
-1 l-21 -19 0 101 0 102 -35 0 -35 0 0 -195z"/>
<path d="M3466 10335 c-20 -20 -5 -55 23 -55 28 0 47 28 34 48 -14 23 -38 26
-57 7z"/>
<path d="M3839 10334 c-9 -11 -10 -20 -2 -32 25 -41 86 -14 63 27 -13 25 -42
27 -61 5z"/>
<path d="M7832 10338 c-20 -20 -14 -47 12 -54 32 -8 46 2 46 31 0 32 -35 46
-58 23z"/>
<path d="M12372 10341 c-8 -4 -12 -19 -10 -32 2 -19 9 -24 33 -24 33 0 45 25
25 50 -14 17 -29 19 -48 6z"/>
<path d="M11470 10286 c0 -35 -4 -45 -20 -49 -12 -3 -20 -14 -20 -27 0 -13 8
-24 20 -27 18 -5 20 -14 20 -84 l0 -79 35 0 35 0 0 80 c0 79 0 80 25 80 21 0
25 5 25 30 0 25 -4 30 -25 30 -23 0 -25 4 -25 45 0 45 0 45 -35 45 -35 0 -35
0 -35 -44z"/>
<path d="M12520 10286 c0 -35 -4 -45 -20 -49 -12 -3 -20 -14 -20 -27 0 -13 8
-24 20 -27 18 -5 20 -14 20 -84 l0 -79 35 0 35 0 0 80 c0 79 0 80 25 80 21 0
25 5 25 30 0 25 -4 30 -25 30 -23 0 -25 4 -25 45 0 45 0 45 -35 45 -35 0 -35
0 -35 -44z"/>
<path d="M2825 10243 c-37 -10 -73 -43 -85 -78 -30 -91 54 -171 152 -144 42
11 43 12 27 41 -8 16 -17 19 -42 14 -31 -5 -68 6 -51 16 5 3 40 15 77 28 66
21 68 23 62 49 -9 35 -24 52 -62 68 -33 13 -44 14 -78 6z m60 -72 c0 -14 -74
-46 -83 -36 -3 2 3 16 12 30 13 19 24 25 44 23 15 -2 27 -9 27 -17z"/>
<path d="M4034 10236 c-70 -31 -94 -108 -54 -173 25 -41 84 -60 136 -43 37 13
40 20 22 49 -9 15 -16 17 -30 10 -19 -10 -58 -4 -58 10 0 4 34 17 76 29 69 21
75 24 69 45 -19 64 -100 101 -161 73z m70 -52 c27 -10 18 -21 -29 -37 -42 -15
-45 -15 -45 2 0 34 35 50 74 35z"/>
<path d="M4364 10240 c-12 -5 -25 -13 -29 -19 -9 -16 -25 -13 -25 4 0 10 -10
15 -30 15 l-30 0 0 -110 0 -110 35 0 35 0 0 59 c0 69 6 88 30 101 39 21 50 3
50 -81 l0 -79 35 0 35 0 0 94 c0 90 -1 96 -26 115 -29 22 -46 25 -80 11z"/>
<path d="M5580 10243 c-81 -30 -102 -165 -33 -210 30 -20 96 -22 118 -3 10 9
15 9 15 1 0 -6 16 -11 35 -11 l35 0 0 110 0 110 -29 0 c-16 0 -31 -5 -33 -12
-3 -8 -11 -7 -28 5 -24 17 -52 20 -80 10z m84 -66 c13 -9 17 -23 14 -52 -2
-33 -8 -41 -31 -49 -23 -8 -31 -6 -48 11 -53 53 5 134 65 90z"/>
<path d="M5923 10230 c-27 -16 -33 -17 -33 -5 0 10 -10 15 -30 15 l-30 0 0
-110 0 -110 35 0 35 0 0 68 c0 57 4 72 21 88 15 14 24 16 37 8 13 -9 18 -29
20 -88 l3 -76 34 0 35 0 0 90 c0 83 -2 93 -25 115 -29 30 -59 31 -102 5z"/>
<path d="M7153 10235 c-36 -16 -73 -68 -73 -103 0 -79 78 -134 159 -112 l41
11 -15 30 c-13 25 -19 28 -36 19 -21 -12 -67 -3 -53 10 5 4 39 17 77 30 37 12
67 26 67 31 0 27 -35 72 -65 85 -42 17 -61 17 -102 -1z m84 -61 c2 -7 -17 -19
-42 -27 -47 -16 -53 -11 -34 24 7 15 19 19 41 17 17 -2 33 -8 35 -14z"/>
<path d="M7610 10234 c-22 -10 -36 -11 -38 -4 -2 5 -17 10 -33 10 l-29 0 0
-160 0 -160 35 0 35 0 0 59 0 59 32 -15 c65 -33 151 26 151 104 0 54 -26 99
-64 112 -40 14 -46 14 -89 -5z m62 -61 c36 -33 14 -103 -33 -103 -38 0 -59 19
-59 52 0 58 52 87 92 51z"/>
<path d="M8080 10243 c-8 -3 -22 -12 -31 -20 -14 -12 -17 -12 -22 2 -4 9 -19
15 -37 15 l-30 0 0 -110 0 -110 34 0 34 0 4 71 c3 56 8 74 23 85 40 29 50 15
53 -74 l3 -82 34 0 35 0 0 93 c0 98 -3 108 -37 126 -23 12 -39 13 -63 4z"/>
<path d="M8302 10233 c-90 -44 -79 -185 16 -214 33 -10 45 -9 72 5 41 20 40
20 40 -3 0 -23 -36 -51 -65 -51 -11 0 -31 7 -43 16 -21 15 -24 14 -42 -8 -19
-23 -19 -23 1 -40 48 -41 143 -32 190 18 22 24 24 34 27 155 l4 129 -31 0
c-16 0 -32 -4 -36 -9 -3 -6 -17 -4 -33 5 -35 18 -59 17 -100 -3z m112 -62 c25
-28 17 -72 -16 -91 -25 -13 -31 -13 -55 0 -54 30 -34 110 27 110 15 0 35 -9
44 -19z"/>
<path d="M9280 10243 c-31 -12 -50 -37 -50 -68 0 -35 20 -58 64 -72 17 -5 31
-14 33 -20 7 -19 -36 -26 -61 -9 -24 15 -46 6 -46 -21 0 -32 107 -46 147 -18
49 35 34 103 -29 121 -36 11 -52 44 -21 44 10 0 24 -4 32 -9 10 -7 19 -4 28 7
18 25 16 29 -18 41 -34 12 -55 13 -79 4z"/>
<path d="M10115 10231 c-44 -19 -65 -53 -65 -102 0 -81 74 -132 159 -109 54
14 81 51 81 109 0 55 -20 88 -66 107 -43 18 -61 17 -109 -5z m86 -51 c24 -13
26 -72 3 -94 -49 -49 -114 34 -67 86 18 20 36 23 64 8z"/>
<path d="M10464 10240 c-12 -5 -25 -13 -29 -19 -9 -16 -25 -13 -25 4 0 10 -10
15 -30 15 l-30 0 0 -110 0 -110 35 0 35 0 0 59 c0 69 6 88 30 101 39 21 50 3
50 -81 l0 -79 35 0 35 0 0 94 c0 90 -1 96 -26 115 -29 22 -46 25 -80 11z"/>
<path d="M10760 10243 c-8 -3 -22 -12 -31 -20 -14 -12 -17 -12 -23 2 -4 11
-15 15 -33 13 l-28 -3 -3 -107 -3 -108 36 0 35 0 0 53 c0 56 15 94 43 111 30
18 47 -17 47 -96 l0 -68 36 0 36 0 -4 95 c-2 67 -7 99 -18 109 -17 18 -68 28
-90 19z"/>
<path d="M10993 10235 c-36 -16 -73 -68 -73 -103 0 -79 78 -134 159 -112 l41
11 -15 30 c-13 25 -19 28 -36 19 -21 -12 -67 -3 -53 10 5 4 39 17 77 30 37 12
67 26 67 31 0 27 -35 72 -65 85 -42 17 -61 17 -102 -1z m84 -61 c2 -7 -17 -19
-42 -27 -47 -16 -53 -11 -34 24 7 15 19 19 41 17 17 -2 33 -8 35 -14z"/>
<path d="M3460 10131 l0 -111 35 0 36 0 -3 108 -3 107 -32 3 -33 3 0 -110z"/>
<path d="M3621 10214 c-36 -30 -48 -78 -31 -128 19 -57 81 -85 150 -66 45 12
47 16 24 41 -11 13 -25 16 -44 12 -20 -4 -34 1 -49 16 -49 49 -5 110 64 88 15
-5 24 -1 34 15 12 19 11 23 -5 35 -10 7 -39 13 -65 13 -36 0 -55 -6 -78 -26z"/>
<path d="M3837 10233 c-4 -3 -7 -53 -7 -110 l0 -103 35 0 35 0 0 110 0 110
-28 0 c-16 0 -32 -3 -35 -7z"/>
<path d="M4585 10228 c-37 -20 -55 -51 -55 -99 0 -83 68 -132 153 -108 41 11
41 12 27 39 -8 15 -17 18 -40 13 -38 -7 -70 19 -70 58 0 38 32 60 71 49 24 -7
32 -5 44 13 14 20 13 22 -8 34 -27 15 -95 16 -122 1z"/>
<path d="M4767 10203 c8 -21 30 -68 49 -105 l34 -67 -25 -55 -25 -56 34 0 33
0 67 153 c36 83 66 155 66 160 0 4 -13 7 -29 7 -25 0 -31 -7 -57 -67 l-30 -66
-28 66 c-28 66 -29 67 -67 67 l-38 0 16 -37z"/>
<path d="M7820 10130 l0 -110 35 0 35 0 0 110 0 110 -35 0 -35 0 0 -110z"/>
<path d="M8947 10233 c-4 -3 -7 -43 -7 -88 0 -68 4 -87 21 -109 24 -31 72 -35
109 -9 17 12 25 13 28 5 2 -7 17 -12 33 -12 l29 0 0 110 0 110 -35 0 -35 0 0
-63 c0 -68 -18 -107 -49 -107 -25 0 -31 19 -31 101 l0 69 -28 0 c-16 0 -32 -3
-35 -7z"/>
<path d="M9851 10214 c-36 -30 -48 -78 -31 -128 19 -57 81 -85 150 -66 45 12
47 16 24 41 -11 13 -25 16 -44 12 -20 -4 -34 1 -49 16 -49 49 -5 110 64 88 15
-5 24 -1 34 15 12 19 11 23 -5 35 -10 7 -39 13 -65 13 -36 0 -55 -6 -78 -26z"/>
<path d="M11244 10221 c-37 -22 -58 -75 -48 -117 15 -65 86 -103 157 -83 41
11 42 12 25 38 -9 14 -20 18 -42 14 -61 -9 -94 50 -52 92 22 22 29 23 53 14
22 -8 30 -7 40 7 18 24 16 31 -6 44 -31 16 -93 12 -127 -9z"/>
<path d="M11994 10223 c4 -10 26 -62 49 -116 l42 -99 30 66 c17 36 33 66 36
66 3 0 20 -30 36 -66 17 -36 33 -62 36 -57 10 17 87 206 87 214 0 5 -14 9 -30
9 -24 0 -33 -6 -40 -27 -26 -72 -25 -71 -48 -20 -17 38 -26 47 -46 47 -20 0
-26 -5 -26 -22 -1 -13 -6 -33 -13 -46 -13 -22 -13 -21 -35 23 -19 39 -26 45
-53 45 -25 0 -30 -3 -25 -17z"/>
<path d="M12360 10130 l0 -110 35 0 35 0 0 110 0 110 -35 0 -35 0 0 -110z"/>
<path d="M5026 10020 c-21 -54 -20 -60 9 -60 19 0 28 9 45 46 11 26 20 48 20
50 0 2 -13 4 -29 4 -24 0 -31 -6 -45 -40z"/>
<path d="M8160 9525 l0 -195 35 0 35 0 0 195 0 195 -35 0 -35 0 0 -195z"/>
<path d="M8870 9525 l0 -195 35 0 35 0 0 195 0 195 -35 0 -35 0 0 -195z"/>
<path d="M10680 9525 l0 -195 35 0 35 0 0 68 c0 57 4 72 21 88 15 14 24 16 37
8 13 -9 18 -29 20 -88 l3 -76 34 0 35 0 0 90 c0 83 -2 93 -25 115 -29 30 -59
31 -102 5 l-33 -20 0 100 0 100 -30 0 -30 0 0 -195z"/>
<path d="M12050 9525 l0 -195 35 0 35 0 0 59 c0 69 6 88 30 101 39 21 50 3 50
-81 l0 -79 35 0 35 0 0 94 c0 91 -1 95 -27 116 -31 24 -74 22 -105 -7 -17 -15
-18 -12 -18 85 l0 102 -35 0 -35 0 0 -195z"/>
<path d="M4090 9625 c0 -24 5 -35 15 -35 13 0 15 -21 15 -130 l0 -130 35 0 35
0 0 165 0 165 -50 0 -50 0 0 -35z"/>
<path d="M4321 9647 c-80 -40 -92 -201 -21 -280 26 -29 33 -32 89 -32 53 0 63
4 91 30 73 70 62 230 -20 279 -33 19 -105 21 -139 3z m113 -79 c10 -13 16 -43
16 -73 0 -63 -20 -95 -60 -95 -40 0 -60 32 -60 95 0 63 20 95 60 95 18 0 34
-8 44 -22z"/>
<path d="M4628 9644 c-15 -8 -35 -29 -44 -46 -22 -42 -22 -154 0 -196 50 -97
193 -96 237 1 38 85 13 209 -50 241 -38 20 -107 20 -143 0z m106 -60 c38 -15
43 -136 6 -169 -26 -24 -72 -16 -88 15 -16 30 -11 122 7 144 14 16 47 21 75
10z"/>
<path d="M5239 9644 c-9 -11 -10 -20 -2 -32 25 -41 86 -14 63 27 -13 25 -42
27 -61 5z"/>
<path d="M7139 9644 c-9 -11 -10 -20 -2 -32 25 -41 86 -14 63 27 -13 25 -42
27 -61 5z"/>
<path d="M9026 9645 c-20 -20 -5 -55 23 -55 28 0 47 28 34 48 -14 23 -38 26
-57 7z"/>
<path d="M5690 9596 c0 -35 -4 -45 -20 -49 -12 -3 -20 -14 -20 -27 0 -13 8
-24 20 -27 18 -5 20 -14 20 -84 l0 -79 35 0 35 0 0 80 c0 79 0 80 25 80 21 0
25 5 25 30 0 25 -4 30 -25 30 -23 0 -25 4 -25 45 0 45 0 45 -35 45 -35 0 -35
0 -35 -44z"/>
<path d="M6960 9596 c0 -35 -4 -45 -20 -49 -12 -3 -20 -14 -20 -27 0 -13 8
-24 20 -27 18 -5 20 -14 20 -84 l0 -79 35 0 35 0 0 80 c0 79 0 80 25 80 21 0
25 5 25 30 0 25 -4 30 -25 30 -23 0 -25 4 -25 45 0 45 0 45 -35 45 -35 0 -35
0 -35 -44z"/>
<path d="M9740 9595 c0 -33 -4 -45 -15 -45 -10 0 -15 -10 -15 -30 0 -20 5 -30
15 -30 12 0 15 -16 15 -80 l0 -80 35 0 35 0 0 79 c0 79 0 80 28 83 21 2 27 8
27 28 0 20 -6 26 -27 28 -26 3 -28 7 -28 48 0 44 0 44 -35 44 -35 0 -35 0 -35
-45z"/>
<path d="M10500 9595 c0 -33 -4 -45 -15 -45 -10 0 -15 -10 -15 -30 0 -20 5
-30 15 -30 12 0 15 -16 15 -80 l0 -80 35 0 35 0 0 80 c0 79 0 80 25 80 21 0
25 5 25 30 0 25 -4 30 -25 30 -23 0 -25 4 -25 45 0 45 0 45 -35 45 -35 0 -35
0 -35 -45z"/>
<path d="M2800 9543 c-44 -22 -74 -80 -65 -122 28 -129 221 -127 241 1 7 41
-15 97 -46 115 -36 23 -92 25 -130 6z m100 -75 c13 -25 13 -31 0 -55 -29 -52
-93 -34 -93 25 0 64 62 84 93 30z"/>
<path d="M3335 9542 c-46 -21 -65 -55 -65 -111 0 -75 79 -126 156 -101 38 13
40 18 20 45 -9 12 -20 16 -35 12 -25 -6 -51 0 -51 13 0 4 33 17 74 29 l75 22
-10 28 c-24 69 -94 95 -164 63z m84 -56 c10 -11 3 -17 -34 -29 -42 -15 -45
-15 -45 2 0 37 55 56 79 27z"/>
<path d="M3685 9550 c-12 -4 -27 -15 -34 -24 -18 -22 -31 -20 -31 4 0 16 -7
20 -30 20 l-30 0 0 -110 0 -110 35 0 35 0 0 59 c0 52 3 62 26 80 15 12 33 21
40 21 9 0 14 12 14 35 0 19 -1 35 -2 34 -2 0 -12 -4 -23 -9z"/>
<path d="M5490 9553 c-8 -3 -22 -12 -31 -20 -14 -12 -17 -12 -23 2 -4 11 -15
15 -33 13 l-28 -3 -3 -107 -3 -108 36 0 35 0 0 53 c0 56 15 94 43 111 30 18
47 -17 47 -96 l0 -68 36 0 36 0 -4 95 c-2 67 -7 99 -18 109 -17 18 -68 28 -90
19z"/>
<path d="M5915 9542 c-46 -21 -65 -55 -65 -111 0 -75 79 -126 156 -101 38 13
40 18 20 45 -9 12 -20 16 -35 12 -25 -6 -51 0 -51 13 0 4 33 17 74 29 l75 22
-10 28 c-24 69 -94 95 -164 63z m84 -56 c10 -11 3 -17 -34 -29 -42 -15 -45
-15 -45 2 0 37 55 56 79 27z"/>
<path d="M6265 9550 c-12 -4 -27 -15 -34 -24 -18 -22 -31 -20 -31 4 0 16 -7
20 -30 20 l-30 0 0 -110 0 -110 35 0 35 0 0 59 c0 52 3 62 26 80 15 12 33 21
40 21 9 0 14 12 14 35 0 19 -1 35 -2 34 -2 0 -12 -4 -23 -9z"/>
<path d="M6460 9553 c-8 -3 -22 -12 -31 -20 -14 -12 -17 -12 -22 2 -4 9 -19
15 -37 15 l-30 0 0 -110 0 -110 34 0 34 0 4 71 c3 56 8 74 23 85 40 29 50 15
53 -74 l3 -82 34 0 35 0 0 93 c0 98 -3 108 -37 126 -23 12 -39 13 -63 4z"/>
<path d="M6678 9544 c-60 -32 -78 -129 -33 -182 31 -36 75 -47 121 -27 19 8
34 10 34 4 0 -5 16 -9 35 -9 l35 0 0 110 0 110 -29 0 c-17 0 -32 -4 -36 -9 -3
-6 -17 -4 -33 5 -34 18 -60 17 -94 -2z m106 -60 c33 -32 8 -104 -36 -104 -25
0 -58 35 -58 62 0 49 61 76 94 42z"/>
<path d="M7325 9541 c-44 -19 -65 -53 -65 -102 0 -81 74 -132 159 -109 54 14
81 51 81 109 0 55 -20 88 -66 107 -43 18 -61 17 -109 -5z m86 -51 c24 -13 26
-72 3 -94 -49 -49 -114 34 -67 86 18 20 36 23 64 8z"/>
<path d="M7674 9550 c-12 -5 -25 -13 -29 -19 -9 -16 -25 -13 -25 4 0 10 -10
15 -30 15 l-30 0 0 -110 0 -110 35 0 35 0 0 59 c0 69 6 88 30 101 39 21 50 3
50 -81 l0 -79 35 0 35 0 0 94 c0 90 -1 96 -26 115 -29 22 -46 25 -80 11z"/>
<path d="M7904 9550 c-73 -29 -88 -160 -25 -207 28 -20 72 -24 105 -8 19 10
32 12 34 5 2 -5 19 -10 38 -10 l35 0 -3 108 -3 107 -32 3 c-19 2 -33 -1 -33
-8 0 -6 -11 -5 -30 5 -32 17 -54 18 -86 5z m98 -67 c36 -32 12 -103 -35 -103
-30 0 -57 29 -57 61 0 52 53 77 92 42z"/>
<path d="M9214 9546 c-70 -31 -94 -108 -54 -173 25 -41 84 -60 136 -43 37 13
40 20 22 49 -9 15 -16 17 -30 10 -19 -10 -58 -4 -58 10 0 4 34 17 76 29 69 21
75 24 69 45 -19 64 -100 101 -161 73z m70 -52 c27 -10 18 -21 -29 -37 -42 -15
-45 -15 -45 2 0 34 35 50 74 35z"/>
<path d="M9550 9553 c-8 -3 -22 -12 -31 -20 -14 -12 -17 -12 -22 2 -4 9 -19
15 -37 15 l-30 0 0 -110 0 -110 34 0 34 0 4 71 c3 56 8 74 23 85 40 29 50 15
53 -74 l3 -82 34 0 35 0 0 93 c0 98 -3 108 -37 126 -23 12 -39 13 -63 4z"/>
<path d="M9953 9546 c-63 -28 -56 -97 13 -127 24 -11 44 -24 44 -29 0 -17 -22
-22 -51 -10 -23 10 -32 10 -45 -1 -15 -12 -14 -15 6 -31 34 -27 110 -24 138 5
42 45 23 94 -47 118 -42 15 -34 34 15 34 28 0 39 5 42 17 4 20 -3 25 -48 32
-21 4 -48 0 -67 -8z"/>
<path d="M11077 9536 c-35 -24 -36 -24 -42 -5 -4 13 -15 19 -36 19 l-29 0 0
-110 0 -110 35 0 35 0 0 55 c0 46 4 60 25 80 13 14 31 25 40 25 11 0 15 10 15
35 0 19 -2 35 -4 35 -2 0 -19 -11 -39 -24z"/>
<path d="M11223 9549 c-47 -14 -73 -52 -73 -109 0 -60 26 -96 81 -110 112 -30
196 70 143 171 -15 30 -67 60 -101 58 -10 0 -32 -5 -50 -10z m79 -66 c22 -20
23 -61 1 -85 -33 -36 -83 -11 -83 42 0 52 45 76 82 43z"/>
<path d="M11782 9543 c-90 -44 -79 -185 16 -214 33 -10 45 -9 72 5 41 20 40
20 40 -3 0 -23 -36 -51 -65 -51 -11 0 -31 7 -43 16 -21 15 -24 14 -42 -8 -19
-23 -19 -23 1 -40 48 -41 143 -32 190 18 22 24 24 34 27 155 l4 129 -31 0
c-16 0 -32 -4 -36 -9 -3 -6 -17 -4 -33 5 -35 18 -59 17 -100 -3z m112 -62 c25
-28 17 -72 -16 -91 -25 -13 -31 -13 -55 0 -54 30 -34 110 27 110 15 0 35 -9
44 -19z"/>
<path d="M12734 9550 c-73 -29 -88 -160 -25 -207 28 -20 72 -24 105 -8 19 10
32 12 34 5 2 -5 19 -10 38 -10 l35 0 -3 108 -3 107 -32 3 c-19 2 -33 -1 -33
-8 0 -6 -11 -5 -30 5 -32 17 -54 18 -86 5z m98 -67 c36 -32 12 -103 -35 -103
-30 0 -57 29 -57 61 0 52 53 77 92 42z"/>
<path d="M3000 9543 c0 -8 121 -213 125 -213 3 0 82 136 114 198 11 21 10 22
-27 22 -38 0 -40 -2 -62 -52 l-22 -53 -26 53 c-25 49 -28 52 -64 52 -21 0 -38
-3 -38 -7z"/>
<path d="M5237 9543 c-4 -3 -7 -53 -7 -110 l0 -103 35 0 35 0 0 110 0 110 -28
0 c-16 0 -32 -3 -35 -7z"/>
<path d="M7137 9543 c-4 -3 -7 -53 -7 -110 l0 -103 35 0 35 0 0 110 0 110 -28
0 c-16 0 -32 -3 -35 -7z"/>
<path d="M8654 9516 c-35 -35 -36 -39 -32 -88 4 -39 12 -57 31 -74 36 -30 88
-38 133 -19 36 15 36 16 19 35 -13 14 -25 17 -46 13 -21 -4 -36 0 -49 12 -46
42 -5 118 53 96 20 -8 29 -6 43 10 25 28 7 41 -60 47 -53 4 -57 3 -92 -32z"/>
<path d="M9020 9441 l0 -111 35 0 36 0 -3 108 -3 107 -32 3 -33 3 0 -110z"/>
<path d="M11450 9451 c0 -92 2 -101 22 -115 31 -22 70 -20 102 5 21 17 26 18
26 5 0 -11 9 -16 30 -16 l30 0 0 111 0 110 -32 -3 -33 -3 -5 -73 c-5 -74 -17
-95 -50 -89 -11 2 -16 22 -20 82 l-5 80 -32 3 -33 3 0 -100z"/>
<path d="M2920 8939 c0 -79 -2 -90 -16 -85 -63 24 -121 12 -150 -32 -21 -32
-24 -100 -5 -135 8 -14 29 -33 48 -42 31 -15 39 -15 79 -2 24 8 44 10 44 6 0
-5 16 -9 35 -9 l35 0 0 195 0 195 -35 0 -35 0 0 -91z m-16 -145 c34 -33 6
-104 -40 -104 -43 0 -72 71 -44 105 16 20 64 19 84 -1z"/>
<path d="M3860 8835 l0 -195 35 0 c19 0 35 4 35 9 0 6 16 3 36 -5 93 -39 182
60 141 158 -25 60 -88 80 -163 51 -11 -4 -14 11 -14 86 l0 91 -35 0 -35 0 0
-195z m176 -50 c21 -32 7 -69 -30 -87 -55 -24 -103 53 -60 96 25 25 71 20 90
-9z"/>
<path d="M5495 9018 c-35 -21 -44 -42 -45 -100 0 -51 -2 -58 -20 -58 -15 0
-20 -7 -20 -29 0 -20 6 -30 20 -34 18 -5 20 -14 20 -81 l0 -76 35 0 35 0 0 80
0 80 30 0 c27 0 30 3 30 30 0 27 -3 30 -31 30 l-30 0 3 53 c3 48 5 52 31 55
25 3 55 37 44 49 -12 11 -84 13 -102 1z"/>
<path d="M9877 9003 c-4 -3 -7 -87 -7 -185 l0 -178 35 0 34 0 3 73 3 72 83 3
82 3 0 -76 0 -75 35 0 35 0 -2 183 -3 182 -32 3 -33 3 0 -75 0 -76 -85 0 -85
0 0 75 0 75 -28 0 c-16 0 -32 -3 -35 -7z"/>
<path d="M5800 8935 c0 -24 5 -35 15 -35 13 0 15 -21 15 -130 l0 -130 35 0 35
0 0 165 0 165 -50 0 -50 0 0 -35z"/>
<path d="M6028 8954 c-15 -8 -35 -29 -44 -46 -22 -42 -22 -154 0 -196 50 -97
193 -96 237 1 38 85 13 209 -50 241 -38 20 -107 20 -143 0z m106 -60 c38 -15
43 -136 6 -169 -26 -24 -72 -16 -88 15 -16 30 -11 122 7 144 14 16 47 21 75
10z"/>
<path d="M6338 8954 c-15 -8 -35 -29 -44 -46 -22 -42 -22 -154 0 -196 50 -97
193 -96 237 1 38 85 13 209 -50 241 -38 20 -107 20 -143 0z m106 -60 c38 -15
43 -136 6 -169 -26 -24 -72 -16 -88 15 -16 30 -11 122 7 144 14 16 47 21 75
10z"/>
<path d="M6647 8950 c-41 -33 -57 -72 -57 -140 0 -108 49 -170 135 -170 85 0
135 61 135 165 0 107 -39 156 -128 163 -47 3 -62 0 -85 -18z m128 -80 c18 -34
19 -75 4 -119 -19 -55 -89 -55 -108 1 -15 42 -14 72 3 113 13 31 19 35 50 35
29 0 38 -5 51 -30z"/>
<path d="M10272 8958 c-20 -20 -14 -47 12 -54 32 -8 46 2 46 31 0 32 -35 46
-58 23z"/>
<path d="M12326 8955 c-20 -20 -5 -55 23 -55 28 0 47 28 34 48 -14 23 -38 26
-57 7z"/>
<path d="M3390 8905 c0 -38 -3 -45 -20 -45 -16 0 -20 -7 -20 -30 0 -23 4 -30
20 -30 18 0 20 -7 20 -80 l0 -80 35 0 35 0 0 80 c0 79 0 80 25 80 21 0 25 5
25 30 0 25 -4 30 -25 30 -23 0 -25 4 -25 45 0 45 0 45 -35 45 -35 0 -35 0 -35
-45z"/>
<path d="M9210 8906 c0 -35 -4 -45 -20 -49 -12 -3 -20 -14 -20 -27 0 -13 8
-24 20 -27 18 -5 20 -14 20 -84 l0 -79 35 0 35 0 0 80 c0 79 0 80 25 80 21 0
25 5 25 30 0 25 -4 30 -25 30 -23 0 -25 4 -25 45 0 45 0 45 -35 45 -35 0 -35
0 -35 -44z"/>
<path d="M12140 8905 c0 -33 -4 -45 -15 -45 -10 0 -15 -10 -15 -30 0 -20 5
-30 15 -30 12 0 15 -16 15 -80 l0 -80 35 0 35 0 0 80 c0 79 0 80 25 80 21 0
25 5 25 30 0 25 -4 30 -25 30 -23 0 -25 4 -25 45 0 45 0 45 -35 45 -35 0 -35
0 -35 -45z"/>
<path d="M3120 8863 c-81 -30 -102 -165 -33 -210 30 -20 96 -22 118 -3 10 9
15 9 15 1 0 -6 16 -11 35 -11 l35 0 0 110 0 110 -29 0 c-16 0 -31 -5 -33 -12
-3 -8 -11 -7 -28 5 -24 17 -52 20 -80 10z m84 -66 c13 -9 17 -23 14 -52 -2
-33 -8 -41 -31 -49 -23 -8 -31 -6 -48 11 -53 53 5 134 65 90z"/>
<path d="M3620 8863 c-81 -30 -102 -165 -33 -210 30 -20 96 -22 118 -3 10 9
15 9 15 1 0 -6 16 -11 35 -11 l35 0 0 110 0 110 -29 0 c-16 0 -31 -5 -33 -12
-3 -8 -11 -7 -28 5 -24 17 -52 20 -80 10z m84 -66 c13 -9 17 -23 14 -52 -2
-33 -8 -41 -31 -49 -23 -8 -31 -6 -48 11 -53 53 5 134 65 90z"/>
<path d="M4224 8860 c-73 -29 -88 -160 -25 -207 28 -20 72 -24 105 -8 19 10
32 12 34 5 2 -5 19 -10 38 -10 l35 0 -3 108 -3 107 -32 3 c-19 2 -33 -1 -33
-8 0 -6 -11 -5 -30 5 -32 17 -54 18 -86 5z m98 -67 c36 -32 12 -103 -35 -103
-30 0 -57 29 -57 61 0 52 53 77 92 42z"/>
<path d="M4513 8856 c-63 -28 -56 -97 13 -127 24 -11 44 -24 44 -29 0 -17 -22
-22 -51 -10 -23 10 -32 10 -45 -1 -15 -12 -14 -15 6 -31 34 -27 110 -24 138 5
42 45 23 94 -47 118 -42 15 -34 34 15 34 28 0 39 5 42 17 4 20 -3 25 -48 32
-21 4 -48 0 -67 -8z"/>
<path d="M4753 8855 c-36 -16 -73 -68 -73 -103 0 -79 78 -134 159 -112 l41 11
-15 30 c-13 25 -19 28 -36 19 -21 -12 -67 -3 -53 10 5 4 39 17 77 30 37 12 67
26 67 31 0 27 -35 72 -65 85 -42 17 -61 17 -102 -1z m84 -61 c2 -7 -17 -19
-42 -27 -47 -16 -53 -11 -34 24 7 15 19 19 41 17 17 -2 33 -8 35 -14z"/>
<path d="M5203 8859 c-47 -14 -73 -52 -73 -109 0 -60 26 -96 81 -110 112 -30
196 70 143 171 -15 30 -67 60 -101 58 -10 0 -32 -5 -50 -10z m79 -66 c22 -20
23 -61 1 -85 -33 -36 -83 -11 -83 42 0 52 45 76 82 43z"/>
<path d="M7460 8854 c-22 -10 -36 -11 -38 -4 -2 5 -17 10 -33 10 l-29 0 0
-160 0 -160 35 0 35 0 0 59 0 59 32 -15 c65 -33 151 26 151 104 0 54 -26 99
-64 112 -40 14 -46 14 -89 -5z m62 -61 c36 -33 14 -103 -33 -103 -38 0 -59 19
-59 52 0 58 52 87 92 51z"/>
<path d="M7777 8846 c-35 -24 -36 -24 -42 -5 -4 13 -15 19 -36 19 l-29 0 0
-110 0 -110 35 0 35 0 0 55 c0 46 4 60 25 80 13 14 31 25 40 25 11 0 15 10 15
35 0 19 -2 35 -4 35 -2 0 -19 -11 -39 -24z"/>
<path d="M7923 8859 c-47 -14 -73 -52 -73 -109 0 -60 26 -96 81 -110 112 -30
196 70 143 171 -15 30 -67 60 -101 58 -10 0 -32 -5 -50 -10z m79 -66 c22 -20
23 -61 1 -85 -33 -36 -83 -11 -83 42 0 52 45 76 82 43z"/>
<path d="M8183 8860 c-28 -11 -45 -44 -41 -78 2 -21 14 -32 48 -50 25 -12 46
-26 48 -31 6 -17 -30 -21 -58 -6 -27 14 -30 14 -40 -6 -7 -11 -10 -22 -8 -24
18 -15 55 -25 92 -25 36 0 48 5 65 26 38 48 19 96 -45 113 -15 4 -29 12 -32
19 -6 18 28 27 49 14 15 -10 20 -8 29 7 14 27 14 28 -21 40 -37 13 -56 13 -86
1z"/>
<path d="M8465 8855 c-19 -10 -31 -12 -33 -6 -2 6 -17 11 -33 11 l-29 0 0
-160 0 -160 35 0 35 0 0 55 c0 30 2 55 4 55 3 0 17 -5 31 -10 37 -14 99 4 124
37 32 40 29 114 -6 153 -34 38 -85 48 -128 25z m63 -61 c44 -30 17 -104 -38
-104 -36 0 -50 17 -50 62 0 54 42 75 88 42z"/>
<path d="M8734 8856 c-70 -31 -94 -108 -54 -173 25 -41 84 -60 136 -43 37 13
40 20 22 49 -9 15 -16 17 -30 10 -19 -10 -58 -4 -58 10 0 4 34 17 76 29 69 21
75 24 69 45 -19 64 -100 101 -161 73z m70 -52 c27 -10 18 -21 -29 -37 -42 -15
-45 -15 -45 2 0 34 35 50 74 35z"/>
<path d="M9430 8863 c-31 -12 -50 -37 -50 -68 0 -35 20 -58 64 -72 17 -5 31
-14 33 -20 7 -19 -36 -26 -61 -9 -24 15 -46 6 -46 -21 0 -32 107 -46 147 -18
49 35 34 103 -29 121 -36 11 -52 44 -21 44 10 0 24 -4 32 -9 10 -7 19 -4 28 7
18 25 16 29 -18 41 -34 12 -55 13 -79 4z"/>
<path d="M10440 8857 c-13 -7 -31 -24 -39 -38 -13 -24 -13 -29 2 -53 10 -14
33 -32 52 -40 19 -8 35 -20 35 -26 0 -19 -29 -23 -54 -7 -22 15 -25 15 -41 -2
-15 -18 -15 -20 7 -35 13 -9 43 -16 70 -16 60 0 88 24 88 75 0 32 -4 37 -46
58 -52 24 -55 42 -9 42 62 0 73 29 18 44 -48 14 -53 13 -83 -2z"/>
<path d="M10893 8855 c-19 -8 -35 -10 -38 -4 -4 5 -19 9 -36 9 l-29 0 0 -160
0 -160 35 0 35 0 0 55 c0 30 2 55 4 55 3 0 17 -5 32 -10 61 -24 137 20 150 85
9 49 -12 103 -50 126 -37 22 -59 23 -103 4z m60 -57 c9 -7 19 -25 22 -40 13
-51 -61 -90 -99 -52 -50 49 21 134 77 92z"/>
<path d="M11213 8850 c-18 -11 -33 -25 -34 -32 -1 -7 -4 -2 -8 12 -5 19 -13
25 -36 25 l-30 0 -3 -107 -3 -108 36 0 c35 0 35 0 35 44 0 63 15 96 50 109 25
9 30 17 30 44 0 18 -1 33 -2 33 -2 0 -18 -9 -35 -20z"/>
<path d="M11345 8851 c-44 -19 -65 -53 -65 -102 0 -81 74 -132 159 -109 54 14
81 51 81 109 0 55 -20 88 -66 107 -43 18 -61 17 -109 -5z m86 -51 c24 -13 26
-72 3 -94 -49 -49 -114 34 -67 86 18 20 36 23 64 8z"/>
<path d="M11614 8851 c-38 -23 -59 -77 -51 -128 12 -69 77 -106 141 -79 20 8
36 11 36 5 0 -5 16 -9 35 -9 l35 0 0 110 0 110 -29 0 c-17 0 -32 -4 -36 -9 -3
-6 -17 -4 -33 5 -36 19 -61 18 -98 -5z m107 -51 c14 -8 19 -21 19 -51 0 -32
-4 -41 -25 -51 -56 -25 -105 35 -71 87 17 26 45 32 77 15z"/>
<path d="M12765 8852 c-46 -21 -65 -55 -65 -111 0 -75 79 -126 156 -101 38 13
40 18 20 45 -9 12 -20 16 -35 12 -25 -6 -51 0 -51 13 0 4 33 17 74 29 l75 22
-10 28 c-24 69 -94 95 -164 63z m84 -56 c10 -11 3 -17 -34 -29 -42 -15 -45
-15 -45 2 0 37 55 56 79 27z"/>
<path d="M8984 8841 c-37 -22 -58 -75 -48 -117 15 -65 86 -103 157 -83 41 11
42 12 25 38 -9 14 -20 18 -42 14 -61 -9 -94 50 -52 92 22 22 29 23 53 14 22
-8 30 -7 40 7 18 24 16 31 -6 44 -31 16 -93 12 -127 -9z"/>
<path d="M10260 8750 l0 -110 35 0 35 0 0 110 0 110 -35 0 -35 0 0 -110z"/>
<path d="M11925 8848 c-37 -20 -55 -51 -55 -99 0 -83 68 -132 153 -108 41 11
41 12 27 39 -8 15 -17 18 -40 13 -38 -7 -70 19 -70 58 0 38 32 60 71 49 24 -7
32 -5 44 13 14 20 13 22 -8 34 -27 15 -95 16 -122 1z"/>
<path d="M12320 8751 l0 -111 35 0 36 0 -3 108 -3 107 -32 3 -33 3 0 -110z"/>
<path d="M12430 8853 c0 -8 121 -213 125 -213 3 0 82 136 114 198 11 21 10 22
-27 22 -38 0 -40 -2 -62 -52 l-22 -53 -26 53 c-25 49 -28 52 -64 52 -21 0 -38
-3 -38 -7z"/>
<path d="M6980 8821 c0 -25 -4 -30 -27 -33 -22 -2 -29 -9 -31 -30 -3 -25 0
-28 27 -28 28 0 31 -3 31 -30 0 -28 3 -30 35 -30 32 0 35 2 35 30 0 27 3 30
31 30 27 0 30 3 27 28 -2 21 -9 28 -30 30 -21 3 -27 9 -30 30 -2 22 -9 28 -35
30 -31 3 -33 1 -33 -27z"/>
<path d="M9587 8704 c-15 -16 -7 -53 14 -59 30 -10 58 19 43 43 -12 18 -45 28
-57 16z"/>
<path d="M4240 8249 c0 -79 -2 -90 -16 -85 -63 24 -121 12 -150 -32 -21 -32
-24 -100 -5 -135 8 -14 29 -33 48 -42 31 -15 39 -15 79 -2 24 8 44 10 44 6 0
-5 16 -9 35 -9 l35 0 0 195 0 195 -35 0 -35 0 0 -91z m-16 -145 c34 -33 6
-104 -40 -104 -43 0 -72 71 -44 105 16 20 64 19 84 -1z"/>
<path d="M5940 8145 l0 -195 35 0 35 0 0 68 c0 57 4 72 21 88 15 14 24 16 37
8 13 -9 18 -29 20 -88 l3 -76 34 0 35 0 0 90 c0 83 -2 93 -25 115 -29 30 -59
31 -102 5 l-33 -20 0 100 0 100 -30 0 -30 0 0 -195z"/>
<path d="M7210 8145 l0 -195 35 0 35 0 0 195 0 195 -35 0 -35 0 0 -195z"/>
<path d="M8040 8145 l0 -195 35 0 c34 0 35 1 35 39 0 57 15 58 45 6 25 -42 30
-45 67 -45 l40 0 -17 28 c-10 15 -29 43 -42 62 l-23 35 36 30 c36 30 36 30 16
49 -20 18 -22 17 -69 -19 l-48 -37 -3 121 -3 121 -34 0 -35 0 0 -195z"/>
<path d="M8450 8145 l0 -195 35 0 35 0 0 195 0 195 -35 0 -35 0 0 -195z"/>
<path d="M8590 8145 l0 -195 35 0 35 0 0 195 0 195 -35 0 -35 0 0 -195z"/>
<path d="M10300 8249 c0 -79 -2 -90 -16 -85 -66 25 -125 11 -155 -38 -37 -61
-14 -146 47 -172 32 -14 42 -14 80 -1 24 8 44 10 44 6 0 -5 16 -9 35 -9 l35 0
0 195 0 195 -35 0 -35 0 0 -91z m-18 -146 c46 -41 -2 -120 -58 -95 -13 7 -29
23 -36 36 -24 55 48 101 94 59z"/>
<path d="M3456 8265 c-20 -20 -5 -55 23 -55 28 0 47 28 34 48 -14 23 -38 26
-57 7z"/>
<path d="M6529 8264 c-9 -11 -10 -20 -2 -32 25 -41 86 -14 63 27 -13 25 -42
27 -61 5z"/>
<path d="M8322 8268 c-20 -20 -14 -47 12 -54 32 -8 46 2 46 31 0 32 -35 46
-58 23z"/>
<path d="M12622 8271 c-8 -4 -12 -19 -10 -32 2 -19 9 -24 33 -24 33 0 45 25
25 50 -14 17 -29 19 -48 6z"/>
<path d="M3080 8215 c0 -38 -3 -45 -20 -45 -16 0 -20 -7 -20 -30 0 -23 4 -30
20 -30 18 0 20 -7 20 -80 l0 -80 35 0 35 0 0 80 c0 79 0 80 25 80 21 0 25 5
25 30 0 25 -4 30 -25 30 -23 0 -25 4 -25 45 0 45 0 45 -35 45 -35 0 -35 0 -35
-45z"/>
<path d="M3270 8215 c0 -33 -4 -45 -15 -45 -10 0 -15 -10 -15 -30 0 -20 5 -30
15 -30 12 0 15 -16 15 -80 l0 -80 35 0 35 0 0 80 c0 79 0 80 25 80 21 0 25 5
25 30 0 25 -4 30 -25 30 -23 0 -25 4 -25 45 0 45 0 45 -35 45 -35 0 -35 0 -35
-45z"/>
<path d="M3610 8215 c0 -38 -3 -45 -20 -45 -16 0 -20 -7 -20 -30 0 -23 4 -30
20 -30 18 0 20 -7 20 -80 l0 -80 35 0 35 0 0 80 c0 79 0 80 25 80 21 0 25 5
25 30 0 25 -4 30 -25 30 -23 0 -25 4 -25 45 0 45 0 45 -35 45 -35 0 -35 0 -35
-45z"/>
<path d="M5250 8216 c0 -35 -4 -45 -20 -49 -12 -3 -20 -14 -20 -27 0 -13 8
-24 20 -27 18 -5 20 -14 20 -84 l0 -79 35 0 35 0 0 80 c0 79 0 80 25 80 21 0
25 5 25 30 0 25 -4 30 -25 30 -23 0 -25 4 -25 45 0 45 0 45 -35 45 -35 0 -35
0 -35 -44z"/>
<path d="M11150 8215 c0 -33 -4 -45 -15 -45 -10 0 -15 -10 -15 -30 0 -20 5
-30 15 -30 12 0 15 -16 15 -80 l0 -80 35 0 35 0 0 80 c0 79 0 80 25 80 21 0
25 5 25 30 0 25 -4 30 -25 30 -23 0 -25 4 -25 45 0 45 0 45 -35 45 -35 0 -35
0 -35 -45z"/>
<path d="M11850 8215 c0 -38 -3 -45 -20 -45 -16 0 -20 -7 -20 -30 0 -23 4 -30
20 -30 18 0 20 -7 20 -80 l0 -80 35 0 35 0 0 80 c0 79 0 80 25 80 21 0 25 5
25 30 0 25 -4 30 -25 30 -23 0 -25 4 -25 45 0 45 0 45 -35 45 -35 0 -35 0 -35
-45z"/>
<path d="M2810 8173 c-81 -30 -102 -165 -33 -210 30 -20 96 -22 118 -3 10 9
15 9 15 1 0 -6 16 -11 35 -11 l35 0 0 110 0 110 -29 0 c-16 0 -31 -5 -33 -12
-3 -8 -11 -7 -28 5 -24 17 -52 20 -80 10z m84 -66 c13 -9 17 -23 14 -52 -2
-33 -8 -41 -31 -49 -23 -8 -31 -6 -48 11 -53 53 5 134 65 90z"/>
<path d="M4455 8173 c-37 -10 -73 -43 -85 -78 -30 -91 54 -171 152 -144 42 11
43 12 27 41 -8 16 -17 19 -42 14 -31 -5 -68 6 -51 16 5 3 40 15 77 28 66 21
68 23 62 49 -9 35 -24 52 -62 68 -33 13 -44 14 -78 6z m60 -72 c0 -14 -74 -46
-83 -36 -3 2 3 16 12 30 13 19 24 25 44 23 15 -2 27 -9 27 -17z"/>
<path d="M5475 8162 c-46 -21 -65 -55 -65 -111 0 -75 79 -126 156 -101 38 13
40 18 20 45 -9 12 -20 16 -35 12 -25 -6 -51 0 -51 13 0 4 33 17 74 29 l75 22
-10 28 c-24 69 -94 95 -164 63z m84 -56 c10 -11 3 -17 -34 -29 -42 -15 -45
-15 -45 2 0 37 55 56 79 27z"/>
<path d="M6350 8173 c-8 -3 -22 -12 -31 -20 -14 -12 -17 -12 -22 2 -4 9 -19
15 -37 15 l-30 0 0 -110 0 -110 34 0 34 0 4 71 c3 56 8 74 23 85 40 29 50 15
53 -74 l3 -82 34 0 35 0 0 93 c0 98 -3 108 -37 126 -23 12 -39 13 -63 4z"/>
<path d="M6960 8173 c-81 -30 -102 -165 -33 -210 30 -20 96 -22 118 -3 10 9
15 9 15 1 0 -6 16 -11 35 -11 l35 0 0 110 0 110 -29 0 c-16 0 -31 -5 -33 -12
-3 -8 -11 -7 -28 5 -24 17 -52 20 -80 10z m84 -66 c13 -9 17 -23 14 -52 -2
-33 -8 -41 -31 -49 -23 -8 -31 -6 -48 11 -53 53 5 134 65 90z"/>
<path d="M7860 8167 c-13 -7 -31 -24 -39 -38 -13 -24 -13 -29 2 -53 10 -14 33
-32 52 -40 19 -8 35 -20 35 -26 0 -19 -29 -23 -54 -7 -22 15 -25 15 -41 -2
-15 -18 -15 -20 7 -35 13 -9 43 -16 70 -16 60 0 88 24 88 75 0 32 -4 37 -46
58 -52 24 -55 42 -9 42 62 0 73 29 18 44 -48 14 -53 13 -83 -2z"/>
<path d="M8780 8173 c-31 -12 -50 -37 -50 -68 0 -35 20 -58 64 -72 17 -5 31
-14 33 -20 7 -19 -36 -26 -61 -9 -24 15 -46 6 -46 -21 0 -32 107 -46 147 -18
49 35 34 103 -29 121 -36 11 -52 44 -21 44 10 0 24 -4 32 -9 10 -7 19 -4 28 7
18 25 16 29 -18 41 -34 12 -55 13 -79 4z"/>
<path d="M9564 8161 c-38 -23 -59 -77 -51 -128 12 -69 77 -106 141 -79 20 8
36 11 36 5 0 -5 16 -9 35 -9 l35 0 0 110 0 110 -29 0 c-17 0 -32 -4 -36 -9 -3
-6 -17 -4 -33 5 -36 19 -61 18 -98 -5z m107 -51 c14 -8 19 -21 19 -51 0 -32
-4 -41 -25 -51 -56 -25 -105 35 -71 87 17 26 45 32 77 15z"/>
<path d="M9950 8173 c-8 -3 -22 -12 -31 -20 -14 -12 -17 -12 -23 2 -4 11 -15
15 -33 13 l-28 -3 -3 -107 -3 -108 36 0 35 0 0 53 c0 56 15 94 43 111 30 18
47 -17 47 -96 l0 -68 36 0 36 0 -4 95 c-2 67 -7 99 -18 109 -17 18 -68 28 -90
19z"/>
<path d="M10950 8167 c-13 -7 -31 -24 -39 -38 -13 -24 -13 -29 2 -53 10 -14
33 -32 52 -40 19 -8 35 -20 35 -26 0 -19 -29 -23 -54 -7 -22 15 -25 15 -41 -2
-15 -18 -15 -20 7 -35 13 -9 43 -16 70 -16 60 0 88 24 88 75 0 32 -4 37 -46
58 -52 24 -55 42 -9 42 62 0 73 29 18 44 -48 14 -53 13 -83 -2z"/>
<path d="M11440 8163 c-14 -9 -30 -24 -37 -33 -11 -13 -12 -11 -13 13 0 23 -4
27 -30 27 l-30 0 0 -110 0 -110 30 0 c27 0 30 3 30 33 0 62 19 109 50 120 18
7 30 20 33 36 7 36 -4 44 -33 24z"/>
<path d="M11574 8170 c-73 -29 -88 -160 -25 -207 28 -20 72 -24 105 -8 19 10
32 12 34 5 2 -5 19 -10 38 -10 l35 0 -3 108 -3 107 -32 3 c-19 2 -33 -1 -33
-8 0 -6 -11 -5 -30 5 -32 17 -54 18 -86 5z m98 -67 c36 -32 12 -103 -35 -103
-30 0 -57 29 -57 61 0 52 53 77 92 42z"/>
<path d="M12095 8173 c-37 -10 -73 -43 -85 -78 -30 -91 54 -171 152 -144 42
11 43 12 27 41 -8 16 -17 19 -42 14 -31 -5 -68 6 -51 16 5 3 40 15 77 28 66
21 68 23 62 49 -9 35 -24 52 -62 68 -33 13 -44 14 -78 6z m60 -72 c0 -14 -74
-46 -83 -36 -3 2 3 16 12 30 13 19 24 25 44 23 15 -2 27 -9 27 -17z"/>
<path d="M12342 8163 c-90 -44 -79 -185 16 -214 33 -10 45 -9 72 5 41 20 40
20 40 -3 0 -23 -36 -51 -65 -51 -11 0 -31 7 -43 16 -21 15 -24 14 -42 -8 -19
-23 -19 -23 1 -40 48 -41 143 -32 190 18 22 24 24 34 27 155 l4 129 -31 0
c-16 0 -32 -4 -36 -9 -3 -6 -17 -4 -33 5 -35 18 -59 17 -100 -3z m112 -62 c25
-28 17 -72 -16 -91 -25 -13 -31 -13 -55 0 -54 30 -34 110 27 110 15 0 35 -9
44 -19z"/>
<path d="M3450 8061 l0 -111 35 0 36 0 -3 108 -3 107 -32 3 -33 3 0 -110z"/>
<path d="M3780 8075 c0 -82 3 -98 20 -115 30 -30 98 -22 122 14 5 7 8 4 8 -6
0 -14 8 -18 35 -18 l35 0 0 110 0 110 -35 0 -35 0 0 -63 c0 -72 -19 -110 -53
-105 -20 3 -22 10 -25 86 l-3 82 -34 0 -35 0 0 -95z"/>
<path d="M5721 8144 c-36 -30 -48 -78 -31 -128 19 -57 81 -85 150 -66 45 12
47 16 24 41 -11 13 -25 16 -44 12 -20 -4 -34 1 -49 16 -49 49 -5 110 64 88 15
-5 24 -1 34 15 12 19 11 23 -5 35 -10 7 -39 13 -65 13 -36 0 -55 -6 -78 -26z"/>
<path d="M6527 8163 c-4 -3 -7 -53 -7 -110 l0 -103 35 0 35 0 0 110 0 110 -28
0 c-16 0 -32 -3 -35 -7z"/>
<path d="M6684 8136 c-35 -35 -36 -39 -32 -88 4 -39 12 -57 31 -74 36 -30 88
-38 133 -19 36 15 36 16 19 35 -13 14 -25 17 -46 13 -21 -4 -36 0 -49 12 -46
42 -5 118 53 96 20 -8 29 -6 43 10 25 28 7 41 -60 47 -53 4 -57 3 -92 -32z"/>
<path d="M8310 8060 l0 -110 35 0 35 0 0 110 0 110 -35 0 -35 0 0 -110z"/>
<path d="M12610 8060 l0 -110 35 0 35 0 0 110 0 110 -35 0 -35 0 0 -110z"/>
<path d="M12784 8151 c-37 -22 -58 -75 -48 -117 15 -65 86 -103 157 -83 41 11
42 12 25 38 -9 14 -20 18 -42 14 -61 -9 -94 50 -52 92 22 22 29 23 53 14 22
-8 30 -7 40 7 18 24 16 31 -6 44 -31 16 -93 12 -127 -9z"/>
<path d="M4640 7965 c-6 -14 -14 -36 -20 -50 -9 -23 -7 -25 19 -25 25 0 31 7
49 50 l21 50 -30 0 c-22 0 -32 -6 -39 -25z"/>
<path d="M8936 7950 c-21 -54 -20 -60 9 -60 19 0 28 9 45 46 11 26 20 48 20
50 0 2 -13 4 -29 4 -24 0 -31 -6 -45 -40z"/>
<path d="M2950 7455 l0 -195 35 0 35 0 0 68 c0 57 4 72 21 88 15 14 24 16 37
8 13 -9 18 -29 20 -88 l3 -76 34 0 35 0 0 90 c0 83 -2 93 -25 115 -29 30 -59
31 -102 5 l-33 -20 0 100 0 100 -30 0 -30 0 0 -195z"/>
<path d="M3680 7455 l0 -195 35 0 c34 0 35 1 35 39 0 56 12 57 40 5 23 -42 27
-44 68 -44 l43 0 -41 59 c-22 33 -40 64 -40 68 0 4 16 19 35 32 34 23 35 25
19 42 -22 25 -24 25 -78 -16 l-46 -36 0 121 0 120 -35 0 -35 0 0 -195z"/>
<path d="M6060 7559 c0 -89 0 -90 -22 -82 -86 31 -158 -18 -158 -106 0 -89 68
-139 144 -107 20 8 36 11 36 5 0 -5 16 -9 35 -9 l35 0 0 195 0 195 -35 0 -35
0 0 -91z m-12 -141 c7 -7 12 -27 12 -45 0 -24 -7 -37 -26 -50 -24 -15 -29 -15
-53 -2 -32 18 -40 68 -16 93 19 19 66 21 83 4z"/>
<path d="M8480 7455 l0 -195 35 0 35 0 0 195 0 195 -35 0 -35 0 0 -195z"/>
<path d="M3252 7578 c-20 -20 -14 -47 12 -54 32 -8 46 2 46 31 0 32 -35 46
-58 23z"/>
<path d="M3956 7575 c-20 -20 -5 -55 23 -55 28 0 47 28 34 48 -14 23 -38 26
-57 7z"/>
<path d="M9102 7581 c-8 -4 -12 -19 -10 -32 2 -19 9 -24 33 -24 33 0 45 25 25
50 -14 17 -29 19 -48 6z"/>
<path d="M2770 7525 c0 -33 -4 -45 -15 -45 -10 0 -15 -10 -15 -30 0 -20 5 -30
15 -30 12 0 15 -16 15 -80 l0 -80 35 0 35 0 0 80 c0 79 0 80 25 80 21 0 25 5
25 30 0 25 -4 30 -25 30 -23 0 -25 4 -25 45 0 45 0 45 -35 45 -35 0 -35 0 -35
-45z"/>
<path d="M10530 7526 c0 -35 -4 -45 -20 -49 -12 -3 -20 -14 -20 -27 0 -13 8
-24 20 -27 18 -5 20 -14 20 -84 l0 -79 35 0 35 0 0 80 c0 79 0 80 25 80 21 0
25 5 25 30 0 25 -4 30 -25 30 -23 0 -25 4 -25 45 0 45 0 45 -35 45 -35 0 -35
0 -35 -44z"/>
<path d="M3500 7483 c-8 -3 -22 -12 -31 -20 -14 -12 -17 -12 -22 2 -4 9 -19
15 -37 15 l-30 0 0 -110 0 -110 34 0 34 0 4 71 c3 56 8 74 23 85 40 29 50 15
53 -74 l3 -82 34 0 35 0 0 93 c0 98 -3 108 -37 126 -23 12 -39 13 -63 4z"/>
<path d="M4204 7480 c-12 -5 -25 -13 -29 -19 -9 -16 -25 -13 -25 4 0 10 -10
15 -30 15 l-30 0 0 -110 0 -110 35 0 35 0 0 59 c0 69 6 88 30 101 39 21 50 3
50 -81 l0 -79 35 0 35 0 0 94 c0 90 -1 96 -26 115 -29 22 -46 25 -80 11z"/>
<path d="M4420 7468 c-22 -15 -40 -38 -49 -64 -13 -37 -12 -44 5 -80 13 -26
32 -45 57 -58 36 -17 41 -17 78 -3 l40 16 -3 -26 c-4 -37 -49 -51 -93 -30 -31
15 -34 14 -49 -2 -23 -26 -20 -35 19 -54 43 -21 85 -22 129 -3 59 24 66 45 66
189 l0 128 -47 -2 c-27 -1 -64 1 -83 5 -28 6 -42 3 -70 -16z m111 -48 c14 -8
19 -21 19 -50 0 -29 -5 -42 -19 -50 -32 -17 -58 -11 -80 17 -44 55 16 117 80
83z"/>
<path d="M5257 7470 c-21 -17 -26 -18 -31 -5 -3 9 -18 15 -36 15 l-30 0 0
-110 0 -110 34 0 34 0 4 71 c3 56 8 74 23 85 32 24 40 11 43 -74 l3 -82 33 0
33 0 6 66 c3 49 10 72 25 87 18 17 23 18 36 7 12 -9 16 -32 16 -86 l0 -74 35
0 35 0 0 90 c0 83 -2 93 -25 115 -29 30 -50 31 -91 6 -29 -18 -31 -18 -53 0
-30 24 -62 24 -94 -1z"/>
<path d="M5624 7471 c-38 -23 -59 -77 -51 -128 12 -69 77 -106 141 -79 20 8
36 11 36 5 0 -5 16 -9 35 -9 l35 0 0 110 0 110 -29 0 c-17 0 -32 -4 -36 -9 -3
-6 -17 -4 -33 5 -36 19 -61 18 -98 -5z m107 -51 c14 -8 19 -21 19 -51 0 -32
-4 -41 -25 -51 -56 -25 -105 35 -71 87 17 26 45 32 77 15z"/>
<path d="M6275 7483 c-37 -10 -73 -43 -85 -78 -30 -91 54 -171 152 -144 42 11
43 12 27 41 -8 16 -17 19 -42 14 -31 -5 -68 6 -51 16 5 3 40 15 77 28 66 21
68 23 62 49 -9 35 -24 52 -62 68 -33 13 -44 14 -78 6z m60 -72 c0 -14 -74 -46
-83 -36 -3 2 3 16 12 30 13 19 24 25 44 23 15 -2 27 -9 27 -17z"/>
<path d="M7000 7483 c-81 -30 -102 -165 -33 -210 30 -20 96 -22 118 -3 10 9
15 9 15 1 0 -6 16 -11 35 -11 l35 0 0 110 0 110 -29 0 c-16 0 -31 -5 -33 -12
-3 -8 -11 -7 -28 5 -24 17 -52 20 -80 10z m84 -66 c13 -9 17 -23 14 -52 -2
-33 -8 -41 -31 -49 -23 -8 -31 -6 -48 11 -53 53 5 134 65 90z"/>
<path d="M7817 7466 c-35 -24 -36 -24 -42 -5 -4 13 -15 19 -36 19 l-29 0 0
-110 0 -110 35 0 35 0 0 55 c0 46 4 60 25 80 13 14 31 25 40 25 11 0 15 10 15
35 0 19 -2 35 -4 35 -2 0 -19 -11 -39 -24z"/>
<path d="M7964 7476 c-70 -31 -94 -108 -54 -173 25 -41 84 -60 136 -43 37 13
40 20 22 49 -9 15 -16 17 -30 10 -19 -10 -58 -4 -58 10 0 4 34 17 76 29 69 21
75 24 69 45 -19 64 -100 101 -161 73z m70 -52 c27 -10 18 -21 -29 -37 -42 -15
-45 -15 -45 2 0 34 35 50 74 35z"/>
<path d="M8214 7471 c-38 -23 -59 -77 -51 -128 12 -69 77 -106 141 -79 20 8
36 11 36 5 0 -5 16 -9 35 -9 l35 0 0 110 0 110 -29 0 c-17 0 -32 -4 -36 -9 -3
-6 -17 -4 -33 5 -36 19 -61 18 -98 -5z m107 -51 c14 -8 19 -21 19 -51 0 -32
-4 -41 -25 -51 -56 -25 -105 35 -71 87 17 26 45 32 77 15z"/>
<path d="M9327 7470 c-21 -17 -26 -18 -31 -5 -3 9 -18 15 -36 15 l-30 0 0
-110 0 -110 34 0 34 0 4 71 c3 56 8 74 23 85 32 24 40 11 43 -74 l3 -82 33 0
33 0 6 66 c3 49 10 72 25 87 18 17 23 18 36 7 12 -9 16 -32 16 -86 l0 -74 35
0 35 0 0 90 c0 83 -2 93 -25 115 -29 30 -50 31 -91 6 -29 -18 -31 -18 -53 0
-30 24 -62 24 -94 -1z"/>
<path d="M9755 7475 c-19 -10 -31 -12 -33 -6 -2 6 -17 11 -33 11 l-29 0 0
-160 0 -160 35 0 35 0 0 55 c0 30 2 55 4 55 3 0 17 -5 31 -10 37 -14 99 4 124
37 32 40 29 114 -6 153 -34 38 -85 48 -128 25z m63 -61 c44 -30 17 -104 -38
-104 -36 0 -50 17 -50 62 0 54 42 75 88 42z"/>
<path d="M10008 7474 c-60 -32 -78 -129 -33 -182 31 -36 75 -47 121 -27 19 8
34 10 34 4 0 -5 16 -9 35 -9 l35 0 0 110 0 110 -29 0 c-17 0 -32 -4 -36 -9 -3
-6 -17 -4 -33 5 -34 18 -60 17 -94 -2z m106 -60 c33 -32 8 -104 -36 -104 -25
0 -58 35 -58 62 0 49 61 76 94 42z"/>
<path d="M11225 7476 c-50 -23 -70 -52 -70 -106 0 -37 6 -54 24 -74 93 -99
259 -6 207 117 -25 62 -101 91 -161 63z m93 -78 c28 -59 -40 -118 -80 -68 -22
27 -23 49 -2 78 22 31 64 26 82 -10z"/>
<path d="M11570 7483 c-8 -3 -22 -12 -31 -20 -14 -12 -17 -12 -22 2 -4 9 -19
15 -37 15 l-30 0 0 -110 0 -110 34 0 34 0 4 71 c3 56 8 74 23 85 40 29 50 15
53 -74 l3 -82 34 0 35 0 0 93 c0 98 -3 108 -37 126 -23 12 -39 13 -63 4z"/>
<path d="M12260 7473 c-44 -22 -74 -80 -65 -122 28 -129 221 -127 241 1 7 41
-15 97 -46 115 -36 23 -92 25 -130 6z m100 -75 c13 -25 13 -31 0 -55 -29 -52
-93 -34 -93 25 0 64 62 84 93 30z"/>
<path d="M12893 7470 c-18 -11 -33 -25 -34 -32 -1 -7 -4 -2 -8 12 -5 19 -13
25 -36 25 l-30 0 -3 -107 -3 -108 36 0 c35 0 35 0 35 44 0 63 15 96 50 109 25
9 30 17 30 44 0 18 -1 33 -2 33 -2 0 -18 -9 -35 -20z"/>
<path d="M3240 7370 l0 -110 35 0 35 0 0 110 0 110 -35 0 -35 0 0 -110z"/>
<path d="M3950 7371 l0 -111 35 0 36 0 -3 108 -3 107 -32 3 -33 3 0 -110z"/>
<path d="M9090 7370 l0 -110 35 0 35 0 0 110 0 110 -35 0 -35 0 0 -110z"/>
<path d="M10304 7461 c-37 -22 -58 -75 -48 -117 15 -65 86 -103 157 -83 41 11
42 12 25 38 -9 14 -20 18 -42 14 -61 -9 -94 50 -52 92 22 22 29 23 53 14 22
-8 30 -7 40 7 18 24 16 31 -6 44 -31 16 -93 12 -127 -9z"/>
<path d="M12500 7381 c0 -92 2 -101 22 -115 31 -22 70 -20 102 5 21 17 26 18
26 5 0 -11 9 -16 30 -16 l30 0 0 111 0 110 -32 -3 -33 -3 -5 -73 c-5 -74 -17
-95 -50 -89 -11 2 -16 22 -20 82 l-5 80 -32 3 -33 3 0 -100z"/>
<path d="M4070 6765 l0 -195 35 0 35 0 0 59 c0 69 6 88 30 101 39 21 50 3 50
-81 l0 -79 35 0 35 0 0 94 c0 91 -1 95 -27 116 -31 24 -74 22 -105 -7 -17 -15
-18 -12 -18 85 l0 102 -35 0 -35 0 0 -195z"/>
<path d="M4445 6918 c-22 -61 11 -93 39 -39 9 16 16 35 16 41 0 14 -50 13 -55
-2z"/>
<path d="M4515 6918 c-22 -61 11 -93 39 -39 9 16 16 35 16 41 0 14 -50 13 -55
-2z"/>
<path d="M3890 6835 c0 -33 -4 -45 -15 -45 -10 0 -15 -10 -15 -30 0 -20 5 -30
15 -30 12 0 15 -16 15 -80 l0 -80 35 0 35 0 0 79 c0 79 0 80 28 83 21 2 27 8
27 28 0 20 -6 26 -27 28 -26 3 -28 7 -28 48 0 44 0 44 -35 44 -35 0 -35 0 -35
-45z"/>
<path d="M2790 6778 c-22 -15 -40 -38 -49 -64 -13 -37 -12 -44 5 -80 13 -26
32 -45 57 -58 36 -17 41 -17 78 -3 l40 16 -3 -26 c-4 -37 -49 -51 -93 -30 -31
15 -34 14 -49 -2 -23 -26 -20 -35 19 -54 43 -21 85 -22 129 -3 59 24 66 45 66
189 l0 128 -47 -2 c-27 -1 -64 1 -83 5 -28 6 -42 3 -70 -16z m111 -48 c14 -8
19 -21 19 -50 0 -29 -5 -42 -19 -50 -32 -17 -58 -11 -80 17 -44 55 16 117 80
83z"/>
<path d="M3180 6783 c-14 -9 -30 -24 -37 -33 -11 -13 -12 -11 -13 13 0 23 -4
27 -30 27 l-30 0 0 -110 0 -110 30 0 c27 0 30 3 30 33 0 62 19 109 50 120 18
7 30 20 33 36 7 36 -4 44 -33 24z"/>
<path d="M3315 6786 c-50 -23 -70 -52 -70 -106 0 -37 6 -54 24 -74 93 -99 259
-6 207 117 -25 62 -101 91 -161 63z m93 -78 c28 -59 -40 -118 -80 -68 -22 27
-23 49 -2 78 22 31 64 26 82 -10z"/>
<path d="M3510 6780 c0 -17 83 -210 91 -210 3 0 18 27 32 60 15 33 29 60 32
60 3 0 20 -29 37 -65 17 -37 32 -65 33 -63 4 4 95 219 95 224 0 2 -15 4 -33 4
-31 0 -35 -4 -47 -41 -8 -22 -17 -42 -20 -44 -4 -3 -15 16 -25 40 -15 40 -20
45 -47 45 -23 0 -29 -4 -24 -15 6 -16 -12 -65 -25 -65 -4 0 -14 18 -23 40 -14
34 -20 40 -46 40 -16 0 -30 -5 -30 -10z"/>
<path d="M4341 6622 c-12 -23 4 -52 29 -52 25 0 41 30 29 53 -13 22 -46 22
-58 -1z"/>
<path d="M6210 4878 c0 -7 -9 -85 -20 -172 -27 -215 -28 -206 15 -206 33 0 35
2 35 34 0 18 6 39 14 45 11 10 17 3 31 -34 17 -44 19 -45 60 -45 l43 0 -34 64
-34 63 41 28 c40 28 40 29 20 48 -19 20 -20 20 -70 -17 -28 -20 -53 -36 -54
-36 -2 0 2 46 9 103 18 145 20 137 -21 137 -21 0 -35 -5 -35 -12z"/>
<path d="M7220 4878 c0 -7 -9 -85 -20 -172 -27 -214 -27 -206 14 -206 33 0 33
0 39 57 7 62 33 108 63 108 17 0 19 -8 17 -82 l-1 -83 33 0 c36 0 34 -6 51
135 7 66 -9 90 -64 90 -26 0 -48 -7 -63 -20 l-22 -20 7 65 c4 36 10 82 13 103
6 37 6 37 -31 37 -22 0 -36 -5 -36 -12z"/>
<path d="M4935 4858 c-3 -11 -45 -333 -45 -351 0 -4 16 -7 35 -7 38 0 35 -5
52 94 4 27 13 51 18 53 6 1 30 -31 53 -72 l44 -75 44 0 c33 0 43 3 38 13 -4 6
-32 52 -62 101 l-55 89 82 76 c45 42 82 79 81 84 0 4 -18 7 -41 7 -37 0 -48
-6 -116 -72 l-75 -73 6 35 c3 19 7 51 8 70 3 33 1 35 -30 38 -20 2 -34 -2 -37
-10z"/>
<path d="M7008 4863 c-15 -3 -41 -17 -58 -33 -25 -23 -30 -36 -30 -73 0 -48 8
-58 90 -110 45 -29 51 -62 15 -79 -21 -9 -33 -9 -58 1 -59 23 -63 23 -80 -3
-17 -25 -17 -26 25 -47 32 -17 54 -20 100 -17 73 5 107 34 115 96 5 37 2 45
-28 74 -19 18 -49 41 -67 50 -84 45 -28 102 63 64 32 -14 34 -13 49 9 9 14 16
26 16 28 0 6 -73 35 -100 40 -14 2 -37 2 -52 0z"/>
<path d="M9966 4848 c-3 -13 -12 -84 -21 -158 -9 -74 -18 -147 -21 -162 -5
-27 -4 -28 34 -28 l39 0 9 73 9 72 78 3 c88 3 83 10 68 -95 l-7 -53 38 0 c21
0 38 3 38 8 0 4 9 77 20 162 27 208 27 200 -14 200 -34 0 -35 -1 -41 -47 -15
-112 -7 -103 -94 -103 l-77 0 7 53 c14 95 13 97 -26 97 -28 0 -36 -4 -39 -22z"/>
<path d="M10366 4848 c-3 -13 -12 -84 -21 -158 -9 -74 -18 -147 -21 -162 -5
-27 -4 -28 35 -28 41 0 41 0 41 38 1 100 36 110 85 22 29 -52 33 -55 74 -58
24 -2 41 0 39 5 -2 4 -17 34 -33 65 l-29 57 27 27 c31 30 50 92 41 128 -14 55
-77 85 -186 86 -41 0 -48 -3 -52 -22z m158 -74 c18 -48 -10 -84 -66 -84 -41 0
-44 6 -32 69 6 29 9 31 49 31 30 0 45 -5 49 -16z"/>
<path d="M10857 4860 c-3 -8 -12 -80 -21 -160 -9 -80 -19 -157 -22 -172 -5
-26 -3 -28 29 -28 39 0 39 0 53 109 l6 53 45 -76 c25 -42 48 -76 52 -76 3 1
33 34 65 75 33 41 62 75 64 75 2 0 1 -36 -3 -80 l-7 -80 36 0 c22 0 36 5 36
13 0 6 9 84 20 171 12 87 20 166 18 174 -3 12 -68 -61 -199 -222 -15 -18 -18
-15 -74 80 -91 157 -93 160 -98 144z"/>
<path d="M6060 4809 c-20 -37 28 -67 58 -37 17 17 15 45 -4 52 -28 11 -43 7
-54 -15z"/>
<path d="M7714 4816 c-11 -28 1 -51 25 -51 28 0 47 25 38 49 -8 20 -56 21 -63
2z"/>
<path d="M8657 4803 c-4 -3 -7 -24 -7 -45 0 -31 -3 -38 -20 -38 -16 0 -20 -7
-20 -30 0 -21 5 -30 16 -30 10 0 14 -6 10 -17 -2 -10 -8 -46 -11 -80 l-7 -63
35 0 35 0 7 63 c9 88 13 97 41 97 14 0 24 6 24 14 0 8 3 21 6 30 5 12 0 16
-21 16 -26 0 -27 2 -23 45 3 44 3 45 -28 45 -17 0 -34 -3 -37 -7z"/>
<path d="M5283 4714 c-21 -10 -40 -32 -54 -61 -19 -39 -20 -50 -10 -82 6 -21
20 -46 30 -55 22 -20 78 -24 110 -7 14 8 21 8 21 1 0 -5 15 -10 34 -10 40 0
42 4 51 100 3 36 8 77 11 93 5 25 3 27 -25 27 -16 0 -32 -4 -36 -9 -3 -6 -17
-4 -33 5 -35 18 -59 17 -99 -2z m102 -60 c29 -30 -1 -104 -43 -104 -31 0 -52
21 -52 52 0 58 57 89 95 52z"/>
<path d="M5646 4705 c-34 -23 -36 -23 -36 -5 0 15 -7 20 -29 20 -33 0 -35 -6
-46 -120 -4 -36 -9 -73 -11 -82 -4 -15 1 -18 29 -18 39 0 47 12 47 67 0 37 44
93 73 93 14 0 27 28 27 58 0 18 -13 15 -54 -13z"/>
<path d="M5870 4723 c-8 -3 -23 -12 -32 -21 -16 -14 -18 -13 -18 2 0 13 -7 17
-32 14 l-33 -3 -12 -85 c-18 -132 -18 -130 21 -130 34 0 34 0 41 58 8 66 18
87 46 102 15 9 24 8 35 -1 14 -12 14 -45 -2 -131 -5 -26 -3 -28 29 -28 40 0
42 4 53 120 5 60 3 78 -8 88 -18 15 -68 23 -88 15z"/>
<path d="M6494 4711 c-47 -29 -64 -59 -64 -114 0 -38 5 -53 25 -72 13 -14 32
-25 42 -26 37 -2 68 3 82 14 11 9 15 9 18 0 3 -7 19 -13 37 -13 l33 0 7 68 c4
37 10 86 13 110 6 42 5 42 -25 42 -17 0 -33 -4 -37 -9 -3 -6 -17 -4 -33 5 -36
19 -61 18 -98 -5z m104 -53 c30 -30 -2 -108 -45 -108 -46 0 -69 66 -36 102 18
20 63 24 81 6z"/>
<path d="M7596 4705 c-35 -24 -36 -24 -36 -4 0 17 -5 20 -32 17 -33 -3 -33 -4
-40 -68 -4 -36 -10 -84 -13 -107 l-6 -43 35 0 c35 0 35 0 42 52 8 55 46 108
78 108 9 0 16 8 16 19 0 11 3 26 6 35 9 23 -8 20 -50 -9z"/>
<path d="M8134 4711 c-47 -29 -64 -59 -64 -114 0 -38 5 -53 25 -72 13 -14 32
-25 42 -26 37 -2 68 3 82 14 11 9 15 9 18 0 3 -7 19 -13 37 -13 l33 0 7 68 c4
37 10 86 13 110 6 42 5 42 -25 42 -17 0 -33 -4 -37 -9 -3 -6 -17 -4 -33 5 -36
19 -61 18 -98 -5z m104 -53 c30 -30 -2 -108 -45 -108 -46 0 -69 66 -36 102 18
20 63 24 81 6z"/>
<path d="M8440 4723 c-32 -12 -50 -37 -50 -68 0 -34 17 -53 63 -73 15 -6 27
-16 27 -21 0 -17 -33 -21 -61 -7 -25 12 -30 12 -44 -4 -15 -17 -15 -19 7 -34
13 -9 43 -16 71 -16 103 0 133 98 41 136 -19 8 -34 19 -34 24 0 17 27 23 48
11 15 -8 23 -6 37 9 16 17 16 19 -2 28 -25 14 -85 22 -103 15z"/>
<path d="M8860 4712 c-88 -44 -90 -180 -2 -213 15 -6 36 -4 62 5 22 8 40 10
40 5 0 -5 15 -9 34 -9 39 0 41 6 52 140 l7 80 -32 0 c-17 0 -31 -5 -31 -10 0
-6 -13 -4 -30 5 -37 19 -57 19 -100 -3z m103 -56 c28 -29 -4 -106 -45 -106
-31 0 -61 38 -53 68 11 48 66 69 98 38z"/>
<path d="M9420 4712 c-88 -44 -90 -180 -2 -213 15 -6 36 -4 62 5 22 8 40 10
40 5 0 -5 15 -9 34 -9 39 0 41 6 52 140 l7 80 -32 0 c-17 0 -31 -5 -31 -10 0
-6 -13 -4 -30 5 -37 19 -57 19 -100 -3z m103 -56 c28 -29 -4 -106 -45 -106
-31 0 -61 38 -53 68 11 48 66 69 98 38z"/>
<path d="M11343 4715 c-63 -27 -91 -112 -58 -175 22 -42 87 -56 136 -29 13 6
19 6 19 -1 0 -5 15 -10 34 -10 l33 0 12 88 c16 130 16 132 -18 132 -17 0 -33
-5 -36 -10 -4 -7 -14 -5 -28 5 -26 18 -52 19 -94 0z m95 -57 c17 -17 15 -68
-5 -90 -33 -36 -93 -8 -93 44 0 43 69 75 98 46z"/>
<path d="M11720 4723 c-8 -3 -23 -12 -32 -21 -16 -14 -18 -13 -18 2 0 13 -7
17 -32 14 l-33 -3 -12 -85 c-18 -132 -18 -130 21 -130 34 0 34 0 41 58 8 66
18 87 46 102 15 9 24 8 35 -1 14 -12 14 -45 -2 -131 -5 -26 -3 -28 29 -28 40
0 42 4 53 120 5 60 3 78 -8 88 -18 15 -68 23 -88 15z"/>
<path d="M11943 4715 c-63 -27 -91 -112 -58 -175 22 -42 87 -56 136 -29 13 6
19 6 19 -1 0 -5 15 -10 34 -10 l33 0 12 88 c16 130 16 132 -18 132 -17 0 -33
-5 -36 -10 -4 -7 -14 -5 -28 5 -26 18 -52 19 -94 0z m95 -57 c17 -17 15 -68
-5 -90 -33 -36 -93 -8 -93 44 0 43 69 75 98 46z"/>
<path d="M12254 4716 c-47 -21 -74 -62 -74 -112 0 -80 75 -133 143 -99 39 19
38 20 25 -15 -13 -38 -48 -48 -93 -27 -31 15 -34 15 -55 -8 l-22 -23 26 -17
c60 -39 166 -25 200 27 11 17 46 220 46 270 0 11 -58 10 -65 -1 -3 -6 -17 -4
-33 5 -33 17 -58 17 -98 0z m97 -56 c25 -14 25 -64 -1 -90 -40 -40 -100 -16
-100 40 0 47 55 74 101 50z"/>
<path d="M12573 4719 c-86 -25 -110 -158 -36 -206 23 -15 112 -21 132 -9 7 5
7 14 -1 32 -9 19 -17 24 -34 20 -24 -6 -54 1 -54 13 0 4 34 15 75 25 65 15 75
21 75 40 0 31 -28 66 -66 82 -38 16 -46 16 -91 3z m76 -63 c9 -11 5 -16 -20
-25 -36 -12 -69 -14 -69 -4 0 3 7 15 17 25 19 21 56 24 72 4z"/>
<path d="M12896 4705 c-35 -24 -36 -24 -36 -4 0 17 -5 20 -32 17 -33 -3 -33
-4 -40 -68 -4 -36 -10 -84 -13 -107 l-6 -43 35 0 c35 0 35 0 42 52 8 55 46
108 78 108 9 0 16 8 16 19 0 11 3 26 6 35 9 23 -8 20 -50 -9z"/>
<path d="M6047 4698 c-3 -13 -8 -54 -12 -93 -4 -38 -9 -78 -11 -87 -4 -15 1
-18 30 -18 40 0 42 4 51 100 3 36 8 77 11 93 5 25 3 27 -29 27 -28 0 -36 -5
-40 -22z"/>
<path d="M7697 4683 c-4 -21 -9 -71 -13 -110 l-7 -73 35 0 35 0 7 73 c4 39 10
89 13 110 6 37 5 37 -29 37 -33 0 -36 -2 -41 -37z"/>
<path d="M7820 4709 c0 -12 79 -189 91 -202 6 -8 133 167 146 201 4 8 -6 12
-30 12 -32 0 -38 -5 -66 -52 -25 -45 -31 -50 -37 -33 -29 81 -32 85 -68 85
-20 0 -36 -5 -36 -11z"/>
<path d="M9100 4713 c0 -13 93 -213 99 -213 7 0 141 203 141 213 0 4 -16 7
-35 7 -32 0 -37 -4 -61 -52 l-27 -53 -18 40 c-10 22 -18 46 -18 53 -1 13 -81
18 -81 5z"/>
<path d="M4490 4610 l0 -30 75 0 75 0 0 30 0 30 -75 0 -75 0 0 -30z"/>
<path d="M9644 4450 c-9 -32 -8 -40 3 -45 25 -9 32 -6 48 26 20 38 13 59 -18
59 -18 0 -25 -8 -33 -40z"/>
<path d="M11501 4186 c-31 -17 -49 -50 -57 -108 -5 -37 -11 -48 -24 -48 -12 0
-19 -10 -22 -30 -4 -24 -1 -30 15 -30 17 0 18 -5 12 -52 -3 -29 -8 -65 -11
-80 -5 -26 -3 -28 29 -28 39 0 39 1 52 108 7 51 7 52 41 52 31 0 34 3 34 30 0
27 -3 30 -31 30 l-31 0 7 48 c9 60 12 65 42 59 31 -6 66 39 42 54 -20 13 -70
10 -98 -5z"/>
<path d="M10667 4173 c-6 -9 -47 -312 -47 -345 0 -14 8 -18 35 -18 37 0 42 7
47 80 3 35 3 35 58 40 67 6 107 30 126 75 27 64 11 126 -38 151 -34 17 -173
31 -181 17z m151 -109 c4 -41 -20 -64 -64 -64 -32 0 -34 2 -34 34 0 58 8 67
54 64 38 -3 41 -5 44 -34z"/>
<path d="M11895 4166 c-143 -53 -169 -274 -40 -340 44 -22 122 -26 167 -8 25
10 26 13 16 45 l-11 35 -35 -15 c-29 -12 -44 -13 -74 -4 -48 15 -68 44 -68
101 0 95 73 150 155 116 40 -17 41 -17 66 26 21 38 -105 70 -176 44z"/>
<path d="M11036 4015 c-34 -23 -36 -23 -36 -5 0 15 -7 20 -29 20 -33 0 -35 -6
-46 -120 -4 -36 -9 -73 -11 -82 -4 -15 1 -18 29 -18 39 0 47 12 47 67 0 37 44
93 73 93 14 0 27 28 27 58 0 18 -13 15 -54 -13z"/>
<path d="M11193 4033 c-54 -11 -105 -98 -87 -149 33 -91 167 -106 221 -25 63
94 -18 198 -134 174z m71 -69 c37 -37 2 -113 -47 -100 -36 9 -50 37 -36 73 17
45 54 57 83 27z"/>
<path d="M12193 4033 c-32 -6 -79 -56 -86 -90 -12 -64 28 -131 82 -135 43 -3
85 2 94 11 15 15 -12 52 -36 50 -83 -7 -73 14 18 35 60 14 75 21 75 36 0 28
-19 64 -39 77 -23 14 -78 22 -108 16z m66 -67 c15 -18 6 -23 -49 -32 -44 -7
-46 -4 -17 34 13 16 52 15 66 -2z"/>
<path d="M12439 4029 c-31 -11 -54 -58 -44 -88 3 -12 24 -30 46 -41 21 -11 39
-25 39 -31 0 -19 -30 -21 -56 -4 -25 16 -27 16 -43 0 -15 -15 -14 -18 8 -36
35 -28 111 -26 139 4 24 26 29 70 10 87 -7 6 -28 20 -47 31 -25 15 -31 23 -22
32 8 8 19 8 40 0 21 -8 32 -8 40 0 20 20 11 36 -26 46 -44 13 -49 13 -84 0z"/>
<path d="M12659 4029 c-31 -11 -54 -58 -44 -88 3 -12 24 -30 46 -41 21 -11 39
-25 39 -31 0 -19 -30 -21 -56 -4 -25 16 -27 16 -43 0 -15 -15 -14 -18 8 -36
35 -28 111 -26 139 4 24 26 29 70 10 87 -7 6 -28 20 -47 31 -25 15 -31 23 -22
32 8 8 19 8 40 0 21 -8 32 -8 40 0 20 20 11 36 -26 46 -44 13 -49 13 -84 0z"/>
<path d="M11626 3928 c-10 -38 -8 -39 42 -36 43 3 47 5 50 31 3 26 1 27 -41
27 -38 0 -46 -3 -51 -22z"/>
<path d="M13965 2479 c-11 -21 -15 -42 -10 -63 8 -41 8 -63 0 -114 -7 -40 -6
-44 29 -77 l38 -35 -30 -48 c-20 -32 -35 -46 -47 -44 -51 10 -175 -47 -175
-80 0 -6 -12 -24 -27 -42 -14 -17 -32 -46 -40 -64 -13 -31 -12 -38 8 -78 11
-25 39 -59 60 -76 21 -17 39 -39 39 -48 0 -37 39 -48 92 -25 23 9 36 -21 20
-46 -18 -28 -14 -57 8 -71 11 -7 20 -24 20 -38 0 -14 11 -37 24 -52 l25 -26
-15 -93 c-10 -65 -20 -97 -31 -104 -52 -31 -63 -52 -63 -119 l0 -65 -61 -58
c-67 -63 -119 -136 -119 -166 0 -12 14 2 40 39 22 33 64 86 94 119 l53 60 39
-27 c22 -15 60 -36 87 -47 28 -12 47 -27 47 -37 0 -8 -25 -44 -55 -77 -30 -34
-55 -67 -55 -73 0 -16 112 -147 130 -152 8 -2 -3 14 -24 37 -22 22 -37 43 -34
46 3 4 18 -10 33 -29 15 -20 32 -36 38 -36 6 0 31 19 54 42 24 23 43 37 43 31
0 -6 -20 -27 -46 -48 -25 -20 -42 -40 -39 -43 6 -6 121 103 136 130 6 12 -2
31 -37 78 -51 70 -53 94 -9 97 140 12 289 54 380 108 l43 25 63 -90 c35 -50
65 -86 67 -81 5 15 -25 66 -73 126 -44 54 -45 56 -45 128 0 59 -4 77 -18 90
-16 15 -18 25 -11 75 37 271 30 587 -15 743 l-24 83 34 38 c38 42 44 80 20
127 -13 25 -13 30 5 57 19 29 25 78 13 108 -12 30 -42 17 -70 -29 -22 -39 -33
-47 -81 -61 -45 -13 -57 -21 -71 -50 l-16 -35 -56 8 c-58 8 -114 7 -167 -2
-27 -5 -34 -2 -50 26 -10 17 -39 42 -65 55 -42 21 -47 28 -50 61 -4 50 -31 56
-53 12z m45 -21 c0 -24 5 -50 10 -58 6 -10 10 -11 10 -3 0 22 65 -16 84 -49
10 -16 16 -31 14 -32 -1 -1 -19 -12 -39 -24 l-36 -22 -11 23 c-11 20 -11 20
-5 -7 8 -38 -13 -26 -33 18 -7 17 -13 23 -14 14 0 -9 12 -30 26 -47 24 -29 27
-61 5 -61 -13 0 -61 59 -61 75 0 8 5 26 10 40 10 27 11 27 37 9 24 -15 23 -12
-10 26 -40 47 -47 82 -21 118 23 33 34 27 34 -20z m624 26 c12 -31 6 -72 -15
-95 -17 -20 -20 -21 -14 -5 3 11 -14 -2 -37 -29 -45 -50 -56 -70 -57 -95 0 -8
7 1 15 20 8 19 24 45 36 57 18 19 22 20 35 8 7 -8 18 -28 24 -44 12 -35 2 -60
-44 -108 -30 -32 -48 -85 -21 -62 26 21 53 -170 54 -376 0 -161 -19 -490 -31
-521 -21 -58 -387 -157 -415 -113 -4 7 -22 9 -48 5 -34 -5 -50 -1 -94 25 -45
25 -53 34 -48 52 3 12 11 54 17 93 l13 72 47 5 c84 10 170 58 259 144 71 68
86 89 89 126 1 5 5 6 10 2 5 -3 13 0 17 6 5 8 3 9 -6 4 -10 -6 -12 -4 -6 11
18 45 16 46 -7 4 -32 -58 -102 -137 -138 -156 -16 -8 -29 -12 -29 -9 0 2 -17
-4 -37 -14 -80 -41 -195 -35 -228 12 -27 38 -19 45 60 49 41 2 79 8 86 15 8 8
-1 8 -36 1 -53 -11 -123 -4 -151 16 -17 13 -17 17 -4 41 11 20 12 33 3 56 -9
24 -9 29 3 29 17 0 36 -44 32 -74 -3 -19 3 -21 47 -24 103 -7 133 4 200 71 63
63 107 141 120 209 7 35 8 36 37 26 21 -7 33 -7 40 0 8 8 6 11 -8 11 -10 1
-37 3 -59 7 -24 3 -35 2 -28 -3 10 -7 10 -20 -1 -61 -18 -70 -57 -126 -111
-157 -68 -41 -113 -43 -196 -10 -75 29 -94 48 -104 107 -7 34 -5 36 25 43 60
13 138 102 123 141 -10 27 -102 64 -163 65 -94 1 -26 18 77 18 50 1 103 5 116
10 46 18 61 112 21 128 -21 8 -71 -44 -79 -82 -5 -25 -3 -23 13 12 34 71 81
79 82 14 0 -20 -2 -22 -16 -10 -14 11 -18 10 -30 -6 -8 -10 -12 -27 -8 -37 5
-16 -1 -18 -40 -18 l-46 0 33 62 c36 71 72 107 104 108 15 0 23 7 25 22 4 26
31 36 109 37 91 2 149 -9 150 -28 0 -9 11 7 24 36 22 49 27 53 79 68 45 13 59
23 72 48 30 59 47 71 58 41z m-781 -617 c22 -11 37 -26 37 -37 0 -9 7 -36 15
-59 14 -41 14 -43 -10 -67 -33 -33 -52 -30 -69 11 -8 19 -19 35 -25 35 -19 0
-82 88 -87 122 -4 25 1 43 22 74 l27 42 26 -51 c18 -36 37 -57 64 -70z m315
-212 c-28 -24 -94 -40 -139 -33 -23 3 -23 4 9 21 18 10 36 15 41 13 5 -3 28 1
52 8 62 20 68 19 37 -9z m446 -447 c-15 -18 -15 -20 -1 -9 15 12 17 11 17 -12
0 -74 -8 -86 -94 -127 -102 -49 -215 -79 -328 -87 l-88 -6 0 52 c0 28 5 51 10
51 6 0 9 6 8 12 -2 9 24 15 92 19 157 11 370 92 370 142 0 20 1 20 17 4 16
-15 15 -18 -3 -39z m-653 19 c-6 -8 -7 -18 -3 -22 4 -5 1 -5 -5 -1 -7 4 -13 3
-13 -2 0 -13 58 -57 102 -78 34 -16 34 -16 30 -73 -2 -31 -6 -57 -7 -59 -6 -6
-76 28 -120 58 -40 28 -45 35 -45 70 0 21 4 41 10 45 5 3 30 -10 55 -30 26
-19 52 -35 58 -35 7 0 -4 11 -24 23 -52 32 -89 64 -89 75 0 10 39 41 54 41 5
1 3 -5 -3 -12z m174 -129 c-23 -21 -26 -30 -27 -100 -2 -78 -12 -100 -24 -53
-10 38 0 141 15 159 8 9 24 16 38 16 l24 0 -26 -22z m25 -148 c0 -5 -2 -10 -4
-10 -3 0 -8 5 -11 10 -3 6 -1 10 4 10 6 0 11 -4 11 -10z m29 -76 c28 -37 51
-72 51 -79 0 -6 -9 -20 -20 -30 -15 -13 -20 -15 -20 -4 0 7 -22 -8 -49 -35
l-48 -47 -49 53 c-27 29 -43 46 -36 37 25 -32 10 -33 -18 0 l-29 34 28 36 c39
48 81 87 81 74 0 -6 -7 -16 -15 -23 -9 -7 -30 -32 -47 -54 -29 -37 -30 -39 -5
-17 19 17 27 20 27 10 1 -10 3 -9 11 4 14 24 33 22 19 -2 -7 -13 -7 -22 0 -26
13 -8 13 -65 0 -65 -6 0 -9 12 -8 26 2 17 -2 28 -12 31 -10 3 -11 2 -4 -4 6
-4 11 -19 10 -33 -2 -36 28 -33 32 4 2 16 -1 33 -7 39 -7 7 -7 16 0 29 14 26
3 35 -21 20 -33 -20 -23 4 15 37 36 31 51 39 40 21 -3 -5 0 -10 7 -10 19 0 91
-99 84 -116 -3 -8 -1 -14 3 -14 5 0 11 6 14 13 3 10 -18 42 -96 145 -6 8 -6
12 1 12 5 0 33 -30 61 -66z"/>
<path d="M14580 2317 c0 -21 -59 -89 -71 -81 -5 3 -9 -2 -9 -11 0 -12 4 -14
19 -5 37 19 82 92 67 107 -3 4 -6 -1 -6 -10z"/>
<path d="M14228 2300 c-31 -19 -22 -39 15 -33 24 4 37 0 51 -16 21 -23 56 -28
56 -8 0 39 -87 78 -122 57z"/>
<path d="M14207 2202 c-10 -10 -17 -25 -17 -33 0 -8 6 -3 13 11 19 37 68 39
96 4 28 -36 27 -68 -5 -93 -15 -12 -22 -21 -15 -21 18 0 51 39 51 60 0 29 -26
76 -45 84 -30 11 -62 6 -78 -12z"/>
<path d="M14190 2131 c0 -26 27 -52 46 -44 9 3 14 15 12 32 -2 20 -9 27 -30
29 -22 3 -28 -1 -28 -17z"/>
<path d="M14215 2050 c12 -19 72 -22 101 -5 16 9 20 13 9 10 -46 -16 -56 -17
-85 -6 -17 5 -28 6 -25 1z"/>
<path d="M14247 1533 c-4 -3 -7 -11 -7 -17 0 -6 5 -5 12 2 6 6 9 14 7 17 -3 3
-9 2 -12 -2z"/>
<path d="M14524 1154 c-18 -14 -18 -14 6 -3 31 14 36 19 24 19 -6 0 -19 -7
-30 -16z"/>
<path d="M14220 1080 l-65 -7 60 0 c33 -1 71 3 85 7 30 10 15 10 -80 0z"/>
<path d="M14105 837 c-4 -18 -5 -51 -2 -72 3 -34 4 -32 5 15 1 30 7 62 12 70
8 13 14 10 35 -15 13 -16 24 -33 25 -37 0 -3 -12 -21 -27 -40 l-27 -33 32 29
c18 17 32 34 32 39 0 18 -51 77 -65 77 -8 0 -17 -14 -20 -33z"/>
<path d="M14133 805 c4 -8 2 -17 -3 -20 -6 -4 -10 -14 -10 -23 0 -11 6 -7 19
13 19 30 18 45 -1 45 -5 0 -8 -7 -5 -15z"/>
<path d="M1653 1560 c-88 -54 -83 -192 9 -251 26 -16 45 -19 87 -16 48 3 58 8
93 45 34 37 38 47 38 92 0 96 -52 150 -145 150 -32 0 -62 -7 -82 -20z"/>
<path d="M2085 1549 c-104 -92 -38 -259 103 -259 100 0 174 120 127 209 -8 16
-28 40 -45 55 -26 22 -41 26 -90 26 -52 0 -64 -4 -95 -31z"/>
<path d="M2548 1563 c-35 -22 -68 -82 -68 -124 0 -81 68 -149 149 -149 87 0
141 58 141 154 0 55 -3 61 -39 97 -36 37 -42 39 -97 39 -37 0 -69 -7 -86 -17z"/>
</g>
</svg>
